<svg width="22" height="22" viewBox="0 0 22 22" fill="none" xmlns="http://www.w3.org/2000/svg">
<path d="M16.4202 4.61042L11 10.0307L5.57975 4.61042C5.44938 4.49112 5.27802 4.42672 5.10135 4.43064C4.92468 4.43455 4.75634 4.50648 4.63139 4.63143C4.50643 4.75638 4.43451 4.92473 4.43059 5.1014C4.42668 5.27806 4.49108 5.44943 4.61037 5.57979L10.0279 11L4.609 16.4189C4.5428 16.482 4.48987 16.5577 4.45334 16.6415C4.41681 16.7254 4.39741 16.8157 4.39628 16.9071C4.39515 16.9986 4.4123 17.0893 4.44675 17.174C4.48119 17.2587 4.53222 17.3357 4.59684 17.4004C4.66146 17.4651 4.73837 17.5163 4.82304 17.5508C4.9077 17.5854 4.99843 17.6027 5.08987 17.6017C5.18132 17.6007 5.27164 17.5814 5.35553 17.545C5.43942 17.5086 5.51519 17.4558 5.57837 17.3897L11 11.9708L16.4202 17.391C16.5506 17.5103 16.722 17.5747 16.8986 17.5708C17.0753 17.5669 17.2437 17.495 17.3686 17.37C17.4936 17.2451 17.5655 17.0767 17.5694 16.9001C17.5733 16.7234 17.5089 16.552 17.3896 16.4217L11.9694 11.0014L17.3896 5.57979C17.4558 5.5167 17.5087 5.44101 17.5453 5.35717C17.5818 5.27333 17.6012 5.18304 17.6023 5.09159C17.6035 5.00015 17.5863 4.9094 17.5519 4.82468C17.5174 4.73997 17.4664 4.66299 17.4018 4.59828C17.3372 4.53357 17.2603 4.48243 17.1756 4.44786C17.0909 4.4133 17.0002 4.39601 16.9087 4.39701C16.8173 4.39802 16.727 4.41729 16.6431 4.4537C16.5592 4.49011 16.4834 4.54293 16.4202 4.60904V4.61042Z" fill="black"/>
</svg>
