<svg width="22" height="22" viewBox="0 0 22 22" fill="none" xmlns="http://www.w3.org/2000/svg">
<path fill-rule="evenodd" clip-rule="evenodd" d="M11 1.146C11.3797 1.146 11.6875 1.4538 11.6875 1.8335V11.8917L13.2281 10.0944C13.4751 9.80611 13.9091 9.77275 14.1974 10.0199C14.4857 10.2669 14.5191 10.701 14.272 10.9893L11.522 14.1976C11.3914 14.3499 11.2007 14.4377 11 14.4377C10.7994 14.4377 10.6086 14.3499 10.4781 14.1976L7.72802 10.9893C7.48092 10.701 7.5143 10.2669 7.80259 10.0199C8.09088 9.77275 8.5249 9.80611 8.772 10.0944L10.3125 11.8917V1.8335C10.3125 1.4538 10.6203 1.146 11 1.146ZM6.41285 7.56446C6.79254 7.56235 7.10205 7.86844 7.10417 8.24813C7.10629 8.62782 6.80019 8.93733 6.42051 8.93944C5.41813 8.94502 4.70764 8.97106 4.16841 9.0701C3.64884 9.16554 3.3481 9.31881 3.12494 9.54193C2.87124 9.79566 2.70583 10.1519 2.6154 10.8244C2.5223 11.5169 2.52084 12.4346 2.52084 13.7503V14.667C2.52084 15.9828 2.5223 16.9005 2.6154 17.5929C2.70583 18.2656 2.87124 18.6217 3.12494 18.8754C3.37863 19.1292 3.73483 19.2945 4.40745 19.385C5.09986 19.478 6.01754 19.4795 7.33334 19.4795H14.6667C15.9825 19.4795 16.9001 19.478 17.5926 19.385C18.2652 19.2945 18.6214 19.1292 18.8751 18.8754C19.1288 18.6217 19.2942 18.2656 19.3847 17.5929C19.4777 16.9005 19.4792 15.9828 19.4792 14.667V13.7503C19.4792 12.4346 19.4777 11.5169 19.3847 10.8244C19.2942 10.1519 19.1288 9.79566 18.8751 9.54193C18.6519 9.31881 18.3512 9.16554 17.8317 9.0701C17.2924 8.97106 16.5819 8.94502 15.5795 8.93944C15.1998 8.93733 14.8937 8.62782 14.8958 8.24813C14.898 7.86844 15.2075 7.56235 15.5872 7.56446C16.5786 7.56999 17.4049 7.59371 18.08 7.71773C18.7748 7.84535 19.3661 8.0885 19.8474 8.56969C20.3991 9.12144 20.6365 9.8162 20.7474 10.6413C20.8542 11.4359 20.8542 12.4465 20.8542 13.7V14.7173C20.8542 15.971 20.8542 16.9814 20.7474 17.7762C20.6365 18.6013 20.3991 19.2959 19.8474 19.8477C19.2956 20.3995 18.6009 20.6368 17.7758 20.7477C16.9811 20.8546 15.9706 20.8545 14.717 20.8545H7.28305C6.02942 20.8545 5.01896 20.8546 4.22424 20.7477C3.39914 20.6368 2.70442 20.3995 2.15266 19.8477C1.6009 19.2959 1.36359 18.6013 1.25265 17.7762C1.14581 16.9814 1.14583 15.971 1.14584 14.7173V13.7C1.14583 12.4465 1.14581 11.4359 1.25265 10.6413C1.36359 9.8162 1.6009 9.12144 2.15266 8.56969C2.63385 8.08849 3.22516 7.84535 3.92 7.71773C4.59518 7.59371 5.42145 7.56998 6.41285 7.56446Z" fill="#769AA3"/>
</svg>
