<svg width="22" height="22" viewBox="0 0 22 22" fill="none" xmlns="http://www.w3.org/2000/svg">
<path fill-rule="evenodd" clip-rule="evenodd" d="M11 3.4375C6.82335 3.4375 3.4375 6.82335 3.4375 11C3.4375 15.1766 6.82335 18.5625 11 18.5625C15.1766 18.5625 18.5625 15.1766 18.5625 11C18.5625 6.82335 15.1766 3.4375 11 3.4375ZM2.0625 11C2.0625 6.06395 6.06395 2.0625 11 2.0625C15.9361 2.0625 19.9375 6.06395 19.9375 11C19.9375 15.9361 15.9361 19.9375 11 19.9375C6.06395 19.9375 2.0625 15.9361 2.0625 11ZM11 10.3125C11.3797 10.3125 11.6875 10.6203 11.6875 11V14.2083C11.6875 14.588 11.3797 14.8958 11 14.8958C10.6203 14.8958 10.3125 14.588 10.3125 14.2083V11C10.3125 10.6203 10.6203 10.3125 11 10.3125ZM11 7.33333C10.4937 7.33333 10.0833 7.74374 10.0833 8.25C10.0833 8.75626 10.4937 9.16667 11 9.16667H11.0092C11.5154 9.16667 11.9258 8.75626 11.9258 8.25C11.9258 7.74374 11.5154 7.33333 11.0092 7.33333H11Z" fill="#769AA3"/>
</svg>
