<svg width="22" height="22" viewBox="0 0 22 22" fill="none" xmlns="http://www.w3.org/2000/svg">
<mask id="mask0_65_1207" style="mask-type:luminance" maskUnits="userSpaceOnUse" x="1" y="1" width="20" height="20">
<path d="M21 1H1V21H21V1Z" fill="white"/>
</mask>
<g mask="url(#mask0_65_1207)">
<path d="M15.643 9.27441C16.0625 9.65555 16.3575 10.2425 16.3575 11.0002C16.3575 11.758 16.0625 12.345 15.643 12.7261" stroke="white" stroke-width="1.5" stroke-linecap="round" stroke-linejoin="round"/>
<path d="M17.7307 5.77197C19.0187 6.91411 19.9294 8.69311 19.9294 10.9996C19.9294 13.306 19.0187 15.085 17.7307 16.2272" stroke="white" stroke-width="1.5" stroke-linecap="round" stroke-linejoin="round"/>
<path d="M2.28116 8.79505C2.16042 9.48705 2.07096 10.2569 2.07096 10.9999C2.07096 11.7429 2.16042 12.5128 2.28116 13.2048C2.51306 14.5336 3.51574 15.6419 4.85124 15.8319C5.18156 15.8789 5.56599 15.9192 6.01904 15.9486C7.09899 16.0185 8.07502 16.6222 8.65662 17.5349C8.88448 17.8923 9.12529 18.2413 9.37426 18.5723C10.4931 20.0603 12.2374 19.2011 12.3136 17.3411C12.377 15.7885 12.4281 13.7005 12.4281 10.9999C12.4281 8.29931 12.377 6.21134 12.3136 4.6588C12.2374 2.79871 10.4931 1.93951 9.37426 3.42743C9.12529 3.75854 8.88448 4.10743 8.65662 4.46495C8.07502 5.37759 7.09899 5.9813 6.01904 6.05123C5.56599 6.08055 5.18156 6.12085 4.85124 6.16788C3.51574 6.35794 2.51306 7.46618 2.28116 8.79505Z" stroke="white" stroke-width="1.5" stroke-linecap="round" stroke-linejoin="round"/>
</g>
</svg>
