<svg width="22" height="22" viewBox="0 0 22 22" fill="none" xmlns="http://www.w3.org/2000/svg">
<g clip-path="url(#clip0_57_660)">
<path d="M8.47918 17.6457V17.1873H5.04168C4.49489 17.1866 3.97071 16.9691 3.58407 16.5824C3.19744 16.1958 2.9799 15.6716 2.97918 15.1248V14.7747C2.97738 14.3386 3.09799 13.9107 3.32729 13.5398C3.55659 13.1689 3.88538 12.8697 4.27626 12.6764C4.45106 12.589 4.60054 12.4583 4.71046 12.2967C4.82038 12.1351 4.88708 11.948 4.90418 11.7533L5.31301 7.25249C5.44059 5.83326 6.09455 4.51312 7.14628 3.55169C8.19801 2.59027 9.57139 2.05713 10.9963 2.05713C12.4213 2.05713 13.7947 2.59027 14.8464 3.55169C15.8981 4.51312 16.5521 5.83326 16.6797 7.25249L17.0885 11.7533C17.107 11.9475 17.1744 12.1338 17.2843 12.2949C17.3943 12.456 17.5433 12.5866 17.7173 12.6746C18.1085 12.868 18.4377 13.1672 18.6674 13.5383C18.8972 13.9093 19.0184 14.3373 19.0172 14.7737V15.1239C19.0167 15.6708 18.7992 16.1951 18.4125 16.5818C18.0259 16.9685 17.5015 17.1859 16.9547 17.1864H13.5208V17.6457C13.5208 18.3142 13.2553 18.9554 12.7825 19.4282C12.3098 19.9009 11.6686 20.1665 11 20.1665C10.3314 20.1665 9.69026 19.9009 9.21751 19.4282C8.74476 18.9554 8.47918 18.3142 8.47918 17.6457ZM9.85418 17.6457C9.85418 17.9495 9.9749 18.241 10.1898 18.4559C10.4047 18.6708 10.6961 18.7915 11 18.7915C11.3039 18.7915 11.5954 18.6708 11.8102 18.4559C12.0251 18.241 12.1458 17.9495 12.1458 17.6457V17.1873H9.85418V17.6457ZM6.68709 7.37899L6.27918 11.878C6.24133 12.3063 6.09408 12.7177 5.85155 13.0728C5.60901 13.4278 5.27932 13.7146 4.89409 13.9057C4.73171 13.9856 4.59502 14.1095 4.49957 14.2633C4.40412 14.4171 4.35375 14.5946 4.35418 14.7756V15.1257C4.35466 15.3078 4.42728 15.4823 4.55613 15.611C4.68498 15.7397 4.85957 15.8121 5.04168 15.8123H16.9583C17.1406 15.8121 17.3153 15.7396 17.4442 15.6107C17.5731 15.4818 17.6456 15.3071 17.6458 15.1248V14.7747C17.6465 14.5941 17.5965 14.4169 17.5015 14.2633C17.4066 14.1097 17.2705 13.9858 17.1087 13.9057C16.723 13.7149 16.3928 13.4283 16.1498 13.0732C15.9067 12.7181 15.759 12.3066 15.7208 11.878L15.3138 7.37899C15.2158 6.30278 14.7189 5.30211 13.9208 4.57346C13.1228 3.84482 12.0811 3.44083 11.0005 3.44083C9.9198 3.44083 8.87817 3.84482 8.0801 4.57346C7.28203 5.30211 6.78517 6.30278 6.68709 7.37899Z" fill="#769AA3"/>
<circle cx="15.5" cy="3.5" r="3.5" fill="#545454"/>
</g>
<defs>
<clipPath id="clip0_57_660">
<rect width="22" height="22" fill="white"/>
</clipPath>
</defs>
</svg>
