<svg width="22" height="22" viewBox="0 0 22 22" fill="none" xmlns="http://www.w3.org/2000/svg">
<path d="M8.43784 5.06754C9.57781 3.02252 10.1478 2 11 2C11.8522 2 12.4222 3.02251 13.5621 5.06753L13.857 5.5966C14.181 6.17773 14.3429 6.4683 14.5956 6.66002C14.8481 6.85174 15.1626 6.9229 15.7917 7.06524L16.3644 7.19482C18.5781 7.6957 19.685 7.94613 19.9483 8.79295C20.2117 9.63973 19.4571 10.5222 17.9479 12.2869L17.5575 12.7435C17.1286 13.2449 16.9142 13.4957 16.8177 13.8059C16.7213 14.1161 16.7537 14.4507 16.8185 15.1198L16.8775 15.7289C17.1057 18.0835 17.2198 19.2608 16.5304 19.7842C15.8409 20.3075 14.8046 19.8303 12.7319 18.8761L12.1956 18.6291C11.6067 18.3579 11.3122 18.2223 11 18.2223C10.6878 18.2223 10.3933 18.3579 9.80434 18.6291L9.26812 18.8761C7.19541 19.8303 6.15906 20.3075 5.46963 19.7842C4.78021 19.2608 4.89429 18.0835 5.12246 15.7289L5.18148 15.1198C5.24632 14.4507 5.27874 14.1161 5.18227 13.8059C5.08581 13.4957 4.87139 13.2449 4.44253 12.7435L4.05209 12.2869C2.54293 10.5222 1.78834 9.63973 2.05168 8.79295C2.31502 7.94613 3.42187 7.6957 5.63558 7.19482L6.2083 7.06524C6.83736 6.9229 7.15189 6.85174 7.40444 6.66002C7.65699 6.4683 7.81897 6.17774 8.14292 5.5966L8.43784 5.06754Z" stroke="#769AA3" stroke-width="1.5"/>
</svg>
