<svg width="26" height="26" viewBox="0 0 26 26" fill="none" xmlns="http://www.w3.org/2000/svg">
<path d="M9.91595 5.85892C11.2881 3.39731 11.9742 2.1665 13 2.1665C14.0258 2.1665 14.7119 3.3973 16.0841 5.8589L16.4391 6.49575C16.8291 7.19526 17.024 7.54503 17.328 7.7758C17.632 8.00657 18.0105 8.09223 18.7678 8.26356L19.4572 8.41954C22.1218 9.02244 23.4542 9.32389 23.7712 10.3432C24.0882 11.3625 23.1799 12.4247 21.3632 14.5489L20.8933 15.0985C20.3771 15.7021 20.1189 16.0039 20.0028 16.3773C19.8868 16.7508 19.9258 17.1534 20.0038 17.9589L20.0748 18.6921C20.3495 21.5263 20.4868 22.9434 19.657 23.5734C18.8271 24.2033 17.5796 23.629 15.0847 22.4803L14.4392 22.183C13.7303 21.8566 13.3758 21.6934 13 21.6934C12.6242 21.6934 12.2697 21.8566 11.5608 22.183L10.9154 22.4803C8.42043 23.629 7.17297 24.2033 6.3431 23.5734C5.51324 22.9434 5.65056 21.5263 5.92521 18.6921L5.99625 17.9589C6.0743 17.1534 6.11333 16.7508 5.9972 16.3773C5.88109 16.0039 5.62299 15.7021 5.10677 15.0985L4.6368 14.5489C2.82021 12.4247 1.91191 11.3625 2.22889 10.3432C2.54588 9.32389 3.8782 9.02244 6.54286 8.41954L7.23224 8.26356C7.98944 8.09223 8.36805 8.00657 8.67204 7.7758C8.97604 7.54503 9.17101 7.19527 9.56095 6.49575L9.91595 5.85892Z" fill="#FFC700"/>
</svg>
