<svg width="40" height="40" viewBox="0 0 40 40" fill="none" xmlns="http://www.w3.org/2000/svg">
<circle cx="20" cy="20" r="20" fill="#769AA3"/>
<g clip-path="url(#clip0_206_534)">
<path d="M29.8104 28.9119L24.6468 23.8308C25.999 22.3616 26.8298 20.4187 26.8298 18.2807C26.8291 13.7071 23.062 10 18.4147 10C13.7673 10 10.0002 13.7071 10.0002 18.2807C10.0002 22.8543 13.7673 26.5614 18.4147 26.5614C20.4226 26.5614 22.2643 25.8668 23.7109 24.7122L28.8946 29.8134C29.1472 30.0622 29.5573 30.0622 29.8098 29.8134C30.063 29.5646 30.063 29.1607 29.8104 28.9119ZM18.4147 25.2873C14.4825 25.2873 11.2949 22.1504 11.2949 18.2807C11.2949 14.411 14.4825 11.274 18.4147 11.274C22.3469 11.274 25.5345 14.411 25.5345 18.2807C25.5345 22.1504 22.3469 25.2873 18.4147 25.2873Z" fill="white"/>
</g>
<defs>
<clipPath id="clip0_206_534">
<rect width="20" height="20" fill="white" transform="translate(10 10)"/>
</clipPath>
</defs>
</svg>
