<svg width="180" height="180" viewBox="0 0 180 180" fill="none" xmlns="http://www.w3.org/2000/svg">
<g clip-path="url(#clip0_236_2498)">
<mask id="mask0_236_2498" style="mask-type:luminance" maskUnits="userSpaceOnUse" x="0" y="0" width="180" height="180">
<path d="M180 0H0V180H180V0Z" fill="white"/>
</mask>
<g mask="url(#mask0_236_2498)">
<path d="M84.3118 4.6393C87.6231 1.93859 92.3769 1.93859 95.688 4.6393L102.828 10.4625C105.075 12.2947 108.067 12.9326 110.865 12.1762L119.735 9.77867C123.854 8.66528 128.189 10.5975 130.115 14.4052L134.306 22.6938C135.611 25.2732 138.074 27.0691 140.929 27.5214L150.045 28.9656C154.246 29.631 157.407 33.1461 157.625 37.3935L158.105 46.7445C158.252 49.6197 159.767 52.2508 162.179 53.823L169.979 58.9068C173.53 61.2222 174.984 65.703 173.469 69.6631L170.114 78.4318C169.087 81.1144 169.403 84.1258 170.962 86.5373L176.056 94.4091C178.358 97.9668 177.866 102.648 174.875 105.65L168.278 112.273C166.25 114.31 165.316 117.193 165.766 120.032L167.234 129.301C167.897 133.494 165.54 137.581 161.578 139.108L152.929 142.438C150.237 143.474 148.205 145.738 147.464 148.526L145.069 157.542C143.976 161.661 140.144 164.447 135.89 164.219L126.702 163.728C123.81 163.573 121.021 164.819 119.207 167.075L113.413 174.282C110.736 177.611 106.088 178.6 102.288 176.649L94.1103 172.451C91.53 171.127 88.47 171.127 85.8898 172.451L77.7119 176.649C73.9119 178.6 69.2641 177.611 66.5876 174.282L60.7932 167.075C58.9789 164.819 56.1897 163.573 53.2983 163.728L44.11 164.219C39.8556 164.447 36.0244 161.661 34.9308 157.542L32.5357 148.526C31.7952 145.738 29.7632 143.474 27.0713 142.438L18.4222 139.108C14.46 137.581 12.103 133.494 12.767 129.301L14.2346 120.032C14.6842 117.193 13.7503 114.31 11.7217 112.273L5.12435 105.65C2.13407 102.648 1.64263 97.9668 3.94428 94.4091L9.0374 86.5373C10.5977 84.1258 10.9132 81.1144 9.88664 78.4318L6.531 69.6631C5.01553 65.703 6.46975 61.2222 10.0219 58.9068L17.8213 53.823C20.2331 52.2508 21.7473 49.6197 21.8948 46.7445L22.3747 37.3935C22.5927 33.1461 25.754 29.631 29.9546 28.9656L39.0707 27.5214C41.9255 27.0691 44.3893 25.2732 45.6938 22.6938L49.8855 14.4052C51.8112 10.5975 56.146 8.66528 60.2652 9.77867L69.1353 12.1762C71.9338 12.9326 74.9254 12.2947 77.1719 10.4625L84.3118 4.6393Z" fill="url(#paint0_linear_236_2498)"/>
</g>
</g>
<defs>
<linearGradient id="paint0_linear_236_2498" x1="159.3" y1="-2.17224e-05" x2="35.55" y2="137.25" gradientUnits="userSpaceOnUse">
<stop stop-color="#769AA3"/>
<stop offset="1" stop-color="#BFD0D4"/>
</linearGradient>
<clipPath id="clip0_236_2498">
<rect width="180" height="180" fill="white"/>
</clipPath>
</defs>
</svg>
