<svg width="286" height="21" viewBox="0 0 286 21" fill="none" xmlns="http://www.w3.org/2000/svg">
<path fill-rule="evenodd" clip-rule="evenodd" d="M0 0V21H1.5L1.5 0H0ZM4 0L4 21H5.5L5.5 0H4ZM8 21L8 0H9.5L9.5 21H8ZM12 0L12 21H13.5L13.5 0H12ZM16 21L16 0H17.5V21H16ZM20 0V21H21.5V0H20ZM24 21V0H25.5V21H24ZM28 0V21H29.5V0H28ZM32 21V0H33.5V21H32ZM36 0V21H37.5V0H36ZM40 21V0H41.5V21H40ZM44 0V21H45.5V0H44ZM48 21V0H49.5V21H48ZM52 0V21H53.5V0H52ZM56 21V0H57.5V21H56ZM60 0V21H61.5V0H60ZM64 21V0H65.5V21H64ZM68 0V21H69.5V0H68ZM72 21V0H73.5V21H72ZM76 0V21H77.5V0H76ZM80 21V0H81.5V21H80ZM84 0V21H85.5V0H84ZM88 21V0H89.5V21H88ZM92 0V21H93.5V0H92ZM96 21V0H97.5V21H96ZM100 0V21H101.5V0H100ZM104 21V0H105.5V21H104ZM108 0V21H109.5V0H108ZM112 21V0H113.5V21H112ZM116 0V21H117.5V0H116ZM120 21V0H121.5V21H120ZM124 0V21H125.5V0H124ZM128 21V0H129.5V21H128ZM132 0V21H133.5V0H132ZM136 21V0H137.5V21H136ZM140 0V21H141.5V0H140ZM144 21V0H145.5V21H144ZM148 0V21H149.5V0H148ZM152 21V0H153.5V21H152ZM156 0V21H157.5V0H156ZM160 21V0H161.5V21H160ZM164 0V21H165.5V0H164ZM168 21V0H169.5V21H168ZM172 0V21H173.5V0H172ZM176 21V0H177.5V21H176ZM180 0V21H181.5V0H180ZM184 21V0H185.5V21H184ZM188 0V21H189.5V0H188ZM192 21V0H193.5V21H192ZM196 0V21H197.5V0H196ZM200 21V0H201.5V21H200ZM204 0V21H205.5V0H204ZM208 21V0H209.5V21H208ZM212 0V21H213.5V0H212ZM216 21V0H217.5V21H216ZM220 0V21H221.5V0H220ZM224 21V0H225.5V21H224ZM228 0V21H229.5V0H228ZM232 21V0H233.5V21H232ZM236 0V21H237.5V0H236ZM240 21V0H241.5V21H240ZM244 0V21H245.5V0H244ZM248 21V0H249.5V21H248ZM252 0V21H253.5V0H252ZM256 21V0H257.5V21H256ZM260 0V21H261.5V0H260ZM264 21V0H265.5V21H264ZM268 0V21H269.5V0H268ZM272 21V0H273.5V21H272ZM276 0V21H277.5V0H276ZM280 21V0H281.5V21H280ZM284 0V21H285.5V0H284Z" fill="url(#paint0_linear_1561_7711)"/>
<defs>
<linearGradient id="paint0_linear_1561_7711" x1="0" y1="10.5" x2="285.5" y2="10.5" gradientUnits="userSpaceOnUse">
<stop stop-color="#FDEBDF"/>
<stop offset="0.130061" stop-color="#FCDCC7"/>
<stop offset="0.252088" stop-color="#F1B693"/>
<stop offset="0.363947" stop-color="#EFA77C"/>
<stop offset="0.473772" stop-color="#F07E45"/>
<stop offset="0.585631" stop-color="#E66F2B"/>
<stop offset="0.715794" stop-color="#E35B1D"/>
<stop offset="0.850025" stop-color="#E24A00"/>
<stop offset="1" stop-color="#FF0000"/>
</linearGradient>
</defs>
</svg>
