<svg width="22" height="22" viewBox="0 0 22 22" fill="none" xmlns="http://www.w3.org/2000/svg">
<path d="M0.879883 12.5322L9.82655 2.33616C10.4132 1.6639 11.4399 1.59987 12.1243 2.1761C12.1895 2.22412 12.2384 2.28815 12.2873 2.33616L21.234 12.5322" stroke="white" stroke-linecap="round" stroke-linejoin="round"/>
<path d="M4.00896 8.97954L9.82673 2.3209C10.4134 1.64864 11.4401 1.5686 12.1245 2.14483C12.1897 2.19285 12.2386 2.25688 12.3038 2.3209L18.1216 8.97954L18.4475 11.3005C18.7408 13.3973 18.7245 15.5261 18.3986 17.623C18.2356 18.6794 17.3067 19.4637 16.2149 19.4637H5.91562C4.82377 19.4637 3.89488 18.6794 3.73192 17.623C3.40599 15.5261 3.3897 13.3973 3.68303 11.3005L4.00896 8.97954Z" stroke="white" stroke-linejoin="round"/>
<path d="M11.0652 11.9248C12.5645 11.9248 13.7867 13.1253 13.7867 14.5979V19.4638H8.34375V14.5979C8.34375 13.1253 9.56597 11.9248 11.0652 11.9248Z" stroke="white" stroke-linecap="round" stroke-linejoin="round"/>
</svg>
