<svg width="22" height="22" viewBox="0 0 22 22" fill="none" xmlns="http://www.w3.org/2000/svg">
<g clip-path="url(#clip0_1075_5210)">
<path d="M1.14492 17.9386C1.37001 19.5044 2.65693 20.7228 4.22766 20.8647C6.41494 21.0604 8.68051 21.2708 10.9999 21.2708C13.3193 21.2708 15.5849 21.0604 17.7721 20.8647C19.3527 20.7179 20.6249 19.5093 20.8549 17.9386C21.0702 16.4265 21.2659 14.8754 21.2659 13.2851C21.2659 11.6948 21.0702 10.1387 20.8549 8.63161C20.6249 7.06088 19.3478 5.85225 17.7721 5.70546C15.5849 5.50973 13.3193 5.29932 10.9999 5.29932C8.68051 5.29932 6.41494 5.50973 4.22766 5.70546C2.64714 5.85225 1.3749 7.06088 1.14492 8.63161C0.929616 10.1436 0.733887 11.6948 0.733887 13.2851C0.733887 14.8754 0.929616 16.4314 1.14492 17.9386Z" fill="#769AA3" stroke="white" stroke-linecap="round" stroke-linejoin="round"/>
<path d="M21.2169 11.8416C21.1386 10.7651 21.0163 9.69344 20.8548 8.63161C20.6248 7.06088 19.3477 5.85225 17.772 5.70546L17.6448 5.69567C15.5016 5.49994 13.2752 5.29932 10.9998 5.29932C8.72444 5.29932 6.49802 5.49994 4.35478 5.69567L4.22756 5.70546C2.64704 5.85225 1.3748 7.06088 1.14481 8.63161C0.983338 9.69834 0.861007 10.77 0.782715 11.8416C1.33076 12.7615 2.30451 13.4025 3.41528 13.5053L3.78227 13.5395C6.11145 13.7499 8.52382 13.9652 10.9949 13.9652C13.466 13.9652 15.8784 13.7499 18.2075 13.5395L18.5794 13.5053C19.6755 13.4025 20.6542 12.786 21.2169 11.8416Z" stroke="white" stroke-linecap="round" stroke-linejoin="round"/>
<path d="M16.4951 5.55863C16.4951 4.97144 16.4559 4.39893 16.4021 3.83132C16.2455 2.25569 14.9341 0.993239 13.3585 0.851335C12.5756 0.777936 11.7927 0.73879 11.0097 0.729004C10.2121 0.729004 9.42922 0.78283 8.66098 0.851335C7.08046 0.993239 5.76908 2.2508 5.61739 3.83132C5.56356 4.39893 5.52441 4.97633 5.52441 5.55863" stroke="white" stroke-linecap="round" stroke-linejoin="round"/>
<path d="M11.1562 11.7729V16.3922" stroke="white" stroke-linecap="round" stroke-linejoin="round"/>
</g>
<defs>
<clipPath id="clip0_1075_5210">
<rect width="22" height="22" fill="white"/>
</clipPath>
</defs>
</svg>
