<svg width="22" height="22" viewBox="0 0 22 22" fill="none" xmlns="http://www.w3.org/2000/svg">
<g clip-path="url(#clip0_558_14718)">
<path d="M20.7395 20.7246H12.7627" stroke="white" stroke-linecap="round" stroke-linejoin="round"/>
<path d="M12.7627 12.7539H20.7395" stroke="white" stroke-linecap="round" stroke-linejoin="round"/>
<path d="M12.7627 16.8984H20.7395" stroke="white" stroke-linecap="round" stroke-linejoin="round"/>
<path d="M21.0589 6.69543C21.5375 7.65195 20.7398 8.76789 19.6231 8.76789H13.8798C12.763 8.92731 11.9653 7.81137 12.4439 6.69543C13.5607 4.62296 14.837 3.02876 16.7514 0.796875C18.6658 3.02876 19.9421 4.62296 21.0589 6.69543Z" stroke="white" stroke-linecap="round" stroke-linejoin="round"/>
<path d="M5.10532 21.2027C7.49836 21.2027 9.41279 19.2896 9.41279 16.8983C9.41279 14.507 7.65789 12.4346 5.10532 12.4346C2.71228 12.4346 0.797852 14.3476 0.797852 16.7389C0.797852 19.2896 2.71228 21.2027 5.10532 21.2027Z" stroke="white" stroke-linecap="round" stroke-linejoin="round"/>
<path d="M1.4359 7.17345C1.59544 7.97055 2.07405 8.60823 2.87173 8.60823C3.66941 8.76765 4.46709 8.76765 5.26476 8.76765C6.06244 8.76765 6.86012 8.60823 7.6578 8.60823C8.45548 8.44881 9.09363 7.97055 9.09363 7.17345C9.25316 6.37634 9.25316 5.57924 9.25316 4.78214C9.25316 3.98504 9.09363 3.18794 9.09363 2.39084C8.93409 1.75316 8.29595 1.11547 7.49827 1.11547C6.70059 0.956055 5.90291 0.956055 5.10523 0.956055C4.30755 0.956055 3.50987 1.11547 2.71219 1.11547C2.07405 1.11547 1.4359 1.75316 1.4359 2.55026C1.27637 3.34736 1.27637 4.14446 1.27637 4.94156C1.27637 5.73866 1.27637 6.37634 1.4359 7.17345Z" stroke="white"/>
</g>
<defs>
<clipPath id="clip0_558_14718">
<rect width="22" height="22" fill="white"/>
</clipPath>
</defs>
</svg>
