<svg width="22" height="22" viewBox="0 0 22 22" fill="none" xmlns="http://www.w3.org/2000/svg">
<path d="M0.879883 12.5327L9.82655 2.33665C10.4132 1.66439 11.4399 1.60036 12.1243 2.17659C12.1895 2.22461 12.2384 2.28863 12.2873 2.33665L21.234 12.5327" stroke="white" stroke-linecap="round" stroke-linejoin="round"/>
<path d="M4.00896 8.98003L9.82673 2.32139C10.4134 1.64912 11.4401 1.56909 12.1245 2.14532C12.1897 2.19334 12.2386 2.25737 12.3038 2.32139L18.1216 8.98003L18.4475 11.3009C18.7408 13.3978 18.7245 15.5266 18.3986 17.6235C18.2356 18.6799 17.3067 19.4642 16.2149 19.4642H5.91562C4.82377 19.4642 3.89488 18.6799 3.73192 17.6235C3.40599 15.5266 3.3897 13.3978 3.68303 11.3009L4.00896 8.98003Z" fill="#769AA3" stroke="white" stroke-linejoin="round"/>
<path d="M11.0652 11.9253C12.5645 11.9253 13.7867 13.1258 13.7867 14.5984V19.4643H8.34375V14.5984C8.34375 13.1258 9.56597 11.9253 11.0652 11.9253Z" stroke="white" stroke-linecap="round" stroke-linejoin="round"/>
</svg>
