<svg width="22" height="22" viewBox="0 0 22 22" fill="none" xmlns="http://www.w3.org/2000/svg">
<g clip-path="url(#clip0_558_14727)">
<path d="M1.49648 17.6877C1.71354 19.197 2.95458 20.3714 4.46931 20.5082C6.5786 20.6968 8.7634 20.8996 11.0001 20.8996C13.2368 20.8996 15.4216 20.6968 17.5309 20.5082C19.0551 20.3667 20.2819 19.2017 20.5037 17.6877C20.7113 16.2303 20.9001 14.7351 20.9001 13.2023C20.9001 11.6694 20.7113 10.1695 20.5037 8.71684C20.2819 7.20283 19.0503 6.03785 17.5309 5.89635C15.4216 5.70769 13.2368 5.50488 11.0001 5.50488C8.7634 5.50488 6.5786 5.70769 4.46931 5.89635C2.94514 6.03785 1.71826 7.20283 1.49648 8.71684C1.28885 10.1742 1.1001 11.6694 1.1001 13.2023C1.1001 14.7351 1.28885 16.235 1.49648 17.6877Z" stroke="white" stroke-linecap="round" stroke-linejoin="round"/>
<path d="M20.8526 11.8109C20.7771 10.7732 20.6591 9.74033 20.5034 8.71684C20.2816 7.20283 19.05 6.03785 17.5306 5.89635L17.4079 5.88692C15.3411 5.69826 13.194 5.50488 10.9998 5.50488C8.80555 5.50488 6.65851 5.69826 4.59168 5.88692L4.46899 5.89635C2.94483 6.03785 1.71794 7.20283 1.49616 8.71684C1.34044 9.74504 1.22247 10.778 1.14697 11.8109C1.67548 12.6976 2.61451 13.3155 3.68568 13.4145L4.03958 13.4475C6.28572 13.6503 8.61208 13.8579 10.9951 13.8579C13.378 13.8579 15.7044 13.6503 17.9505 13.4475L18.3092 13.4145C19.3662 13.3155 20.3099 12.7212 20.8526 11.8109Z" stroke="white" stroke-linecap="round" stroke-linejoin="round"/>
<path d="M16.2992 5.75483C16.2992 5.18884 16.2615 4.63701 16.2096 4.08989C16.0586 2.57117 14.7939 1.3543 13.2745 1.21752C12.5195 1.14677 11.7645 1.10904 11.0095 1.09961C10.2403 1.09961 9.48531 1.15149 8.74447 1.21752C7.2203 1.3543 5.95567 2.56645 5.80938 4.08989C5.75748 4.63701 5.71973 5.19356 5.71973 5.75483" stroke="white" stroke-linecap="round" stroke-linejoin="round"/>
<path d="M11.1514 11.7451V16.1975" stroke="white" stroke-linecap="round" stroke-linejoin="round"/>
</g>
<defs>
<clipPath id="clip0_558_14727">
<rect width="22" height="22" fill="white"/>
</clipPath>
</defs>
</svg>
