<svg width="25" height="25" viewBox="0 0 25 25" fill="none" xmlns="http://www.w3.org/2000/svg">
<g clip-path="url(#clip0_57_761)">
<path d="M23.5678 23.5508H14.5033" stroke="#545454" stroke-width="2" stroke-linecap="round" stroke-linejoin="round"/>
<path d="M14.5033 14.4927H23.5678" stroke="#545454" stroke-width="2" stroke-linecap="round" stroke-linejoin="round"/>
<path d="M14.5033 19.2031H23.5678" stroke="#545454" stroke-width="2" stroke-linecap="round" stroke-linejoin="round"/>
<path d="M23.9304 7.60866C24.4743 8.69562 23.5678 9.96373 22.2988 9.96373H15.7723C14.5033 10.1449 13.5968 8.87678 14.1407 7.60866C15.4097 5.25359 16.8601 3.44199 19.0355 0.905762C21.211 3.44199 22.6614 5.25359 23.9304 7.60866Z" fill="#769AA3" stroke="#545454" stroke-width="2" stroke-linecap="round" stroke-linejoin="round"/>
<path d="M5.80131 24.0941C8.52068 24.0941 10.6962 21.9202 10.6962 19.2028C10.6962 16.4854 8.70197 14.1304 5.80131 14.1304C3.08195 14.1304 0.906464 16.3043 0.906464 19.0217C0.906464 21.9202 3.08195 24.0941 5.80131 24.0941Z" fill="#769AA3" stroke="#545454" stroke-width="2" stroke-linecap="round" stroke-linejoin="round"/>
<path d="M1.63161 8.15213C1.8129 9.05793 2.35677 9.78257 3.26323 9.78257C4.16968 9.96373 5.07613 9.96373 5.98259 9.96373C6.88904 9.96373 7.7955 9.78257 8.70195 9.78257C9.6084 9.60141 10.3336 9.05793 10.3336 8.15213C10.5149 7.24633 10.5149 6.34054 10.5149 5.43474C10.5149 4.52894 10.3336 3.62315 10.3336 2.71735C10.1523 1.99271 9.42711 1.26807 8.52066 1.26807C7.6142 1.08691 6.70775 1.08691 5.8013 1.08691C4.89484 1.08691 3.98839 1.26807 3.08193 1.26807C2.35677 1.26807 1.63161 1.99271 1.63161 2.89851C1.45032 3.80431 1.45032 4.7101 1.45032 5.6159C1.45032 6.5217 1.45032 7.24633 1.63161 8.15213Z" fill="#769AA3" stroke="#545454" stroke-width="2"/>
</g>
<defs>
<clipPath id="clip0_57_761">
<rect width="25" height="25" fill="white"/>
</clipPath>
</defs>
</svg>
