<svg width="25" height="25" viewBox="0 0 25 25" fill="none" xmlns="http://www.w3.org/2000/svg">
<g clip-path="url(#clip0_243_2985)">
<path d="M23.5678 23.5508H14.5033" stroke="#545454" stroke-width="2" stroke-linecap="round" stroke-linejoin="round"/>
<path d="M14.5033 14.4932H23.5678" stroke="#545454" stroke-width="2" stroke-linecap="round" stroke-linejoin="round"/>
<path d="M14.5033 19.2031H23.5678" stroke="#545454" stroke-width="2" stroke-linecap="round" stroke-linejoin="round"/>
<path d="M23.9304 7.60915C24.4743 8.6961 23.5678 9.96422 22.2988 9.96422H15.7723C14.5033 10.1454 13.5968 8.87726 14.1407 7.60915C15.4097 5.25408 16.86 3.44248 19.0355 0.90625C21.211 3.44248 22.6613 5.25408 23.9304 7.60915Z" stroke="#545454" stroke-width="2" stroke-linecap="round" stroke-linejoin="round"/>
<path d="M5.80131 24.0946C8.52067 24.0946 10.6962 21.9207 10.6962 19.2033C10.6962 16.4859 8.70196 14.1309 5.80131 14.1309C3.08195 14.1309 0.906456 16.3048 0.906456 19.0222C0.906456 21.9207 3.08195 24.0946 5.80131 24.0946Z" stroke="#545454" stroke-width="2" stroke-linecap="round" stroke-linejoin="round"/>
<path d="M1.63162 8.15213C1.81291 9.05793 2.35678 9.78257 3.26323 9.78257C4.16969 9.96373 5.07614 9.96373 5.98259 9.96373C6.88905 9.96373 7.7955 9.78257 8.70196 9.78257C9.60841 9.60141 10.3336 9.05793 10.3336 8.15213C10.5149 7.24633 10.5149 6.34054 10.5149 5.43474C10.5149 4.52894 10.3336 3.62315 10.3336 2.71735C10.1523 1.99271 9.42712 1.26807 8.52067 1.26807C7.61421 1.08691 6.70776 1.08691 5.8013 1.08691C4.89485 1.08691 3.9884 1.26807 3.08194 1.26807C2.35678 1.26807 1.63162 1.99271 1.63162 2.89851C1.45032 3.80431 1.45033 4.7101 1.45033 5.6159C1.45033 6.5217 1.45032 7.24633 1.63162 8.15213Z" stroke="#545454" stroke-width="2"/>
</g>
<defs>
<clipPath id="clip0_243_2985">
<rect width="25" height="25" fill="white"/>
</clipPath>
</defs>
</svg>
