<svg width="25" height="25" viewBox="0 0 25 25" fill="none" xmlns="http://www.w3.org/2000/svg">
<g clip-path="url(#clip0_263_3232)">
<path d="M1 14.2415L11.1667 2.65509C11.8333 1.89115 13 1.81839 13.7778 2.4732C13.8519 2.52776 13.9074 2.60052 13.963 2.65509L24.1296 14.2415" stroke="#545454" stroke-width="2" stroke-linecap="round" stroke-linejoin="round"/>
<path d="M4.55558 10.2043L11.1667 2.63766C11.8334 1.87372 13 1.78277 13.7778 2.43758C13.8519 2.49214 13.9074 2.5649 13.9815 2.63766L20.5926 10.2043L20.963 12.8417C21.2963 15.2245 21.2778 17.6436 20.9074 20.0264C20.7222 21.2268 19.6667 22.1181 18.4259 22.1181H6.72224C5.4815 22.1181 4.42595 21.2268 4.24076 20.0264C3.87039 17.6436 3.85187 15.2245 4.18521 12.8417L4.55558 10.2043Z" fill="#769AA3" stroke="#545454" stroke-width="2" stroke-linejoin="round"/>
<path d="M12.574 13.5513C14.2777 13.5513 15.6666 14.9154 15.6666 16.5888V22.1183H9.48145V16.5888C9.48145 14.9154 10.8703 13.5513 12.574 13.5513Z" stroke="#545454" stroke-width="2" stroke-linecap="round" stroke-linejoin="round"/>
</g>
<defs>
<clipPath id="clip0_263_3232">
<rect width="25" height="25" fill="white"/>
</clipPath>
</defs>
</svg>
