<svg width="25" height="25" viewBox="0 0 25 25" fill="none" xmlns="http://www.w3.org/2000/svg">
<g clip-path="url(#clip0_263_3269)">
<path d="M1.30119 20.3847C1.55697 22.1641 3.01938 23.5487 4.8043 23.7099C7.28984 23.9323 9.86436 24.1714 12.5 24.1714C15.1357 24.1714 17.7102 23.9323 20.1958 23.7099C21.9918 23.5431 23.4375 22.1697 23.6989 20.3847C23.9435 18.6665 24.166 16.9039 24.166 15.0967C24.166 13.2895 23.9435 11.5213 23.6989 9.80867C23.4375 8.02375 21.9862 6.65031 20.1958 6.48349C17.7102 6.26107 15.1357 6.02197 12.5 6.02197C9.86436 6.02197 7.28984 6.26107 4.8043 6.48349C3.00826 6.65031 1.56253 8.02375 1.30119 9.80867C1.05653 11.5269 0.834106 13.2895 0.834106 15.0967C0.834106 16.9039 1.05653 18.6721 1.30119 20.3847Z" fill="#769AA3" stroke="#545454" stroke-width="2" stroke-linecap="round" stroke-linejoin="round"/>
<path d="M24.1104 13.4564C24.0214 12.233 23.8824 11.0153 23.6989 9.80867C23.4376 8.02375 21.9863 6.65031 20.1958 6.48349L20.0512 6.47237C17.6158 6.24995 15.0857 6.02197 12.5001 6.02197C9.91446 6.02197 7.38443 6.24995 4.94893 6.47237L4.80436 6.48349C3.00832 6.65031 1.56259 8.02375 1.30125 9.80867C1.11775 11.0209 0.978738 12.2386 0.889771 13.4564C1.51255 14.5017 2.61909 15.2302 3.88132 15.3469L4.29836 15.3859C6.94515 15.625 9.68648 15.8696 12.4945 15.8696C15.3026 15.8696 18.0439 15.625 20.6907 15.3859L21.1133 15.3469C22.3589 15.2302 23.471 14.5295 24.1104 13.4564Z" stroke="#545454" stroke-width="2" stroke-linecap="round" stroke-linejoin="round"/>
<path d="M18.7445 6.31682C18.7445 5.64957 18.7 4.99899 18.6388 4.35397C18.4609 2.56349 16.9707 1.12888 15.1802 0.967626C14.2905 0.884218 13.4008 0.839734 12.5112 0.828613C11.6048 0.828613 10.7151 0.889779 9.84211 0.967626C8.04607 1.12888 6.55586 2.55793 6.38348 4.35397C6.32232 4.99899 6.27783 5.65513 6.27783 6.31682" stroke="#545454" stroke-width="2" stroke-linecap="round" stroke-linejoin="round"/>
<path d="M12.678 13.3784V18.6275" stroke="#545454" stroke-width="2" stroke-linecap="round" stroke-linejoin="round"/>
</g>
<defs>
<clipPath id="clip0_263_3269">
<rect width="25" height="25" fill="white"/>
</clipPath>
</defs>
</svg>
