<svg width="25" height="25" viewBox="0 0 25 25" fill="none" xmlns="http://www.w3.org/2000/svg">
<g clip-path="url(#clip0_57_768)">
<path d="M1.30113 20.3847C1.55691 22.1641 3.01932 23.5487 4.80424 23.7099C7.28978 23.9323 9.86429 24.1714 12.5 24.1714C15.1356 24.1714 17.7102 23.9323 20.1957 23.7099C21.9917 23.5431 23.4375 22.1697 23.6988 20.3847C23.9435 18.6665 24.1659 16.9039 24.1659 15.0967C24.1659 13.2895 23.9435 11.5213 23.6988 9.80867C23.4375 8.02375 21.9862 6.65031 20.1957 6.48349C17.7102 6.26107 15.1356 6.02197 12.5 6.02197C9.86429 6.02197 7.28978 6.26107 4.80424 6.48349C3.0082 6.65031 1.56247 8.02375 1.30113 9.80867C1.05647 11.5269 0.834045 13.2895 0.834045 15.0967C0.834045 16.9039 1.05647 18.6721 1.30113 20.3847Z" stroke="#545454" stroke-width="2" stroke-linecap="round" stroke-linejoin="round"/>
<path d="M24.1103 13.4564C24.0213 12.233 23.8823 11.0153 23.6988 9.80867C23.4375 8.02375 21.9862 6.65031 20.1957 6.48349L20.0511 6.47237C17.6156 6.24995 15.0856 6.02197 12.5 6.02197C9.91434 6.02197 7.38431 6.24995 4.94881 6.47237L4.80424 6.48349C3.0082 6.65031 1.56247 8.02375 1.30113 9.80867C1.11763 11.0209 0.978616 12.2386 0.889648 13.4564C1.51242 14.5017 2.61896 15.2302 3.8812 15.3469L4.29823 15.3859C6.94503 15.625 9.68636 15.8696 12.4944 15.8696C15.3025 15.8696 18.0438 15.625 20.6906 15.3859L21.1132 15.3469C22.3587 15.2302 23.4708 14.5295 24.1103 13.4564Z" stroke="#545454" stroke-width="2" stroke-linecap="round" stroke-linejoin="round"/>
<path d="M18.7444 6.31682C18.7444 5.64957 18.6999 4.99899 18.6388 4.35397C18.4608 2.56349 16.9706 1.12888 15.1801 0.967626C14.2904 0.884218 13.4008 0.839734 12.5111 0.828613C11.6047 0.828613 10.715 0.889779 9.84205 0.967626C8.04601 1.12888 6.5558 2.55793 6.38342 4.35397C6.32225 4.99899 6.27777 5.65513 6.27777 6.31682" stroke="#545454" stroke-width="2" stroke-linecap="round" stroke-linejoin="round"/>
<path d="M12.6779 13.3784V18.6275" stroke="#545454" stroke-width="2" stroke-linecap="round" stroke-linejoin="round"/>
</g>
<defs>
<clipPath id="clip0_57_768">
<rect width="25" height="25" fill="white"/>
</clipPath>
</defs>
</svg>
