<?xml version="1.0" standalone="no"?>
<!DOCTYPE svg PUBLIC "-//W3C//DTD SVG 20010904//EN"
 "http://www.w3.org/TR/2001/REC-SVG-20010904/DTD/svg10.dtd">
<svg version="1.0" xmlns="http://www.w3.org/2000/svg"
 width="96.000000pt" height="96.000000pt" viewBox="0 0 96.000000 96.000000"
 preserveAspectRatio="xMidYMid meet">

<g transform="translate(0.000000,96.000000) scale(0.100000,-0.100000)"
fill="#000000" stroke="none">
<path d="M405 916 c-13 -13 -27 -37 -31 -53 -4 -15 -17 -48 -30 -73 -17 -32
-24 -61 -24 -102 0 -31 -5 -60 -11 -63 -22 -14 -31 -63 -30 -151 l2 -91 -69
-31 c-38 -18 -76 -40 -85 -50 -19 -21 -31 -83 -22 -112 10 -30 79 -77 126 -85
32 -6 43 -14 62 -46 26 -45 49 -49 135 -24 47 14 57 14 104 0 59 -17 118 -20
118 -5 0 27 44 69 79 75 45 8 97 40 118 71 11 18 13 36 9 69 -8 51 -33 74
-124 115 l-53 24 2 90 c1 93 -8 132 -34 154 -10 9 -13 25 -9 57 3 35 -1 56
-21 97 -14 29 -29 63 -32 76 -4 12 -18 36 -32 52 -21 26 -32 30 -74 30 -39 0
-55 -5 -74 -24z m145 -28 c39 -64 20 -77 -31 -23 l-33 35 -26 -24 c-14 -13
-35 -29 -47 -35 -20 -10 -23 -9 -23 7 0 11 9 31 21 46 17 22 28 26 70 26 45 0
51 -3 69 -32z m-16 -116 c-8 -20 -20 -42 -26 -49 -18 -22 -50 -11 -70 23 -29
50 -27 69 12 97 l35 24 32 -30 c31 -29 32 -31 17 -65z m-118 -26 c17 -35 13
-41 -37 -66 l-39 -20 0 40 c0 23 10 60 21 83 22 42 22 42 32 17 6 -14 16 -38
23 -54z m202 -33 c5 -50 -5 -54 -55 -23 -38 23 -37 20 -19 62 8 18 17 42 21
52 5 18 8 16 27 -15 11 -19 23 -53 26 -76z m-79 -32 c24 -13 24 -14 6 -27 -22
-17 -98 -18 -126 -3 -19 10 -19 12 -4 29 19 21 86 21 124 1z m-129 -46 c33
-19 92 -19 137 0 50 21 59 19 86 -17 41 -55 43 -75 8 -93 -28 -14 -31 -14 -31
0 0 8 -4 15 -9 15 -5 0 -11 -28 -15 -62 -3 -35 -8 -81 -12 -103 -5 -34 -1 -46
26 -84 24 -32 29 -46 20 -55 -15 -15 -265 -15 -280 0 -9 9 -4 23 20 55 27 38
31 50 26 84 -4 22 -9 68 -12 103 -4 34 -10 62 -15 62 -5 0 -9 -7 -9 -15 0 -14
-3 -14 -31 0 -35 18 -33 38 8 93 26 35 45 39 83 17z m-76 -138 c27 -20 18
-118 -14 -152 -25 -27 -98 -55 -142 -55 -42 0 -27 14 52 51 l70 32 0 68 c0 72
4 78 34 56z m326 -56 l0 -68 70 -32 c38 -18 72 -37 75 -42 11 -17 -65 -9 -109
12 -63 29 -79 51 -84 116 -4 46 -2 59 14 70 30 22 34 16 34 -56z m-321 -146
c-24 -33 -38 -44 -51 -40 -63 18 -63 16 -7 44 37 18 59 36 69 58 14 30 15 30
18 7 2 -15 -9 -41 -29 -69z m340 4 c58 -28 58 -26 -7 -44 -24 -7 -82 72 -82
112 l0 28 18 -35 c12 -24 33 -42 71 -61z m-367 -101 l121 -73 -89 -3 c-101 -4
-150 7 -194 44 -48 41 -38 104 17 104 13 0 78 -33 145 -72z m517 58 c21 -25 8
-67 -29 -98 -29 -22 -52 -30 -117 -38 -45 -6 -130 -26 -190 -45 -133 -43 -166
-44 -181 -10 -7 14 -12 28 -12 30 0 3 42 5 93 5 l93 0 139 84 c139 84 182 99
204 72z m-374 -54 c57 -2 118 1 140 7 21 6 40 9 42 7 2 -2 -32 -25 -77 -51
l-80 -47 -80 47 c-73 43 -105 68 -62 50 9 -5 62 -10 117 -13z m205 -107 c0 -2
-5 -16 -12 -31 -11 -24 -16 -26 -60 -22 -81 8 -79 23 4 44 63 15 68 15 68 9z"/>
</g>
</svg>
