<svg width="49" height="56" viewBox="0 0 49 56" fill="none" xmlns="http://www.w3.org/2000/svg">
<path opacity="0.3" d="M14.727 0.0134142C16.1805 -0.0905201 17.5861 0.415289 18.8202 1.32991C20.788 2.79885 22.7009 4.34401 24.6893 5.79216C25.1281 6.11089 25.752 6.31875 26.3074 6.33954C28.9128 6.42962 31.5182 6.36034 34.1168 6.47813C37.3324 6.61671 39.7185 8.79239 40.1504 11.9173C40.4864 14.3078 40.6989 16.7122 41.0349 19.0957C41.1103 19.5946 41.3777 20.1559 41.7411 20.5162C43.4209 22.2068 45.1967 23.8074 46.8765 25.4981C49.4888 28.1242 49.7082 31.0828 47.4387 34.0415C45.9646 35.9678 44.3328 37.7831 42.8175 39.6817C42.5158 40.0628 42.3102 40.6032 42.2965 41.0813C42.2347 43.5272 42.2827 45.9732 42.2279 48.4191C42.1662 51.7242 39.6499 54.2533 36.1806 54.6066C33.6094 54.8699 31.0383 55.1471 28.4671 55.4658C28.0763 55.5143 27.6581 55.7707 27.3633 56.0409C25.5463 57.6969 23.7911 59.4084 21.9399 61.0367C19.1699 63.4757 15.872 63.6558 12.8552 61.5009C10.8531 60.0736 8.96762 58.5007 6.99298 57.0456C6.60217 56.7546 6.02625 56.5606 5.52573 56.5467C2.86546 56.4636 0.205175 56.4913 -2.4551 56.3874C-5.69816 56.2627 -8.21444 53.8722 -8.57097 50.6433C-8.83151 48.2805 -9.00293 45.9108 -9.2909 43.548C-9.35261 43.0491 -9.64057 42.4948 -9.99711 42.1207C-11.5741 40.4716 -13.2402 38.8918 -14.8171 37.2496C-17.6282 34.3187 -17.7242 31.3461 -15.1051 28.2004C-13.6515 26.4474 -12.0951 24.7706 -10.6484 23.0106C-10.3193 22.6157 -10.0931 22.0406 -10.0657 21.5347C-9.94909 19.1235 -9.94225 16.7122 -9.84626 14.3009C-9.70914 10.9819 -7.31626 8.5776 -3.82637 8.21037C-1.41978 7.954 1.00738 7.77384 3.40711 7.46896C3.95562 7.39967 4.55898 7.10173 4.97037 6.7345C6.80787 5.09926 8.56995 3.38088 10.38 1.71794C11.5525 0.643948 12.9375 0.0341996 14.7133 0.0064838L14.727 0.0134142Z" fill="#18202F"/>
</svg>
