<svg width="46" height="46" viewBox="0 0 46 46" fill="none" xmlns="http://www.w3.org/2000/svg">
<path d="M14.337 20.7852C15.1974 20.1557 15.9937 19.7868 16.9715 20.0254C18.9492 20.5062 19.8519 22.839 18.4759 24.3312C16.3679 26.6218 14.1095 28.7729 11.9025 30.9717C11.4842 31.3883 11.0237 31.3406 10.6109 30.9276C8.45158 28.7674 6.27022 26.6291 4.14758 24.4322C3.20459 23.4557 3.24495 21.9213 4.10538 20.9155C4.97315 19.9006 6.41149 19.6748 7.59114 20.3539C7.76543 20.4548 7.87918 20.6861 8.23509 20.6053C8.23509 19.7244 8.22225 18.8213 8.2406 17.9202C8.2516 17.4154 7.82047 17.3659 7.53244 17.1933C4.92729 15.6259 3.49629 12.6342 3.97329 9.71224C4.47047 6.66914 6.81327 4.20787 9.79084 3.59851C13.2931 2.88271 16.8431 4.81538 18.1567 8.15398C19.4501 11.4412 18.1989 15.268 15.1442 17.0942C14.4893 17.4852 14.2691 17.8871 14.3242 18.5956C14.3792 19.2802 14.337 19.974 14.337 20.7852ZM9.98164 19.9942C9.98164 20.91 9.97247 21.8259 9.98531 22.7418C9.99081 23.2043 9.88808 23.5842 9.42208 23.7861C8.93224 23.999 8.61119 23.7237 8.2993 23.4135C7.86633 22.9822 7.43153 22.5545 7.0059 22.1177C6.52707 21.6295 5.99136 21.4974 5.48868 22.0113C5.01902 22.4903 5.14561 23.0079 5.59692 23.4612C7.36549 25.2324 9.13955 26.9999 10.9008 28.7784C11.1613 29.0427 11.3319 29.1143 11.6328 28.8078C13.4087 26.9999 15.2084 25.2159 16.9935 23.4172C17.4522 22.9565 17.5091 22.4261 17.0302 21.9672C16.5881 21.5451 16.0836 21.6093 15.6451 22.0351C15.2066 22.4591 14.781 22.8959 14.3462 23.3272C14.0215 23.6503 13.7096 24.0192 13.1684 23.8026C12.6088 23.5805 12.5629 23.1088 12.5648 22.5949C12.5739 20.9761 12.6235 19.3554 12.5483 17.7403C12.5024 16.7675 12.8436 16.272 13.7353 15.8718C15.9515 14.8771 17.2467 12.3883 16.8761 10.0958C16.4633 7.53545 14.559 5.61011 12.0786 5.24303C9.69177 4.89064 7.25541 6.19744 6.19684 8.40176C4.81354 11.2815 6.05374 14.6642 9.03131 15.993C9.66609 16.2775 10.0312 16.5968 9.99448 17.3383C9.94862 18.223 9.98348 19.1095 9.98164 19.9942Z" fill="#61838C"/>
<path d="M27.772 34.7086C27.8912 32.3446 29.0892 30.1678 31.5311 28.7509C31.9971 28.4811 32.2044 28.2021 32.131 27.6882C32.109 27.5377 32.1274 27.3835 32.1274 27.2312C32.1255 26.6512 32.2595 26.0272 32.0888 25.5004C31.8742 24.8396 31.0981 25.2122 30.5955 24.9957C29.3259 24.4487 28.537 23.2116 28.671 21.7764C28.7865 20.5393 29.7901 19.2619 31.0193 19.2031C32.1274 19.1499 32.1402 18.6415 32.1457 17.7954C32.1641 15.4589 34.5105 14.0328 36.5341 15.0918C37.7431 15.725 38.2623 16.7822 38.1908 18.1129C38.1541 18.7865 38.2348 19.1205 39.064 19.1627C40.5207 19.2362 41.6563 20.6127 41.6728 22.0994C41.6912 23.6338 40.5391 24.9938 38.9393 25.1351C38.266 25.1939 38.1045 25.416 38.1999 25.9996C38.2091 26.0584 38.2091 26.1226 38.1999 26.1832C37.9853 27.6019 38.3981 28.5306 39.7006 29.4447C42.548 31.4416 43.3001 35.2868 41.7829 38.3867C40.2712 41.4702 36.8166 43.1349 33.529 42.3622C30.146 41.5675 27.7628 38.5795 27.772 34.7086ZM40.7867 35.1913C40.7904 32.9026 39.5282 30.9167 37.3817 30.0008C36.6717 29.698 36.4038 29.2776 36.435 28.5417C36.4717 27.6882 36.4442 26.8311 36.4442 25.9739C36.4442 23.665 36.4442 23.6613 38.7008 23.4062C39.453 23.3199 39.8749 22.907 39.8969 22.1545C39.919 21.3909 39.4658 20.9651 38.754 20.8421C38.3669 20.7761 37.9614 20.8054 37.5652 20.822C36.7854 20.8532 36.4479 20.4567 36.446 19.7134C36.4442 19.1022 36.4626 18.491 36.4387 17.8798C36.4038 17.0282 35.903 16.5051 35.1636 16.5033C34.4261 16.5014 33.8959 17.0282 33.8501 17.8633C33.8189 18.4414 33.8189 19.0251 33.8482 19.6051C33.8923 20.4494 33.551 20.8788 32.6741 20.8238C32.3402 20.8036 31.9989 20.7981 31.6669 20.8311C30.889 20.9082 30.4359 21.3542 30.3882 22.1324C30.346 22.8097 30.9147 23.353 31.6724 23.4099C32.0063 23.4356 32.3439 23.4264 32.6796 23.4209C33.4648 23.408 33.8684 23.7457 33.8501 24.5753C33.8244 25.7665 33.7767 26.9632 33.8629 28.1489C33.9381 29.1767 33.6006 29.7218 32.6319 30.1715C30.1075 31.3388 28.9333 34.2626 29.7882 36.8891C30.645 39.5192 33.3437 41.1912 36.0149 40.7507C38.7577 40.2919 40.7831 37.9352 40.7867 35.1913Z" fill="#61838C"/>
<path d="M21.9471 39.9196C19.1126 39.9196 16.2781 39.9232 13.4436 39.9177C11.3925 39.9141 10.4074 38.9358 10.3945 36.9003C10.3908 36.2286 10.3853 35.5568 10.3982 34.8851C10.4092 34.2849 10.6881 33.8426 11.3192 33.8683C11.8879 33.8921 12.1576 34.3069 12.1612 34.8741C12.1649 35.5458 12.1594 36.2176 12.1631 36.8893C12.1704 37.974 12.3796 38.198 13.4308 38.1998C16.2708 38.2053 19.1089 38.2016 22.0333 38.2016C21.8902 37.7409 21.5031 37.5299 21.2334 37.2417C20.8335 36.8141 20.6115 36.3589 21.0756 35.8817C21.5251 35.4192 22.0149 35.5476 22.4406 35.9698C23.2221 36.7425 23.9927 37.528 24.7742 38.3007C25.2805 38.8018 25.3062 39.2955 24.7907 39.8058C23.989 40.6023 23.1964 41.4062 22.391 42.201C21.9856 42.6011 21.5178 42.6782 21.094 42.2689C20.6592 41.8486 20.7527 41.3806 21.1618 40.9859C21.4646 40.6941 21.804 40.4372 22.125 40.1655C22.0681 40.0829 22.0076 40.0003 21.9471 39.9196Z" fill="#61838C"/>
<path d="M24.475 6.08041C27.304 6.08041 30.1348 6.07674 32.9638 6.08224C35.0681 6.08591 36.0147 7.04216 36.0184 9.16021C36.0202 9.80077 36.0092 10.4413 36.0202 11.0819C36.0312 11.6967 35.7616 12.1299 35.1415 12.1281C34.5012 12.1262 34.2829 11.6564 34.2902 11.058C34.2994 10.3257 34.2994 9.59337 34.2884 8.86104C34.2792 8.22232 33.9948 7.80018 33.305 7.79834C30.355 7.791 27.4031 7.79467 24.453 7.79467C24.3906 7.86992 24.3283 7.94701 24.2659 8.02226C24.6273 8.32327 25.0181 8.59674 25.3391 8.93629C25.7024 9.32173 25.7042 9.77874 25.3079 10.1532C24.9465 10.4964 24.5081 10.4927 24.1576 10.155C23.2568 9.28869 22.3707 8.40586 21.5085 7.50101C21.136 7.11007 21.2039 6.64938 21.5708 6.27312C22.4019 5.4215 23.2422 4.57905 24.0953 3.74945C24.475 3.37869 24.93 3.33832 25.3189 3.71457C25.7464 4.12937 25.6712 4.59924 25.2823 5.00853C24.9906 5.31321 24.6622 5.58301 24.3503 5.8675C24.3925 5.93908 24.4347 6.01066 24.475 6.08041Z" fill="#61838C"/>
<path d="M11.2404 13.8598C9.56539 13.8433 8.2353 12.4906 8.24814 10.8186C8.26098 9.15937 9.62777 7.79383 11.2789 7.79199C12.9576 7.79016 14.3757 9.23646 14.328 10.9012C14.2785 12.5787 12.9246 13.8764 11.2404 13.8598ZM12.565 10.8057C12.5485 10.0881 11.9926 9.55581 11.2642 9.56316C10.5469 9.5705 9.98919 10.1248 9.98552 10.8333C9.98185 11.5582 10.6276 12.1841 11.3376 12.1474C12.0256 12.1107 12.5833 11.5013 12.565 10.8057Z" fill="#61838C"/>
<path d="M32.1348 35.1459C32.1384 33.461 33.4612 32.1395 35.1472 32.1377C36.8277 32.1359 38.1798 33.461 38.2 35.1276C38.2202 36.8051 36.7965 38.2257 35.1197 38.2055C33.4557 38.1835 32.1311 36.8253 32.1348 35.1459ZM35.1472 36.4362C35.8719 36.4399 36.4223 35.9021 36.4333 35.1808C36.4443 34.4815 35.8847 33.8777 35.1986 33.8483C34.4941 33.8189 33.8336 34.465 33.8428 35.1716C33.8556 35.8599 34.4445 36.4325 35.1472 36.4362Z" fill="#61838C"/>
</svg>
