<svg width="24" height="25" viewBox="0 0 24 25" fill="none" xmlns="http://www.w3.org/2000/svg">
<path d="M9.79069 5.35962C8.51468 5.41829 7.26801 5.55029 6.05068 5.69695C4.64267 5.85829 3.528 6.98762 3.352 8.39563C3.176 9.97963 3 11.6076 3 13.2796C3 14.9517 3.176 16.5943 3.352 18.1783C3.51333 19.5863 4.64267 20.7157 6.03601 20.877C7.62001 21.053 9.26269 21.2437 10.9494 21.2437C12.636 21.2437 14.2787 21.0677 15.8627 20.877C17.2707 20.7157 18.3854 19.601 18.5467 18.1783C18.6787 17.0197 18.7961 15.861 18.8547 14.6876" stroke="#5A7681" stroke-linecap="round"/>
<path d="M16.7134 3.7316L11.3161 9.86228L10.568 13.353C10.4507 13.9103 11.0374 14.4383 11.5801 14.277L15.0414 13.1916L20.6294 7.31027C21.5534 6.34227 21.3921 4.6996 20.2774 3.71693C19.1774 2.74893 17.5934 2.76359 16.7134 3.74626V3.7316Z" stroke="#5A7681" stroke-linecap="round" stroke-linejoin="round"/>
</svg>
