<svg width="24" height="24" viewBox="0 0 24 24" fill="none" xmlns="http://www.w3.org/2000/svg">
<g clip-path="url(#clip0_324_2884)">
<path d="M23.9359 14.6324C23.8584 14.498 23.7203 14.4096 23.5658 14.3954C23.4653 14.3861 21.3542 14.2039 18.9106 14.925C20.1447 11.7936 19.8899 8.80481 19.8764 8.65856C19.8621 8.50406 19.7738 8.36602 19.6393 8.28844C19.5049 8.21086 19.3413 8.20331 19.2003 8.26828C19.0889 8.31956 16.7148 9.43083 14.6885 11.7244C14.1123 8.49525 12.4742 6.14494 12.3903 6.02625C12.3007 5.89955 12.1551 5.82422 11.9999 5.82422C11.8446 5.82422 11.6991 5.89955 11.6095 6.02625C11.5256 6.14489 9.8876 8.4952 9.31123 11.7244C7.28501 9.43078 4.91088 8.31956 4.79951 8.26828C4.6586 8.20336 4.49482 8.21086 4.36043 8.28844C4.22604 8.36602 4.13763 8.50406 4.12338 8.65856C4.10984 8.80486 3.85502 11.7937 5.0892 14.9251C2.64551 14.2041 0.534353 14.3861 0.434041 14.3954C0.279541 14.4096 0.141494 14.498 0.0639156 14.6324C-0.0136625 14.7668 -0.0212094 14.9305 0.0437593 15.0715C0.108634 15.2124 1.67117 18.5445 4.94679 20.4356C7.36929 21.8343 10.0056 22.0274 11.2771 22.0274C11.6454 22.0274 11.8991 22.0111 11.9999 22.0034C12.1008 22.0112 12.3543 22.0274 12.7227 22.0274C13.9944 22.0274 16.6307 21.8341 19.0531 20.4356C22.3287 18.5445 23.8912 15.2124 23.9561 15.0715C24.0211 14.9306 24.0135 14.7668 23.9359 14.6324ZM5.42501 19.6076C3.25474 18.3546 1.87324 16.3536 1.26762 15.3264C2.2031 15.3338 3.89632 15.4556 5.63407 16.117C5.70513 16.2524 5.77896 16.3875 5.85663 16.5219C7.09535 18.6675 8.89179 20.1494 10.1861 21.0176C8.89385 20.906 7.08542 20.5663 5.42501 19.6076ZM6.68473 16.0439C5.25148 13.5614 5.05596 10.7835 5.05301 9.48717C5.99084 10.0311 7.75765 11.2088 9.14614 13.0286C9.12462 13.3182 9.11271 13.6125 9.11271 13.9112C9.11271 16.4924 9.97371 18.7609 10.6852 20.1951C9.48012 19.3794 7.81437 18.0005 6.68473 16.0439ZM12 20.6151C11.3385 19.4677 10.0689 16.8788 10.0689 13.9112C10.0689 10.9437 11.3386 8.35472 12 7.20741C12.6616 8.35486 13.9311 10.9438 13.9311 13.9113C13.9311 16.8788 12.6614 19.4678 12 20.6151ZM14.8873 13.9112C14.8873 13.6125 14.8754 13.3181 14.8539 13.0286C16.2429 11.2083 18.0104 10.0302 18.948 9.48666C18.9462 10.781 18.7526 13.5546 17.3154 16.0438C16.189 17.9948 14.5224 19.3748 13.3162 20.1921C14.0275 18.7578 14.8873 16.4907 14.8873 13.9112ZM18.575 19.6076C16.9146 20.5662 15.1062 20.9059 13.814 21.0176C15.1083 20.1494 16.9047 18.6675 18.1434 16.522C18.221 16.3875 18.2949 16.2524 18.366 16.1169C20.0985 15.4576 21.7947 15.3355 22.7319 15.3273C22.1259 16.3549 20.7446 18.355 18.575 19.6076Z" fill="#5A7681"/>
<path d="M8.12748 6.08423C7.34982 6.08423 6.7171 6.71695 6.7171 7.4946C6.7171 8.27226 7.34982 8.90498 8.12748 8.90498C8.90513 8.90498 9.53785 8.27226 9.53785 7.4946C9.53785 6.71695 8.90513 6.08423 8.12748 6.08423ZM8.12748 7.94878C7.87707 7.94878 7.67331 7.74501 7.67331 7.4946C7.67331 7.2442 7.87707 7.04043 8.12748 7.04043C8.37788 7.04043 8.58165 7.2442 8.58165 7.4946C8.58165 7.74501 8.37793 7.94878 8.12748 7.94878Z" fill="#5A7681"/>
<path d="M15.8725 6.08423C15.0948 6.08423 14.4621 6.71695 14.4621 7.4946C14.4621 8.27226 15.0948 8.90498 15.8725 8.90498C16.6501 8.90498 17.2828 8.27226 17.2828 7.4946C17.2828 6.71695 16.6501 6.08423 15.8725 6.08423ZM15.8725 7.94878C15.6221 7.94878 15.4183 7.74501 15.4183 7.4946C15.4183 7.2442 15.6221 7.04043 15.8725 7.04043C16.1229 7.04043 16.3266 7.2442 16.3266 7.4946C16.3266 7.74501 16.1229 7.94878 15.8725 7.94878Z" fill="#5A7681"/>
<path d="M12 1.97266C11.2223 1.97266 10.5896 2.60537 10.5896 3.38303C10.5896 4.16069 11.2223 4.79341 12 4.79341C12.7776 4.79341 13.4103 4.16069 13.4103 3.38303C13.4103 2.60537 12.7776 1.97266 12 1.97266ZM12 3.8372C11.7496 3.8372 11.5458 3.63344 11.5458 3.38303C11.5458 3.13262 11.7496 2.92886 12 2.92886C12.2504 2.92886 12.4541 3.13262 12.4541 3.38303C12.4541 3.63344 12.2504 3.8372 12 3.8372Z" fill="#5A7681"/>
<path d="M12.4784 17.2733C12.2292 17.1861 11.9565 17.3173 11.8691 17.5665C11.8104 17.7342 11.7712 17.8273 11.771 17.8277C11.6675 18.0706 11.7805 18.3514 12.0234 18.4549C12.0845 18.4809 12.1481 18.4932 12.2106 18.4932C12.3964 18.4932 12.5732 18.3842 12.6507 18.2024C12.6557 18.1905 12.7025 18.0799 12.7715 17.8826C12.8589 17.6334 12.7276 17.3606 12.4784 17.2733Z" fill="#5A7681"/>
<path d="M13.4122 13.6578C13.4037 13.3939 13.1822 13.1867 12.919 13.1953C12.6551 13.2038 12.448 13.4246 12.4565 13.6885C12.4828 14.5047 12.4107 15.344 12.2424 16.183C12.1904 16.4419 12.3581 16.6938 12.617 16.7458C12.6488 16.7522 12.6804 16.7552 12.7116 16.7552C12.9347 16.7552 13.1342 16.5983 13.1798 16.3711C13.3626 15.4601 13.4408 14.5473 13.4122 13.6578Z" fill="#5A7681"/>
</g>
<defs>
<clipPath id="clip0_324_2884">
<rect width="24" height="24" fill="white"/>
</clipPath>
</defs>
</svg>
