<svg width="210" height="256" viewBox="0 0 210 256" fill="none" xmlns="http://www.w3.org/2000/svg">
<g clip-path="url(#clip0_787_3992)">
<ellipse cx="89" cy="39.5" rx="53" ry="29.5" fill="#7B4F3A"/>
<ellipse cx="115" cy="118.5" rx="75" ry="41.5" fill="#7B4F3A"/>
<path d="M204.003 210.5C210 252 160.127 252 106.003 252C51.8791 252 4.5 263 8.00303 210.5C8.00303 187.58 51.8791 169 106.003 169C160.127 169 200.099 183.484 204.003 210.5Z" fill="#7B4F3A"/>
<path d="M72.6661 1.86652C56.3994 5.06652 47.0661 9.33319 38.3994 17.0665C24.5328 29.5999 24.6661 47.8665 38.5328 60.3999C43.9994 65.3332 58.7994 73.3332 62.3994 73.3332C65.9994 73.3332 63.5994 75.5999 56.5328 79.0665C41.4661 86.5332 29.9994 100.933 28.3994 114.667C26.5328 130.267 37.7328 147.067 57.0661 157.6L66.9328 163.067L55.7328 166.533C31.4661 174.4 11.7328 188.667 4.39944 203.733C-0.400563 213.867 -0.800563 229.467 3.73277 238.8C7.33277 246.267 13.7328 252.4 19.8661 254.533C26.1328 256.533 181.066 256.533 188.666 254.533C200.266 251.333 208.799 235.733 207.599 219.733C206.133 197.6 189.199 180.8 154.666 167.067C151.466 165.733 151.466 165.733 156.666 164C176.133 157.867 194.133 142.4 198.133 128.4C205.999 101.2 181.733 76.3999 138.266 67.3332L134.399 66.5332L139.466 62.5332C149.866 54.2665 153.866 44.1332 151.466 31.4665C149.466 20.9332 132.666 7.99986 115.066 3.46652C103.199 0.399855 83.8661 -0.266817 72.6661 1.86652ZM113.999 15.1999C125.599 18.7999 134.933 25.1999 138.266 31.9999C142.133 39.8665 141.066 44.3999 133.866 51.4665C122.533 62.3999 95.7328 68.1332 73.9994 64.1332C62.9328 62.1332 46.9328 53.8665 43.0661 48.1332C37.7328 40.2665 39.5994 30.3999 47.5994 24.5332C55.1994 18.9332 61.0661 16.5332 76.6661 12.7999C81.8661 11.4665 107.466 13.1999 113.999 15.1999ZM139.333 79.8665C175.199 87.1999 195.066 108.533 185.199 128.933C180.133 139.467 166.533 148.667 146.666 154.933C137.866 157.6 133.999 158 114.666 158C89.9994 158 82.1328 156.533 65.9994 148.8C30.5328 131.867 31.7328 102.8 68.6661 85.9999C87.0661 77.5999 116.266 75.0665 139.333 79.8665ZM141.999 175.867C165.599 182.133 187.333 196.267 193.199 209.333C196.666 216.933 196.666 226.933 193.466 234.133C188.666 244.667 194.266 244 105.066 244C59.4661 244 24.1328 243.467 22.2661 242.8C14.9328 240 10.1328 224.933 13.1994 213.867C17.8661 196.4 42.9328 180 73.9994 173.867C88.6661 171.067 128.399 172.133 141.999 175.867Z" fill="#362E1C"/>
</g>
<defs>
<clipPath id="clip0_787_3992">
<rect width="209.333" height="256" fill="white"/>
</clipPath>
</defs>
</svg>
