<svg width="14" height="14" viewBox="0 0 14 14" fill="none" xmlns="http://www.w3.org/2000/svg">
<path d="M11.7702 2.9133C12.0957 3.06748 12.3864 3.28639 12.6247 3.55571C13.0159 3.99778 13.2503 4.55695 13.2867 5.1533L13.2917 5.31675V10.6334C13.2917 12.057 12.1725 13.2194 10.766 13.2884L10.6333 13.2917H2.65827C1.23463 13.2917 0.0723149 12.1725 0.00324524 10.766L0 10.6333V5.31668C0 4.6595 0.240225 4.03795 0.667009 3.55566C0.865514 3.33119 1.10056 3.14176 1.36174 2.99565L1.52149 2.91323L2.0904 4.11443C1.92778 4.19148 1.78203 4.30126 1.66243 4.43643C1.47542 4.64781 1.36054 4.91094 1.33476 5.19419L1.3292 5.31667V10.6333C1.3292 11.3341 1.87141 11.9081 2.55916 11.9589L2.65837 11.9625H10.6334C11.3342 11.9625 11.9082 11.4203 11.959 10.7326L11.9626 10.6333V5.31668C11.9626 4.98717 11.8431 4.67797 11.6294 4.43645C11.5337 4.32834 11.4212 4.23646 11.2969 4.16451L11.2014 4.11445L11.7702 2.9133ZM6.64575 5.36413e-05L6.65863 0.000146355L6.68497 0.00116623C6.69275 0.0016298 6.70063 0.00227881 6.70842 0.00302053L6.72326 0.00450398L6.74106 0.00691451C6.75432 0.00876884 6.76739 0.0110867 6.78046 0.0137754C6.7864 0.0149807 6.79233 0.0162787 6.79817 0.0175768L6.81922 0.0229542L6.83971 0.028888C6.84425 0.030186 6.8487 0.0316695 6.85315 0.0331529C6.86623 0.0373251 6.87939 0.0421464 6.89237 0.0473385C6.90415 0.052067 6.91564 0.0569808 6.92705 0.0622657C6.94077 0.0687558 6.9543 0.0757095 6.96756 0.0830339C6.97563 0.0874842 6.98379 0.0922127 6.99176 0.0970338C6.99519 0.099259 6.99862 0.101391 7.00205 0.103524L7.03682 0.127166C7.04229 0.131153 7.04767 0.135232 7.05304 0.139405C7.05842 0.143669 7.0599 0.144875 7.06139 0.14608L7.11572 0.194663L9.77407 2.85299C10.0336 3.11261 10.0336 3.53334 9.77407 3.79295C9.53449 4.03244 9.1575 4.05088 8.89679 3.84821L8.83412 3.79295L7.31034 2.26963V9.96882C7.31034 10.3359 7.01281 10.6334 6.64575 10.6334C6.30493 10.6334 6.024 10.3769 5.98562 10.0463L5.98117 9.96883V2.26893L4.45739 3.79289C4.19778 4.05241 3.77704 4.05241 3.51743 3.79289C3.27794 3.55331 3.2595 3.17632 3.46217 2.91562L3.51743 2.85294L6.17578 0.194611L6.23011 0.146028C6.23159 0.144822 6.23308 0.143617 6.23456 0.142412L6.17578 0.19461C6.20072 0.169762 6.22714 0.147233 6.25468 0.127112C6.26942 0.11645 6.28435 0.106437 6.29974 0.0970732C6.30771 0.0921593 6.31587 0.0874308 6.32403 0.0828877C6.33719 0.0756558 6.35073 0.0687022 6.36454 0.0622123C6.37586 0.0569274 6.38735 0.0520136 6.39894 0.0473779C6.41211 0.042093 6.42527 0.0372719 6.43853 0.0329142C6.4428 0.0316161 6.44725 0.0301327 6.45179 0.0288346L6.47247 0.022808C6.47933 0.0209537 6.48637 0.0191922 6.49333 0.0175231L6.51104 0.0137217C6.52411 0.011033 6.53718 0.00871506 6.55044 0.00686087C6.5561 0.00593373 6.56222 0.00519201 6.56824 0.00445033L6.58308 0.00296689C6.59087 0.00222517 6.59875 0.00157616 6.60653 0.00111259L6.63305 9.2714e-05C6.63722 0 6.64149 0 6.64575 0L6.64575 5.36413e-05Z" fill="white"/>
</svg>
