<svg width="24" height="24" viewBox="0 0 24 24" fill="none" xmlns="http://www.w3.org/2000/svg">
<path d="M21.8272 11.112C21.765 10.4595 21.651 9.82275 21.4185 9.20775C21.1845 8.58825 20.8642 7.99575 20.5207 7.4295C20.187 6.88125 19.8285 6.345 19.4287 5.841C19.032 5.343 18.6165 4.8615 18.1635 4.41225C17.9542 4.20825 17.7367 4.0125 17.5147 3.82275C17.2417 3.59175 16.968 3.357 16.6762 3.15C16.1902 2.805 15.6682 2.496 15.132 2.23425C14.8425 2.09325 14.5492 1.95825 14.25 1.842C13.9252 1.7145 13.5952 1.614 13.2585 1.52175C13.206 1.50675 13.152 1.5 13.0987 1.5C12.828 1.5 12.5745 1.6815 12.4995 1.953C12.4432 2.157 12.5092 2.3655 12.6412 2.51775C12.8062 2.92725 12.9765 3.33525 13.1437 3.74625C13.323 4.18725 13.4077 4.6515 13.482 5.12025C13.5405 5.59875 13.5765 6.0765 13.5915 6.55875C13.6087 7.09875 13.605 7.635 13.5532 8.172C13.5022 8.48325 13.4325 8.787 13.3342 9.0885C13.2352 9.39525 13.1167 9.69525 12.993 9.99375C12.8557 10.2983 12.7095 10.5938 12.546 10.8878C12.3885 11.1698 12.192 11.427 11.9962 11.6842C11.7232 12.033 11.4375 12.369 11.1562 12.7095C10.8577 13.0695 10.5292 13.3883 10.1707 13.6875C9.813 13.965 9.45225 14.2425 9.075 14.4938C8.66625 14.7653 8.2275 14.9925 7.782 15.198C7.22625 15.414 6.64275 15.528 6.07275 15.6982C5.775 15.7837 5.47875 15.861 5.175 15.9247C4.89675 15.9832 4.61775 16.0477 4.3365 16.092C4.06575 16.1182 3.7935 16.1355 3.52125 16.1453C3.201 16.1543 2.88675 16.1438 2.571 16.2C2.31 16.2473 2.12775 16.5323 2.12775 16.7828C2.12775 16.8548 2.14425 16.9253 2.16975 16.9928C2.16675 17.0017 2.16 17.0085 2.15775 17.0175C2.12925 17.124 2.12925 17.2327 2.15775 17.3392C2.187 17.4412 2.2395 17.5305 2.313 17.6055C2.49825 17.832 2.697 18.0487 2.88675 18.2708C3.075 18.4928 3.26775 18.708 3.47775 18.9097C3.924 19.3425 4.3815 19.7768 4.881 20.1473C5.121 20.325 5.3745 20.484 5.6295 20.6408C5.877 20.7915 6.1155 20.9595 6.363 21.1132C6.618 21.2715 6.8745 21.432 7.13625 21.579C7.4205 21.7388 7.73475 21.8617 8.0415 21.9713C8.3115 22.0672 8.58675 22.152 8.86275 22.2337C9.201 22.3358 9.5445 22.4145 9.8955 22.4528C10.4985 22.5195 11.1135 22.506 11.7165 22.4685C12.3622 22.4303 13.0072 22.356 13.6372 22.1993C13.929 22.1265 14.2222 22.0522 14.5102 21.9637C14.8275 21.8647 15.1342 21.7343 15.4395 21.6038C15.9742 21.3743 16.4902 21.0848 16.9927 20.793C17.544 20.4713 18.0225 20.0228 18.5025 19.6058C18.7275 19.4085 18.9562 19.2105 19.1617 18.9923C19.3987 18.7432 19.6185 18.4755 19.8225 18.198C20.0092 17.943 20.1885 17.682 20.3527 17.4127C20.505 17.163 20.6295 16.8997 20.7502 16.6335C21.0157 16.0402 21.2527 15.4312 21.4537 14.8155C21.6555 14.1945 21.7605 13.5487 21.8272 12.9008C21.8895 12.3053 21.8835 11.709 21.8272 11.112ZM20.5657 13.1857C20.4975 13.632 20.4075 14.0767 20.271 14.5057C20.1202 14.9805 19.9425 15.447 19.7542 15.909C19.6222 16.215 19.4842 16.5188 19.3132 16.806C19.119 17.1323 18.9075 17.4465 18.681 17.7518C18.4155 18.0772 18.1282 18.3727 17.814 18.651C17.4937 18.9338 17.1742 19.218 16.842 19.4872C16.5142 19.7205 16.1662 19.9185 15.81 20.1082C15.5032 20.274 15.1897 20.4338 14.8687 20.5725C14.4682 20.736 14.0602 20.862 13.6402 20.9692C13.2367 21.0742 12.8362 21.1673 12.4252 21.228C12.0217 21.2745 11.6175 21.3015 11.2117 21.3143C10.7895 21.3285 10.3672 21.33 9.948 21.2887C9.6165 21.228 9.2985 21.1425 8.976 21.0413C8.68125 20.9482 8.391 20.8515 8.10525 20.7352C7.6515 20.526 7.22775 20.2642 6.807 19.9935C6.3765 19.7175 5.9325 19.4565 5.5215 19.1512C5.103 18.8115 4.7085 18.4395 4.3215 18.0667C4.086 17.841 3.8685 17.5972 3.657 17.3483C3.9345 17.331 4.2135 17.3085 4.48725 17.268C4.7775 17.2253 5.064 17.1495 5.35125 17.0873C5.634 17.0265 5.916 16.9643 6.19575 16.8818C6.5055 16.791 6.81525 16.701 7.131 16.6268C7.41375 16.56 7.69425 16.4723 7.965 16.3688C8.27025 16.2533 8.565 16.1047 8.8515 15.951C9.14025 15.7965 9.42075 15.6352 9.693 15.4515C9.945 15.2812 10.188 15.096 10.4325 14.9137C10.6905 14.7195 10.95 14.523 11.1915 14.3048C11.436 14.0857 11.6655 13.8555 11.8807 13.605C12.069 13.3867 12.2527 13.1648 12.4365 12.9443C12.66 12.6765 12.8707 12.396 13.0785 12.1147C13.2532 11.8807 13.4167 11.6377 13.5615 11.3842C13.8907 10.8075 14.1495 10.1985 14.3827 9.57975C14.4862 9.30525 14.5785 9.021 14.6332 8.73375C14.7015 8.391 14.7367 8.0445 14.7622 7.6965C14.7847 7.38525 14.7817 7.0725 14.7787 6.75975C14.7757 6.456 14.7682 6.15075 14.7487 5.847C14.7075 5.208 14.6092 4.566 14.4772 3.93975C14.418 3.65925 14.304 3.396 14.2012 3.12975C14.8672 3.43125 15.5017 3.79125 16.095 4.21875C16.5427 4.57275 16.98 4.94025 17.3842 5.3445C17.7945 5.75775 18.1672 6.207 18.528 6.66525C19.1617 7.512 19.7122 8.4105 20.1547 9.37125C20.2417 9.58875 20.3182 9.8085 20.3895 10.032C20.4712 10.2908 20.5155 10.563 20.5575 10.8322C20.6032 11.22 20.64 11.6055 20.64 11.9963C20.6415 12.3953 20.6137 12.7905 20.5657 13.1857ZM19.6177 12.3998C19.6297 12.732 19.6357 13.0575 19.6072 13.3883C19.5817 13.7085 19.524 14.0392 19.452 14.3527C19.3822 14.6505 19.2877 14.94 19.1767 15.2242C19.0597 15.528 18.9307 15.8392 18.777 16.125C18.642 16.3755 18.4912 16.6155 18.3352 16.854C18.15 17.1398 17.9557 17.4172 17.7382 17.6798C17.3437 18.1537 16.8495 18.5497 16.353 18.9113C15.867 19.2652 15.3232 19.5082 14.7645 19.722C14.631 19.7738 14.4562 19.7355 14.3377 19.6672C14.2147 19.5945 14.1217 19.4745 14.0842 19.3372C14.0445 19.1947 14.0647 19.0395 14.139 18.9105C14.2177 18.7785 14.3302 18.7102 14.4697 18.657C14.5455 18.6278 14.6197 18.6007 14.6947 18.5715C15.0817 18.4005 15.4515 18.198 15.7957 17.9513C16.209 17.6182 16.5982 17.2643 16.9342 16.8533C17.3077 16.3335 17.6265 15.7657 17.8845 15.1793C17.9947 14.913 18.0975 14.6445 18.1807 14.3678C18.255 14.1187 18.2992 13.866 18.336 13.6102C18.3555 13.4205 18.375 13.2315 18.3735 13.0417C18.372 12.8272 18.3615 12.6135 18.3525 12.4005C18.339 12.0555 18.6517 11.766 18.9855 11.766C19.3387 11.7653 19.6057 12.054 19.6177 12.3998Z" fill="#5A7681"/>
</svg>
