<svg xmlns="http://www.w3.org/2000/svg" version="1.1" xmlns:xlink="http://www.w3.org/1999/xlink" xmlns:svgjs="http://svgjs.com/svgjs" width="512" height="512" x="0" y="0" viewBox="0 0 48 48" style="enable-background:new 0 0 512 512" xml:space="preserve" class=""><g><path d="M16 48h-2v-9h-3c-1.1 0-2.1-.4-2.8-1.2C7.4 37.1 7 36.1 7 35v-5H2c-.6 0-1-.4-1-1v-1c0-.2 0-.3.1-.5L7 16.7C7.1 7.5 14.7 0 24 0h6v2h-6C15.7 2 9 8.7 9 17c0 .2 0 .3-.1.5L3.1 28H8c.6 0 1 .4 1 1v6c0 .5.2 1 .6 1.4s.9.6 1.4.6h4c.6 0 1 .4 1 1zM34 37h2v11h-2z" fill="#000000" data-original="#000000" class=""></path><path d="M24 27c-5.5 0-10-4.5-10-10S18.5 7 24 7v2c-4.4 0-8 3.6-8 8s3.6 8 8 8zM27.28 12.306 39.297.286l1.414 1.415L28.694 13.72z" fill="#000000" data-original="#000000" class=""></path><path d="M41 7h-2V2h-5V0h6c.6 0 1 .4 1 1zM31 16h16v2H31z" fill="#000000" data-original="#000000" class=""></path><path d="m43.7 21.7-1.4-1.4 3.3-3.3-3.3-3.3 1.4-1.4 4 4c.4.4.4 1 0 1.4zM27.276 21.698l1.414-1.414 12.02 12.02-1.415 1.413z" fill="#000000" data-original="#000000" class=""></path><path d="M40 34h-6v-2h5v-5h2v6c0 .6-.4 1-1 1zM27 16h2v2h-2zM23 16h2v2h-2zM19 16h2v2h-2z" fill="#000000" data-original="#000000" class=""></path></g></svg>