<svg xmlns="http://www.w3.org/2000/svg" width="69.61" height="59.249" viewBox="0 0 69.61 59.249">
  <g id="Group_23" data-name="Group 23" transform="translate(-3095.015 -2145.355)" opacity="0.251">
    <g id="Shoorah_Shape_5" transform="translate(3094.429 2175.205)">
      <path id="Path_26" data-name="Path 26" d="M.586,14.845a3.529,3.529,0,0,1,1.162-2.427C4.115,10.185,6.463,7.937,8.86,5.74c1.366-1.253,2.818-2.423,4.253-3.6a3.708,3.708,0,0,1,5.125.086,131.3,131.3,0,0,1,10.926,10.87,3.359,3.359,0,0,1-.089,4.926A117.89,117.89,0,0,1,17.75,28.377a3.857,3.857,0,0,1-5.389-.152A121.426,121.426,0,0,1,1.482,17.271a3.486,3.486,0,0,1-.9-2.426" fill="#bdbdbd"/>
    </g>
    <g id="Shoorah_Shape_5_copy" data-name="Shoorah_Shape_5 copy" transform="translate(3134.429 2175.205)">
      <path id="Path_27" data-name="Path 27" d="M.586,14.845a3.529,3.529,0,0,1,1.162-2.427C4.115,10.185,6.463,7.937,8.86,5.74c1.366-1.253,2.818-2.423,4.253-3.6a3.708,3.708,0,0,1,5.125.086,131.3,131.3,0,0,1,10.926,10.87,3.359,3.359,0,0,1-.089,4.926A117.89,117.89,0,0,1,17.75,28.377a3.857,3.857,0,0,1-5.389-.152A121.426,121.426,0,0,1,1.482,17.271a3.486,3.486,0,0,1-.9-2.426" fill="#bdbdbd"/>
    </g>
    <g id="Shoorah_Shape_5_copy_2" data-name="Shoorah_Shape_5 copy 2" transform="translate(3114.429 2144.205)">
      <path id="Path_28" data-name="Path 28" d="M.586,14.845a3.529,3.529,0,0,1,1.162-2.427C4.115,10.185,6.463,7.937,8.86,5.74c1.366-1.253,2.818-2.423,4.253-3.6a3.708,3.708,0,0,1,5.125.086,131.3,131.3,0,0,1,10.926,10.87,3.359,3.359,0,0,1-.089,4.926A117.89,117.89,0,0,1,17.75,28.377a3.857,3.857,0,0,1-5.389-.152A121.426,121.426,0,0,1,1.482,17.271a3.486,3.486,0,0,1-.9-2.426" fill="#bdbdbd"/>
    </g>
  </g>
</svg>
