<svg width="19" height="4" viewBox="0 0 19 4" fill="none" xmlns="http://www.w3.org/2000/svg">
<path d="M18.4142 0.585785C17.6332 -0.195262 16.3668 -0.195262 15.5858 0.585785C14.8047 1.36683 14.8047 2.63317 15.5858 3.41421C16.3668 4.19526 17.6332 4.19526 18.4142 3.41421C19.1953 2.6332 19.1953 1.36686 18.4142 0.585785Z" fill="#B3B3BF"/>
<path d="M10.9142 0.585785C10.1332 -0.195262 8.86683 -0.195262 8.08579 0.585785C7.30474 1.36683 7.30474 2.63317 8.08579 3.41421C8.86683 4.19526 10.1332 4.19526 10.9142 3.41421C11.6953 2.6332 11.6953 1.36686 10.9142 0.585785Z" fill="#B3B3BF"/>
<path d="M3.41421 0.585785C2.63317 -0.195262 1.36683 -0.195262 0.585781 0.585785C-0.195267 1.36683 -0.195267 2.63317 0.585781 3.41421C1.36683 4.19526 2.63317 4.19526 3.41421 3.41421C4.19526 2.6332 4.19526 1.36686 3.41421 0.585785Z" fill="#B3B3BF"/>
</svg>
