<svg width="22" height="22" viewBox="0 0 22 22" fill="none" xmlns="http://www.w3.org/2000/svg">
<circle cx="11" cy="11" r="11" fill="#769AA3"/>
<path d="M7.0625 11.5625H10.4375V14.9375C10.4375 15.0867 10.4968 15.2298 10.6023 15.3352C10.7077 15.4407 10.8508 15.5 11 15.5C11.1492 15.5 11.2923 15.4407 11.3977 15.3352C11.5032 15.2298 11.5625 15.0867 11.5625 14.9375V11.5625H14.9375C15.0867 11.5625 15.2298 11.5032 15.3352 11.3977C15.4407 11.2923 15.5 11.1492 15.5 11C15.5 10.8508 15.4407 10.7077 15.3352 10.6023C15.2298 10.4968 15.0867 10.4375 14.9375 10.4375H11.5625V7.0625C11.5625 6.91332 11.5032 6.77024 11.3977 6.66475C11.2923 6.55926 11.1492 6.5 11 6.5C10.8508 6.5 10.7077 6.55926 10.6023 6.66475C10.4968 6.77024 10.4375 6.91332 10.4375 7.0625V10.4375H7.0625C6.91332 10.4375 6.77024 10.4968 6.66475 10.6023C6.55926 10.7077 6.5 10.8508 6.5 11C6.5 11.1492 6.55926 11.2923 6.66475 11.3977C6.77024 11.5032 6.91332 11.5625 7.0625 11.5625Z" fill="white"/>
</svg>
