<svg width="18" height="18" viewBox="0 0 18 18" fill="none" xmlns="http://www.w3.org/2000/svg">
<g clip-path="url(#clip0_375_5652)">
<path d="M9.5625 6.75C9.5625 6.43934 9.31065 6.1875 9 6.1875C8.68935 6.1875 8.4375 6.43934 8.4375 6.75V8.4375H6.75C6.43934 8.4375 6.1875 8.68935 6.1875 9C6.1875 9.31065 6.43934 9.5625 6.75 9.5625H8.4375V11.25C8.4375 11.5607 8.68935 11.8125 9 11.8125C9.31065 11.8125 9.5625 11.5607 9.5625 11.25V9.5625H11.25C11.5607 9.5625 11.8125 9.31065 11.8125 9C11.8125 8.68935 11.5607 8.4375 11.25 8.4375H9.5625V6.75Z" fill="black"/>
<path fill-rule="evenodd" clip-rule="evenodd" d="M9 0.9375C4.54721 0.9375 0.9375 4.54721 0.9375 9C0.9375 13.4528 4.54721 17.0625 9 17.0625C13.4528 17.0625 17.0625 13.4528 17.0625 9C17.0625 4.54721 13.4528 0.9375 9 0.9375ZM2.0625 9C2.0625 5.16853 5.16853 2.0625 9 2.0625C12.8315 2.0625 15.9375 5.16853 15.9375 9C15.9375 12.8315 12.8315 15.9375 9 15.9375C5.16853 15.9375 2.0625 12.8315 2.0625 9Z" fill="black"/>
</g>
<defs>
<clipPath id="clip0_375_5652">
<rect width="18" height="18" fill="white"/>
</clipPath>
</defs>
</svg>
