<svg width="56" height="56" viewBox="0 0 56 56" fill="none" xmlns="http://www.w3.org/2000/svg">
<circle cx="28" cy="28" r="28" fill="#769AA3"/>
<path d="M17.9774 29.4313H26.5683V38.0222C26.5683 38.4019 26.7191 38.7661 26.9876 39.0346C27.2561 39.3032 27.6203 39.454 28.0001 39.454C28.3798 39.454 28.744 39.3032 29.0125 39.0346C29.281 38.7661 29.4319 38.4019 29.4319 38.0222V29.4313H38.0228C38.4025 29.4313 38.7667 29.2804 39.0353 29.0119C39.3038 28.7434 39.4546 28.3792 39.4546 27.9995C39.4546 27.6197 39.3038 27.2555 39.0353 26.987C38.7667 26.7185 38.4025 26.5676 38.0228 26.5676H29.4319V17.9767C29.4319 17.597 29.281 17.2328 29.0125 16.9643C28.744 16.6958 28.3798 16.5449 28.0001 16.5449C27.6203 16.5449 27.2561 16.6958 26.9876 16.9643C26.7191 17.2328 26.5683 17.597 26.5683 17.9767V26.5676H17.9774C17.5976 26.5676 17.2334 26.7185 16.9649 26.987C16.6964 27.2555 16.5455 27.6197 16.5455 27.9995C16.5455 28.3792 16.6964 28.7434 16.9649 29.0119C17.2334 29.2804 17.5976 29.4313 17.9774 29.4313Z" fill="white"/>
</svg>
