<svg width="54" height="55" viewBox="0 0 54 55" fill="none" xmlns="http://www.w3.org/2000/svg">
<path d="M15.0355 23.9846C16.2238 23.1136 17.3235 22.6032 18.6739 22.9333C21.4053 23.5986 22.6519 26.8263 20.7516 28.8909C17.8403 32.0601 14.7213 35.0363 11.6732 38.0786C11.0955 38.6551 10.4596 38.589 9.88948 38.0177C6.90728 35.0287 3.89467 32.0703 0.963136 29.0305C-0.339204 27.6795 -0.283461 25.5566 0.90486 24.1649C2.10332 22.7606 4.08977 22.4483 5.71896 23.3879C5.95966 23.5275 6.11675 23.8475 6.6083 23.7358C6.6083 22.5168 6.59056 21.2674 6.6159 20.0206C6.6311 19.3222 6.03567 19.2536 5.63788 19.0149C2.03997 16.8462 0.0636601 12.7069 0.722431 8.66413C1.40907 4.45372 4.64465 1.04831 8.7569 0.205212C13.5938 -0.785174 18.4966 1.88887 20.3107 6.50813C22.097 11.0563 20.369 16.3511 16.1503 18.8778C15.2458 19.4187 14.9418 19.9749 15.0178 20.9551C15.0938 21.9023 15.0355 22.8622 15.0355 23.9846ZM9.02041 22.8901C9.02041 24.1573 9.00774 25.4245 9.02548 26.6917C9.03308 27.3316 8.89119 27.8573 8.24762 28.1367C7.57112 28.4312 7.12771 28.0503 6.69698 27.6211C6.09902 27.0244 5.49852 26.4327 4.9107 25.8283C4.24939 25.1528 3.50954 24.97 2.8153 25.681C2.16666 26.3438 2.34149 27.0599 2.96479 27.6872C5.40731 30.1377 7.85743 32.5832 10.2898 35.044C10.6496 35.4096 10.8852 35.5087 11.3008 35.0846C13.7534 32.5832 16.239 30.1149 18.7043 27.6262C19.3378 26.9888 19.4163 26.2549 18.755 25.6201C18.1444 25.036 17.4476 25.1249 16.8421 25.714C16.2365 26.3006 15.6487 26.905 15.0482 27.5018C14.5997 27.9487 14.169 28.4592 13.4215 28.1595C12.6487 27.8522 12.5854 27.1996 12.5879 26.4885C12.6006 24.2488 12.669 22.0064 12.5651 19.7717C12.5018 18.4258 12.973 17.7401 14.2044 17.1865C17.2652 15.8101 19.054 12.3667 18.5422 9.19488C17.9721 5.65234 15.3421 2.98845 11.9165 2.48056C8.62008 1.99299 5.25528 3.80108 3.79332 6.85096C1.88288 10.8354 3.59569 15.5156 7.70794 17.3541C8.58461 17.7478 9.08882 18.1896 9.03815 19.2156C8.9748 20.4396 9.02295 21.6661 9.02041 22.8901Z" fill="#87EBD1"/>
<path d="M33.59 43.2498C33.7547 39.9789 35.4093 36.9671 38.7817 35.0067C39.4252 34.6334 39.7115 34.2474 39.6102 33.5363C39.5798 33.3281 39.6051 33.1148 39.6051 32.904C39.6026 32.1016 39.7876 31.2381 39.5519 30.5093C39.2555 29.5951 38.1837 30.1106 37.4895 29.811C35.7361 29.0542 34.6466 27.3426 34.8316 25.3568C34.9912 23.6452 36.3771 21.8777 38.0747 21.7965C39.6051 21.7228 39.6229 21.0194 39.6305 19.8487C39.6558 16.616 42.8964 14.6428 45.6912 16.1081C47.3609 16.9842 48.0779 18.4469 47.9791 20.288C47.9284 21.22 48.0399 21.6822 49.1852 21.7406C51.197 21.8422 52.7653 23.7468 52.7881 25.8037C52.8135 27.9267 51.2223 29.8084 49.0129 30.004C48.083 30.0852 47.86 30.3925 47.9918 31.2C48.0045 31.2813 48.0045 31.3702 47.9918 31.454C47.6953 33.417 48.2654 34.702 50.0644 35.9666C53.9967 38.7295 55.0356 44.0497 52.9402 48.3388C50.8524 52.6051 46.0813 54.9084 41.5409 53.8393C36.8687 52.7397 33.5774 48.6055 33.59 43.2498ZM51.5644 43.9176C51.5694 40.7509 49.8262 38.0032 46.8617 36.7361C45.8812 36.317 45.5113 35.7355 45.5543 34.7172C45.605 33.5363 45.567 32.3504 45.567 31.1645C45.567 27.9699 45.567 27.9648 48.6835 27.6118C49.7223 27.4924 50.3051 26.9211 50.3355 25.8799C50.3659 24.8235 49.7401 24.2343 48.757 24.0642C48.2224 23.9728 47.6624 24.0134 47.1151 24.0363C46.0383 24.0794 45.5721 23.5309 45.5695 22.5024C45.567 21.6568 45.5923 20.8111 45.5594 19.9655C45.5113 18.7872 44.8196 18.0635 43.7985 18.0609C42.7799 18.0584 42.0476 18.7872 41.9843 19.9427C41.9412 20.7426 41.9412 21.5501 41.9818 22.3526C42.0426 23.5207 41.5713 24.115 40.3602 24.0388C39.899 24.0109 39.4278 24.0032 38.9692 24.0489C37.8949 24.1556 37.269 24.7727 37.2031 25.8494C37.1449 26.7865 37.9303 27.5382 38.9768 27.6169C39.4379 27.6524 39.9041 27.6397 40.3678 27.6321C41.4522 27.6143 42.0096 28.0816 41.9843 29.2294C41.9488 30.8775 41.883 32.5333 42.002 34.1737C42.1059 35.5958 41.6397 36.3501 40.3019 36.9722C36.8155 38.5873 35.1939 42.6327 36.3746 46.2666C37.5579 49.9057 41.285 52.2191 44.9741 51.6096C48.762 50.9748 51.5593 47.7141 51.5644 43.9176Z" fill="#87EBD1"/>
<path d="M25.5454 50.4585C21.6308 50.4585 17.7162 50.4636 13.8016 50.456C10.9688 50.4509 9.60822 49.0974 9.59049 46.2811C9.58542 45.3517 9.57782 44.4222 9.59555 43.4928C9.61076 42.6624 9.99588 42.0504 10.8675 42.0859C11.6529 42.119 12.0254 42.6929 12.0305 43.4776C12.0355 44.407 12.0279 45.3364 12.033 46.2659C12.0431 47.7667 12.332 48.0765 13.7838 48.0791C17.706 48.0867 21.6257 48.0816 25.6645 48.0816C25.4669 47.4442 24.9322 47.1522 24.5598 46.7535C24.0074 46.1618 23.7009 45.532 24.3419 44.8717C24.9627 44.2318 25.6392 44.4095 26.227 44.9936C27.3064 46.0627 28.3705 47.1496 29.4499 48.2187C30.1492 48.912 30.1847 49.5951 29.4727 50.3011C28.3655 51.4032 27.2709 52.5155 26.1586 53.6151C25.5986 54.1687 24.9525 54.2753 24.3672 53.709C23.7667 53.1275 23.896 52.4799 24.461 51.9339C24.879 51.5302 25.3478 51.1746 25.7912 50.7988C25.7126 50.6845 25.629 50.5703 25.5454 50.4585Z" fill="#87EBD1"/>
<path d="M29.0369 3.63926C32.9439 3.63926 36.8535 3.63418 40.7605 3.6418C43.6667 3.64688 44.9741 4.96993 44.9792 7.90046C44.9817 8.78673 44.9665 9.673 44.9817 10.5593C44.9969 11.41 44.6245 12.0093 43.7681 12.0068C42.8838 12.0042 42.5823 11.3541 42.5924 10.5263C42.6051 9.51301 42.6051 8.49977 42.5899 7.48653C42.5772 6.6028 42.1845 6.01873 41.2318 6.01619C37.1575 6.00603 33.0808 6.01111 29.0065 6.01111C28.9204 6.11523 28.8342 6.22188 28.7481 6.326C29.2472 6.74247 29.7869 7.12085 30.2303 7.59065C30.732 8.12393 30.7345 8.75626 30.1872 9.27431C29.6881 9.74918 29.0825 9.74411 28.5986 9.27685C27.3545 8.07822 26.1307 6.85675 24.9399 5.6048C24.4255 5.06389 24.5193 4.42649 25.026 3.9059C26.1738 2.7276 27.3343 1.56199 28.5124 0.414155C29.0369 -0.0988144 29.6653 -0.154682 30.2024 0.365905C30.7928 0.939822 30.6889 1.58992 30.1518 2.15622C29.7489 2.57777 29.2954 2.95107 28.8646 3.34468C28.9229 3.44372 28.9812 3.54276 29.0369 3.63926Z" fill="#87EBD1"/>
<path d="M10.7586 14.4028C8.44526 14.3799 6.60831 12.5083 6.62604 10.1949C6.64378 7.89922 8.53141 6.00987 10.8118 6.00733C13.1301 6.00479 15.0887 8.00588 15.0228 10.3092C14.9544 12.6302 13.0845 14.4256 10.7586 14.4028ZM12.5879 10.1771C12.5651 9.18418 11.7974 8.44774 10.7915 8.4579C9.80081 8.46806 9.03056 9.23497 9.02549 10.2152C9.02042 11.2183 9.9123 12.0842 10.8929 12.0334C11.843 11.9827 12.6133 11.1396 12.5879 10.1771Z" fill="#87EBD1"/>
<path d="M39.6152 43.8531C39.6203 41.5219 41.4471 39.6935 43.7756 39.6909C46.0965 39.6884 47.9639 41.5219 47.9918 43.8277C48.0196 46.1488 46.0535 48.1143 43.7376 48.0864C41.4395 48.0559 39.6102 46.1767 39.6152 43.8531ZM43.7756 45.6383C44.7765 45.6434 45.5366 44.8993 45.5518 43.9013C45.567 42.9338 44.7942 42.0983 43.8466 42.0577C42.8736 42.0171 41.9615 42.911 41.9742 43.8886C41.9919 44.8409 42.8052 45.6332 43.7756 45.6383Z" fill="#87EBD1"/>
</svg>
