<svg width="130" height="138" viewBox="0 0 130 138" fill="none" xmlns="http://www.w3.org/2000/svg">
<ellipse cx="68.6462" cy="71.0647" rx="57.5568" ry="57.5568" fill="#47C9A2" fill-opacity="0.5"/>
<circle cx="69.0643" cy="71.1868" r="42.5335" fill="#47C9A2"/>
<path d="M16.7668 118.668L13.5305 122.25C13.1013 122.725 12.8379 123.315 12.7983 123.889C12.7586 124.463 12.9459 124.975 13.319 125.312C13.6921 125.649 14.2204 125.784 14.7877 125.686C15.355 125.589 15.9148 125.267 16.344 124.792L19.5804 121.21C20.0095 120.735 20.2729 120.145 20.3125 119.571C20.3522 118.997 20.1649 118.485 19.7918 118.148C19.4187 117.811 18.8904 117.676 18.3231 117.774C17.7558 117.871 17.196 118.193 16.7668 118.668Z" fill="#71AAFF"/>
<path d="M28.4271 124.358L28.4624 128.991C28.4671 129.605 28.6796 130.175 29.0532 130.574C29.4268 130.974 29.9308 131.171 30.4545 131.121C30.9781 131.072 31.4784 130.781 31.8453 130.312C32.2123 129.843 32.4158 129.234 32.4111 128.62L32.3758 123.987C32.3711 123.373 32.1586 122.803 31.785 122.404C31.4114 122.004 30.9074 121.807 30.3838 121.856C29.8601 121.906 29.3598 122.197 28.9929 122.666C28.6259 123.135 28.4224 123.744 28.4271 124.358Z" fill="#8AB9FF"/>
<path d="M8.1273 110.618L12.7396 110.185C13.3512 110.127 13.9362 109.863 14.3658 109.451C14.7955 109.038 15.0346 108.511 15.0306 107.985C15.0266 107.459 14.7797 106.978 14.3444 106.646C13.9091 106.315 13.3209 106.161 12.7093 106.219L8.09704 106.652C7.48541 106.71 6.90043 106.974 6.47079 107.386C6.04114 107.799 5.80202 108.326 5.80604 108.852C5.81005 109.378 6.05686 109.859 6.49219 110.191C6.92751 110.522 7.51568 110.676 8.1273 110.618Z" fill="#8AB9FF"/>
<path d="M112.871 17.8442L115.814 14.0268C116.205 13.5206 116.421 12.9132 116.415 12.3381C116.41 11.7631 116.183 11.2676 115.785 10.9606C115.387 10.6536 114.85 10.5603 114.292 10.7011C113.735 10.842 113.202 11.2056 112.812 11.7118L109.868 15.5292C109.478 16.0354 109.262 16.6428 109.267 17.2179C109.273 17.7929 109.5 18.2884 109.898 18.5954C110.296 18.9024 110.833 18.9957 111.39 18.8549C111.948 18.714 112.48 18.3504 112.871 17.8442Z" fill="#71A8FB"/>
<path d="M100.805 13.0737L100.407 8.46228C100.354 7.85077 100.098 7.29981 99.6945 6.9306C99.291 6.5614 98.7734 6.40419 98.2556 6.49356C97.7378 6.58293 97.2622 6.91156 96.9334 7.40716C96.6045 7.90276 96.4495 8.52473 96.5023 9.13624L96.9006 13.7476C96.9534 14.3592 97.2098 14.9101 97.6133 15.2793C98.0168 15.6485 98.5344 15.8057 99.0522 15.7164C99.57 15.627 100.046 15.2984 100.374 14.8028C100.703 14.3072 100.858 13.6852 100.805 13.0737Z" fill="#8AB9FF"/>
<path d="M122.111 25.1983L117.55 25.9855C116.945 26.0899 116.383 26.398 115.988 26.842C115.592 27.286 115.395 27.8296 115.44 28.3531C115.485 28.8766 115.769 29.3372 116.229 29.6336C116.688 29.93 117.286 30.0378 117.891 29.9334L122.452 29.1462C123.057 29.0418 123.619 28.7337 124.015 28.2897C124.411 27.8457 124.608 27.3022 124.562 26.7787C124.517 26.2551 124.234 25.7945 123.774 25.4981C123.314 25.2018 122.716 25.0939 122.111 25.1983Z" fill="#8AB9FF"/>
<path d="M26.7307 42.3235C27.0776 42.4243 27.4447 42.4052 27.7813 42.269C28.1179 42.1327 28.4074 41.886 28.6099 41.5628C28.8132 41.2297 28.9205 40.8385 28.9163 40.4379L28.8242 37.8193C28.8047 37.1612 28.9262 36.5072 29.1789 35.9092C29.4316 35.3112 29.8086 34.7855 30.2801 34.3739L32.1942 32.7347C32.4726 32.4788 32.6703 32.1342 32.7596 31.7493C32.8488 31.3645 32.825 30.9589 32.6915 30.5895C32.558 30.2202 32.3216 29.9059 32.0155 29.6908C31.7095 29.4757 31.3492 29.3707 30.9855 29.3906L28.5794 29.4906C27.9754 29.5123 27.3751 29.3802 26.8262 29.1048C26.2772 28.8294 25.7947 28.4184 25.4169 27.9042L23.9117 25.8243C23.6802 25.5217 23.368 25.3053 23.0185 25.2052C22.669 25.1051 22.2995 25.1262 21.9615 25.2655C21.6235 25.4049 21.3338 25.6557 21.1326 25.9829C20.9314 26.3102 20.8288 26.6976 20.8391 27.0914L20.9312 29.7622C20.9452 30.4045 20.8251 31.0419 20.58 31.6262C20.3349 32.2105 19.9712 32.7264 19.5163 33.135L17.6021 34.7685C17.3248 35.021 17.1264 35.3613 17.0346 35.7423C16.9428 36.1232 16.9621 36.5258 17.0898 36.8943C17.2175 37.2628 17.4472 37.5787 17.7472 37.7984C18.0471 38.018 18.4024 38.1304 18.7636 38.1199L21.1663 38.0155C21.7731 37.9943 22.3759 38.1284 22.9265 38.407C23.4771 38.6857 23.9601 39.1011 24.3368 39.6199L25.8437 41.705C26.0737 42.0072 26.3843 42.2228 26.7307 42.3235Z" fill="#FFEC3D"/>
<path opacity="0.9" d="M16.0757 68.8551C16.1419 68.9929 16.2456 69.1049 16.3726 69.1757C16.4996 69.2465 16.6437 69.2726 16.7849 69.2504C16.929 69.2257 17.0628 69.1548 17.1693 69.0459L17.8478 68.3129C18.0193 68.1299 18.2276 67.993 18.4561 67.9129C18.6846 67.8329 18.9271 67.812 19.1643 67.8518L20.1188 68.0221C20.2623 68.0422 20.408 68.0127 20.5353 67.9378C20.6626 67.8629 20.7652 67.7463 20.8285 67.6045C20.8918 67.4627 20.9127 67.3028 20.8882 67.1473C20.8638 66.9919 20.7952 66.8487 20.6921 66.738L20.0188 65.9972C19.8507 65.8103 19.7249 65.5832 19.6514 65.3341C19.5778 65.0849 19.5586 64.8205 19.5952 64.5619L19.7493 63.5228C19.7684 63.3676 19.7427 63.2099 19.6756 63.0714C19.6086 62.933 19.5037 62.8208 19.3755 62.7504C19.2472 62.68 19.102 62.6549 18.9601 62.6787C18.8182 62.7024 18.6865 62.7737 18.5835 62.8828L17.891 63.6298C17.7223 63.8068 17.5189 63.9397 17.2961 64.0185C17.0733 64.0973 16.837 64.1199 16.6051 64.0845L15.6521 63.9126C15.5098 63.8919 15.3651 63.9201 15.2381 63.9931C15.1111 64.0662 15.0082 64.1805 14.9435 64.3202C14.8789 64.46 14.8558 64.6182 14.8774 64.7729C14.899 64.9276 14.9642 65.0712 15.0641 65.1836L15.7377 65.9222C15.9064 66.1101 16.0323 66.3385 16.1054 66.589C16.1785 66.8396 16.1967 67.1053 16.1586 67.3649L16.0035 68.4059C15.9841 68.5605 16.0097 68.7175 16.0757 68.8551Z" fill="#FFF06C"/>
<path d="M98.6824 126.273C98.9806 126.177 99.2442 125.983 99.4368 125.717C99.6295 125.451 99.7418 125.127 99.7582 124.789C99.7711 124.443 99.6889 124.101 99.5205 123.807L98.3718 121.915C98.0858 121.438 97.9058 120.895 97.8458 120.329C97.7859 119.763 97.8478 119.189 98.0266 118.654L98.7656 116.503C98.8659 116.177 98.8699 115.825 98.7771 115.497C98.6843 115.169 98.4993 114.88 98.2481 114.673C97.997 114.465 97.6925 114.349 97.3774 114.34C97.0623 114.331 96.7525 114.43 96.4918 114.623L94.7537 115.876C94.316 116.188 93.8176 116.385 93.298 116.451C92.7784 116.516 92.2519 116.449 91.7604 116.254L89.7889 115.454C89.4929 115.343 89.1727 115.336 88.8729 115.434C88.5731 115.531 88.3086 115.728 88.1162 115.997C87.9237 116.265 87.813 116.593 87.7992 116.933C87.7855 117.274 87.8695 117.611 88.0396 117.897L89.2099 119.827C89.4853 120.295 89.6596 120.825 89.7194 121.378C89.7793 121.93 89.7232 122.49 89.5555 123.015L88.814 125.161C88.7131 125.484 88.7068 125.833 88.7962 126.16C88.8855 126.487 89.0659 126.775 89.3124 126.985C89.5589 127.195 89.8592 127.316 90.1716 127.331C90.4841 127.346 90.7932 127.255 91.056 127.07L92.7897 125.815C93.2296 125.502 93.7308 125.306 94.2529 125.242C94.7751 125.178 95.3037 125.248 95.7964 125.447L97.7713 126.25C98.066 126.361 98.3847 126.368 98.6824 126.273Z" fill="#FFF06C"/>
<path opacity="0.9" d="M120.183 91.9988C120.282 91.903 120.351 91.7761 120.381 91.6358C120.41 91.4954 120.399 91.3485 120.349 91.2152C120.297 91.0796 120.208 90.9645 120.094 90.8847L119.337 90.3853C119.148 90.2585 118.988 90.0854 118.87 89.8796C118.753 89.6738 118.681 89.4411 118.661 89.1998L118.586 88.2266C118.57 88.0815 118.513 87.9455 118.423 87.8376C118.332 87.7298 118.213 87.6556 118.082 87.6256C117.951 87.5955 117.814 87.611 117.692 87.67C117.569 87.7289 117.466 87.8284 117.398 87.9542L116.939 88.7805C116.823 88.9872 116.664 89.1615 116.475 89.2897C116.287 89.4178 116.073 89.4962 115.852 89.5186L114.96 89.6016C114.828 89.6178 114.704 89.6786 114.605 89.7754C114.506 89.8722 114.437 90.0002 114.408 90.1417C114.379 90.2832 114.391 90.431 114.442 90.5647C114.494 90.6983 114.582 90.8112 114.695 90.8875L115.467 91.3975C115.651 91.5229 115.806 91.6922 115.921 91.8927C116.036 92.0931 116.108 92.3195 116.131 92.5546L116.204 93.5266C116.219 93.6707 116.275 93.806 116.364 93.914C116.453 94.0219 116.57 94.0969 116.7 94.1288C116.83 94.1606 116.965 94.1477 117.088 94.0917C117.211 94.0357 117.314 93.9394 117.384 93.8163L117.842 92.9903C117.958 92.7827 118.118 92.6079 118.308 92.4799C118.499 92.3519 118.713 92.2743 118.936 92.2532L119.829 92.1706C119.961 92.1548 120.085 92.0944 120.183 91.9988Z" fill="#FFF06C"/>
<path d="M65.6632 78.2872C65.2365 78.2547 64.8399 78.0562 64.5577 77.7345L57.9251 71.1018C57.7773 70.7925 57.7291 70.445 57.7871 70.1069C57.8451 69.7689 58.0064 69.4574 58.2489 69.2149C58.4913 68.9723 58.803 68.8109 59.1409 68.753C59.4789 68.6951 59.8265 68.7433 60.136 68.891L65.5969 74.3518L84.4557 55.6258C84.765 55.478 85.1128 55.4298 85.4506 55.4878C85.7887 55.5457 86.1004 55.7071 86.3427 55.9495C86.5852 56.192 86.7466 56.5037 86.8046 56.8416C86.8625 57.1796 86.8143 57.5272 86.6666 57.8366L66.7686 77.7345C66.4865 78.0562 66.0897 78.2547 65.6632 78.2872Z" fill="white"/>
<path d="M68.9796 90.9998C65.4234 90.994 61.9335 90.0354 58.8735 88.2236C55.8134 86.4116 53.2948 83.8127 51.5799 80.6971C50.2763 78.3757 49.4707 75.8082 49.2143 73.158C48.8096 69.2715 49.5583 65.3518 51.3669 61.888C53.1755 58.4242 55.9639 55.5695 59.3843 53.6802C61.7058 52.3766 64.2734 51.5709 66.9235 51.3145C69.5635 51.0305 72.2338 51.2863 74.7721 52.0662C74.9985 52.1115 75.2132 52.2036 75.402 52.3366C75.5908 52.4696 75.7498 52.6406 75.8687 52.8387C75.9877 53.0367 76.0639 53.2574 76.0927 53.4866C76.1212 53.7158 76.1017 53.9485 76.0352 54.1697C75.9686 54.3909 75.8565 54.5958 75.7062 54.7712C75.5559 54.9466 75.3706 55.0887 75.1623 55.1883C74.9538 55.2879 74.7268 55.3429 74.496 55.3497C74.2652 55.3565 74.0352 55.315 73.8214 55.2278C71.6738 54.582 69.4189 54.3715 67.1888 54.6087C64.9845 54.8344 62.8487 55.5037 60.9099 56.5764C59.0419 57.6069 57.3904 58.9882 56.0459 60.6444C54.6616 62.3317 53.6278 64.2782 53.0052 66.37C52.3827 68.4618 52.1837 70.6568 52.4201 72.8263C52.6458 75.0306 53.3151 77.1665 54.3877 79.1052C55.4182 80.9732 56.7995 82.6247 58.4558 83.9692C60.143 85.3536 62.0895 86.3872 64.1813 87.0098C66.273 87.6324 68.468 87.8314 70.6378 87.595C72.842 87.3693 74.9777 86.7001 76.9167 85.6273C78.7846 84.5969 80.4359 83.2157 81.7806 81.5593C83.1648 79.8722 84.1987 77.9255 84.8212 75.8338C85.4438 73.7421 85.6428 71.5471 85.4065 69.3774C85.3846 69.1494 85.408 68.9195 85.475 68.7006C85.5422 68.4817 85.6516 68.2781 85.7976 68.1017C85.9433 67.925 86.1223 67.7789 86.3246 67.6717C86.5269 67.5642 86.7482 67.4979 86.9762 67.476C87.2041 67.4543 87.4341 67.4775 87.6529 67.5448C87.8718 67.6117 88.0754 67.7214 88.2519 67.8671C88.4285 68.0128 88.5746 68.1921 88.6819 68.3942C88.7893 68.5965 88.8557 68.8178 88.8775 69.0457C89.2801 72.9347 88.5282 76.8559 86.7155 80.3201C84.9028 83.7841 82.1098 86.6375 78.6854 88.5236C76.3392 89.8806 73.7319 90.7245 71.0357 90.9998C70.3503 90.9998 69.6429 90.9998 68.9796 90.9998Z" fill="white"/>
</svg>
