<svg width="48" height="48" viewBox="0 0 48 48" fill="none" xmlns="http://www.w3.org/2000/svg">
<g filter="url(#filter0_i_1029_7464)">
<circle cx="24" cy="24" r="24" fill="white"/>
</g>
<circle cx="24" cy="24" r="23.75" stroke="#80A1AA" stroke-width="0.5"/>
<g filter="url(#filter1_i_1029_7464)">
<circle cx="24" cy="24" r="19" fill="#769AA3"/>
</g>
<path fill-rule="evenodd" clip-rule="evenodd" d="M21.6192 19.5222C20.826 19.0909 19.875 19.6598 19.875 20.5165V27.4836C19.875 28.3403 20.826 28.9092 21.6192 28.4778L28.0252 24.9943C28.825 24.5594 28.825 23.4407 28.0252 23.0058L21.6192 19.5222ZM19.125 20.5165C19.125 19.064 20.7084 18.1732 21.9775 18.8633L28.3834 22.3469C29.7055 23.0658 29.7055 24.9343 28.3834 25.6532L21.9775 29.1368C20.7084 29.8269 19.125 28.9361 19.125 27.4836V20.5165Z" fill="black"/>
<defs>
<filter id="filter0_i_1029_7464" x="-6" y="-3" width="54" height="51" filterUnits="userSpaceOnUse" color-interpolation-filters="sRGB">
<feFlood flood-opacity="0" result="BackgroundImageFix"/>
<feBlend mode="normal" in="SourceGraphic" in2="BackgroundImageFix" result="shape"/>
<feColorMatrix in="SourceAlpha" type="matrix" values="0 0 0 0 0 0 0 0 0 0 0 0 0 0 0 0 0 0 127 0" result="hardAlpha"/>
<feOffset dx="-6" dy="-3"/>
<feGaussianBlur stdDeviation="16.5"/>
<feComposite in2="hardAlpha" operator="arithmetic" k2="-1" k3="1"/>
<feColorMatrix type="matrix" values="0 0 0 0 0.74902 0 0 0 0 0.815686 0 0 0 0 0.831373 0 0 0 0.2 0"/>
<feBlend mode="normal" in2="shape" result="effect1_innerShadow_1029_7464"/>
</filter>
<filter id="filter1_i_1029_7464" x="-1" y="2" width="44" height="41" filterUnits="userSpaceOnUse" color-interpolation-filters="sRGB">
<feFlood flood-opacity="0" result="BackgroundImageFix"/>
<feBlend mode="normal" in="SourceGraphic" in2="BackgroundImageFix" result="shape"/>
<feColorMatrix in="SourceAlpha" type="matrix" values="0 0 0 0 0 0 0 0 0 0 0 0 0 0 0 0 0 0 127 0" result="hardAlpha"/>
<feOffset dx="-6" dy="-3"/>
<feGaussianBlur stdDeviation="16.5"/>
<feComposite in2="hardAlpha" operator="arithmetic" k2="-1" k3="1"/>
<feColorMatrix type="matrix" values="0 0 0 0 0.74902 0 0 0 0 0.815686 0 0 0 0 0.831373 0 0 0 0.2 0"/>
<feBlend mode="normal" in2="shape" result="effect1_innerShadow_1029_7464"/>
</filter>
</defs>
</svg>
