<svg width="20" height="20" viewBox="0 0 20 20" fill="none" xmlns="http://www.w3.org/2000/svg">
<path d="M14.1666 11.6667C14.6269 11.6667 15 11.2936 15 10.8333C15 10.3731 14.6269 10 14.1666 10C13.7064 10 13.3333 10.3731 13.3333 10.8333C13.3333 11.2936 13.7064 11.6667 14.1666 11.6667Z" fill="#545454"/>
<path d="M14.1666 14.9999C14.6269 14.9999 15 14.6268 15 14.1666C15 13.7063 14.6269 13.3333 14.1666 13.3333C13.7064 13.3333 13.3333 13.7063 13.3333 14.1666C13.3333 14.6268 13.7064 14.9999 14.1666 14.9999Z" fill="#545454"/>
<path d="M10.8334 10.8333C10.8334 11.2936 10.4603 11.6667 10 11.6667C9.53977 11.6667 9.16669 11.2936 9.16669 10.8333C9.16669 10.3731 9.53977 10 10 10C10.4603 10 10.8334 10.3731 10.8334 10.8333Z" fill="#545454"/>
<path d="M10.8334 14.1666C10.8334 14.6268 10.4603 14.9999 10 14.9999C9.53977 14.9999 9.16669 14.6268 9.16669 14.1666C9.16669 13.7063 9.53977 13.3333 10 13.3333C10.4603 13.3333 10.8334 13.7063 10.8334 14.1666Z" fill="#545454"/>
<path d="M5.83333 11.6667C6.29357 11.6667 6.66667 11.2936 6.66667 10.8333C6.66667 10.3731 6.29357 10 5.83333 10C5.3731 10 5 10.3731 5 10.8333C5 11.2936 5.3731 11.6667 5.83333 11.6667Z" fill="#545454"/>
<path d="M5.83333 14.9999C6.29357 14.9999 6.66667 14.6268 6.66667 14.1666C6.66667 13.7063 6.29357 13.3333 5.83333 13.3333C5.3731 13.3333 5 13.7063 5 14.1666C5 14.6268 5.3731 14.9999 5.83333 14.9999Z" fill="#545454"/>
<path fill-rule="evenodd" clip-rule="evenodd" d="M5.83335 1.45825C6.17853 1.45825 6.45835 1.73808 6.45835 2.08325V2.71885C7.01002 2.70824 7.6178 2.70824 8.28624 2.70825H11.7137C12.3822 2.70824 12.99 2.70824 13.5417 2.71885V2.08325C13.5417 1.73808 13.8215 1.45825 14.1667 1.45825C14.5119 1.45825 14.7917 1.73808 14.7917 2.08325V2.77249C15.0083 2.78901 15.2134 2.80977 15.4075 2.83586C16.3845 2.96722 17.1754 3.24399 17.799 3.86762C18.4226 4.49126 18.6994 5.28204 18.8308 6.25907C18.9584 7.2084 18.9584 8.42142 18.9584 9.95284V11.7136C18.9584 13.245 18.9584 14.4581 18.8308 15.4074C18.6994 16.3844 18.4226 17.1753 17.799 17.7989C17.1754 18.4225 16.3845 18.6993 15.4075 18.8307C14.4582 18.9583 13.2452 18.9583 11.7138 18.9583H8.28635C6.7549 18.9583 5.54184 18.9583 4.5925 18.8307C3.61549 18.6993 2.8247 18.4225 2.20105 17.7989C1.57742 17.1753 1.30065 16.3844 1.1693 15.4074C1.04166 14.4581 1.04167 13.2451 1.04169 11.7136V9.95292C1.04167 8.42142 1.04166 7.20841 1.1693 6.25907C1.30065 5.28204 1.57742 4.49126 2.20105 3.86762C2.8247 3.24399 3.61549 2.96722 4.5925 2.83586C4.7866 2.80977 4.99174 2.78901 5.20835 2.77249V2.08325C5.20835 1.73808 5.48818 1.45825 5.83335 1.45825ZM4.75906 4.07472C3.92065 4.18744 3.43761 4.39883 3.08494 4.7515C2.73226 5.10418 2.52087 5.58722 2.40815 6.42563C2.38906 6.56761 2.3731 6.71709 2.35975 6.87492H17.6403C17.6269 6.71709 17.6109 6.56762 17.5919 6.42563C17.4792 5.58722 17.2678 5.10418 16.9151 4.7515C16.5624 4.39883 16.0794 4.18744 15.241 4.07472C14.3846 3.95958 13.2557 3.95825 11.6667 3.95825H8.33335C6.74434 3.95825 5.61545 3.95958 4.75906 4.07472ZM2.29169 9.99992C2.29169 9.28825 2.29195 8.66884 2.3026 8.12492H17.6974C17.7081 8.66884 17.7084 9.28825 17.7084 9.99992V11.6666C17.7084 13.2556 17.707 14.3845 17.5919 15.2409C17.4792 16.0793 17.2678 16.5623 16.9151 16.915C16.5624 17.2677 16.0794 17.4791 15.241 17.5918C14.3846 17.7069 13.2557 17.7083 11.6667 17.7083H8.33335C6.74434 17.7083 5.61545 17.7069 4.75906 17.5918C3.92065 17.4791 3.43761 17.2677 3.08494 16.915C2.73226 16.5623 2.52087 16.0793 2.40815 15.2409C2.29301 14.3845 2.29169 13.2556 2.29169 11.6666V9.99992Z" fill="#545454"/>
</svg>
