<svg width="20" height="20" viewBox="0 0 20 20" fill="none" xmlns="http://www.w3.org/2000/svg">
<path d="M14.9275 4.19111L10 9.11861L5.07251 4.19111C4.954 4.08266 4.79821 4.02412 4.63761 4.02767C4.477 4.03123 4.32396 4.09662 4.21037 4.21021C4.09677 4.32381 4.03138 4.47685 4.02783 4.63745C4.02427 4.79806 4.08281 4.95385 4.19126 5.07236L9.11626 9.99986L4.19001 14.9261C4.12983 14.9835 4.08172 15.0523 4.04851 15.1285C4.0153 15.2047 3.99766 15.2868 3.99663 15.3699C3.9956 15.4531 4.0112 15.5356 4.04251 15.6126C4.07382 15.6896 4.12022 15.7596 4.17896 15.8184C4.23771 15.8772 4.30762 15.9237 4.38459 15.9551C4.46156 15.9866 4.54404 16.0023 4.62717 16.0014C4.71031 16.0005 4.79242 15.9829 4.86868 15.9498C4.94494 15.9167 5.01382 15.8687 5.07126 15.8086L10 10.8824L14.9275 15.8099C15.046 15.9183 15.2018 15.9769 15.3624 15.9733C15.523 15.9697 15.6761 15.9044 15.7897 15.7908C15.9033 15.6772 15.9686 15.5241 15.9722 15.3635C15.9758 15.2029 15.9172 15.0471 15.8088 14.9286L10.8813 10.0011L15.8088 5.07236C15.8689 5.01501 15.9171 4.9462 15.9503 4.86998C15.9835 4.79376 16.0011 4.71168 16.0021 4.62854C16.0032 4.54541 15.9876 4.46291 15.9563 4.3859C15.925 4.30888 15.8786 4.2389 15.8198 4.18007C15.7611 4.12125 15.6912 4.07475 15.6142 4.04333C15.5372 4.01191 15.4547 3.9962 15.3716 3.99711C15.2885 3.99802 15.2064 4.01554 15.1301 4.04864C15.0538 4.08174 14.985 4.12976 14.9275 4.18986V4.19111Z" fill="#545454"/>
</svg>
