<svg width="28" height="28" viewBox="0 0 28 28" fill="none" xmlns="http://www.w3.org/2000/svg">
<circle cx="14" cy="14" r="14" fill="#769AA3"/>
<path d="M17.4492 9.93368L14 13.3829L10.5507 9.93368C10.4678 9.85776 10.3587 9.81678 10.2463 9.81927C10.1339 9.82177 10.0268 9.86754 9.94725 9.94705C9.86773 10.0266 9.82196 10.1337 9.81947 10.2461C9.81698 10.3585 9.85796 10.4676 9.93387 10.5506L13.3814 13.9998L9.933 17.4482C9.89087 17.4883 9.85719 17.5365 9.83395 17.5898C9.8107 17.6432 9.79835 17.7007 9.79763 17.7589C9.79691 17.817 9.80783 17.8748 9.82975 17.9287C9.85167 17.9826 9.88414 18.0316 9.92526 18.0728C9.96639 18.114 10.0153 18.1465 10.0692 18.1685C10.1231 18.1905 10.1808 18.2015 10.239 18.2009C10.2972 18.2002 10.3547 18.188 10.4081 18.1648C10.4615 18.1416 10.5097 18.108 10.5499 18.0659L14 14.6176L17.4492 18.0668C17.5322 18.1427 17.6413 18.1837 17.7537 18.1812C17.8661 18.1787 17.9732 18.1329 18.0528 18.0534C18.1323 17.9739 18.178 17.8668 18.1805 17.7544C18.183 17.6419 18.142 17.5329 18.0661 17.4499L14.6169 14.0007L18.0661 10.5506C18.1083 10.5104 18.1419 10.4622 18.1652 10.4089C18.1884 10.3555 18.2008 10.2981 18.2015 10.2399C18.2022 10.1817 18.1913 10.1239 18.1694 10.07C18.1475 10.0161 18.115 9.96714 18.0739 9.92595C18.0327 9.88477 17.9838 9.85223 17.9299 9.83024C17.876 9.80824 17.8183 9.79724 17.7601 9.79788C17.7019 9.79852 17.6444 9.81078 17.5911 9.83395C17.5377 9.85712 17.4895 9.89073 17.4492 9.93281V9.93368Z" fill="white"/>
</svg>
