<svg width="100" height="100" viewBox="0 0 100 100" fill="none" xmlns="http://www.w3.org/2000/svg">
<g clip-path="url(#clip0_1501_7680)">
<path d="M0.5 49.9993C0.5 22.6619 22.6648 0.501465 50 0.501465C77.3396 0.501465 99.5 22.6619 99.5 49.9993C99.5 77.3367 77.3396 99.4971 50 99.4971C22.6626 99.4971 0.5 77.3366 0.5 49.9993ZM67.04 31.4892C67.04 22.081 59.4126 14.4514 50 14.4514C40.5917 14.4514 32.9644 22.0811 32.9644 31.4892C32.9644 40.8995 40.5918 48.527 50 48.527C59.4125 48.527 67.04 40.8996 67.04 31.4892ZM23.1208 72.7569C23.1208 74.9613 24.0898 77.0615 25.7693 78.494C32.2934 84.0609 40.7531 87.4249 49.989 87.4249C59.2271 87.4249 67.6892 84.0609 74.2112 78.4916C75.8931 77.0588 76.8573 74.9628 76.8573 72.7569C76.8573 63.2169 69.1639 55.5829 59.624 55.5829H40.3804C30.8437 55.5829 23.1208 63.2158 23.1208 72.7569Z" fill="#29363E" stroke="#769AA3"/>
</g>
<defs>
<clipPath id="clip0_1501_7680">
<rect width="100" height="100" fill="white"/>
</clipPath>
</defs>
</svg>
