<svg width="140" height="140" viewBox="0 0 140 140" fill="none" xmlns="http://www.w3.org/2000/svg">
<circle opacity="0.05" cx="70" cy="70" r="70" fill="#FB4B4B"/>
<circle opacity="0.05" cx="69.9998" cy="69.9998" r="57.0652" fill="#F90000"/>
<path d="M79.6684 53.6416L79.6684 51.4605C79.6684 48.4066 79.6684 46.8796 79.0741 45.7132C78.5513 44.6871 77.7171 43.853 76.6911 43.3302C75.5247 42.7358 73.9977 42.7358 70.9438 42.7358L66.5815 42.7358C63.5276 42.7358 62.0006 42.7358 60.8342 43.3302C59.8082 43.853 58.974 44.6871 58.4512 45.7132C57.8569 46.8796 57.8569 48.4066 57.8569 51.4605L57.8569 53.6416M63.3098 68.6371L63.3098 82.2694M74.2156 68.6371L74.2156 82.2694M44.2246 53.6416L93.3007 53.6416M87.8478 53.6416L87.8478 84.1779C87.8478 88.7587 87.8478 91.0492 86.9563 92.7988C86.1721 94.3379 84.9208 95.5891 83.3818 96.3733C81.6321 97.2648 79.3417 97.2648 74.7608 97.2648L62.7645 97.2648C58.1836 97.2648 55.8932 97.2648 54.1435 96.3733C52.6045 95.5891 51.3532 94.3379 50.569 92.7988C49.6775 91.0492 49.6775 88.7587 49.6775 84.1779L49.6775 53.6416" stroke="#D92D20" stroke-width="3" stroke-linecap="round" stroke-linejoin="round"/>
</svg>
