<svg width="30" height="30" viewBox="0 0 30 30" fill="none" xmlns="http://www.w3.org/2000/svg">
<path d="M15.0001 1.87207C7.7614 1.87207 1.87268 7.76098 1.87268 14.9994C1.87268 22.2381 7.7614 28.1272 15.0001 28.1272C22.2384 28.1272 28.1276 22.2381 28.1276 14.9994C28.1276 7.76098 22.2384 1.87207 15.0001 1.87207ZM18.7103 10.1591C18.7103 10.2213 18.6856 10.2809 18.6417 10.3248C18.5977 10.3688 18.5381 10.3935 18.4759 10.3935L16.9837 10.3944C15.999 10.3944 15.819 10.7779 15.819 11.533V13.0996H18.3784C18.4457 13.0996 18.5099 13.1286 18.5542 13.1793C18.5985 13.2299 18.6191 13.2971 18.6109 13.3639L18.2465 16.1842C18.2392 16.2407 18.2116 16.2926 18.1688 16.3302C18.126 16.3678 18.071 16.3886 18.014 16.3886H15.819V23.3914C15.819 23.4536 15.7943 23.5132 15.7504 23.5572C15.7064 23.6011 15.6468 23.6258 15.5847 23.6258H12.6728C12.6106 23.6258 12.551 23.6011 12.507 23.5572C12.4631 23.5132 12.4384 23.4536 12.4384 23.3914V16.3886H10.2364C10.1743 16.3886 10.1146 16.3639 10.0707 16.3199C10.0267 16.276 10.002 16.2163 10.002 16.1542V13.3339C10.002 13.2718 10.0267 13.2122 10.0707 13.1682C10.1146 13.1243 10.1743 13.0996 10.2364 13.0996H12.4384V11.2539C12.4384 8.80934 13.9178 7.29105 16.2997 7.29105C17.3237 7.29105 18.2287 7.36723 18.5066 7.40402C18.563 7.41147 18.6147 7.43913 18.6522 7.48185C18.6896 7.52458 18.7103 7.57946 18.7103 7.63629V10.1591Z" fill="#769AA3"/>
</svg>
