<svg width="20" height="20" viewBox="0 0 20 20" fill="none" xmlns="http://www.w3.org/2000/svg">
<g clip-path="url(#clip0_2_350)">
<path d="M18.5247 11.1281C19.4345 10.2192 20.0006 8.9541 20 7.56617C20.0006 6.17828 19.4345 4.91317 18.5247 4.00453C17.6161 3.09445 16.3513 2.52844 14.9628 2.5293C13.5749 2.52844 12.3095 3.09449 11.4015 4.00453C10.4912 4.91317 9.92513 6.17828 9.92572 7.56617C9.92513 8.95406 10.4912 10.2191 11.4015 11.1281C12.1542 11.8819 13.1519 12.3983 14.2613 12.5534V14.6228H11.9767V16.0268H14.2613V18.2443H15.6651V16.0268H17.9497V14.6228H15.6651V12.5534C16.7744 12.3983 17.7721 11.8819 18.5247 11.1281ZM14.9628 10.7781C14.517 10.7778 14.0967 10.6882 13.7128 10.526C13.1376 10.283 12.6453 9.8743 12.2988 9.36129C11.9528 8.84773 11.7514 8.23457 11.7514 7.56617C11.7514 7.12008 11.841 6.70008 12.0033 6.31641C12.246 5.74098 12.6544 5.24899 13.1677 4.90242C13.6816 4.55617 14.2947 4.35481 14.9628 4.35422C15.4087 4.35453 15.8289 4.44414 16.2129 4.60664C16.7881 4.84938 17.2804 5.25805 17.6269 5.77106C17.9729 6.28496 18.1742 6.89805 18.1748 7.56621C18.1742 8.01231 18.0846 8.43231 17.9224 8.81602C17.6797 9.39141 17.2707 9.88371 16.7579 10.23C16.2441 10.5765 15.6315 10.7776 14.9628 10.7781Z" fill="#545454"/>
<path d="M5.73875 7.90245V4.44347L7.13289 5.83733L8.12602 4.84476L5.03715 1.75562L1.9477 4.84476L2.94027 5.83733L4.33496 4.44319V7.90245C3.22555 8.05784 2.22789 8.57429 1.47523 9.32831C0.564922 10.237 -0.000546479 11.5018 3.96311e-07 12.8897C-0.000546479 14.2782 0.564922 15.543 1.47523 16.4516C2.38387 17.3619 3.64867 17.9277 5.03715 17.9271C6.42504 17.9277 7.68988 17.3619 8.59848 16.4516C9.50879 15.543 10.0743 14.2782 10.0743 12.8897C10.0743 11.5018 9.50879 10.237 8.59848 9.32835C7.84586 8.57433 6.84816 8.05784 5.73875 7.90245ZM7.99672 14.1398C7.7534 14.7152 7.34504 15.2072 6.83227 15.5538C6.31844 15.9003 5.70531 16.1017 5.03715 16.1017C4.59078 16.1017 4.17105 16.0121 3.78707 15.8499C3.21195 15.6066 2.71961 15.1982 2.37309 14.6851C2.02652 14.1713 1.8252 13.5584 1.8252 12.8898C1.8252 12.444 1.91481 12.024 2.07699 11.6403C2.32031 11.0651 2.72871 10.5728 3.24199 10.2263C3.75527 9.88003 4.3684 9.67897 5.03711 9.67839C5.48293 9.67839 5.90262 9.768 6.28719 9.9305C6.86176 10.1735 7.35406 10.5819 7.70063 11.0949C8.04715 11.6088 8.24852 12.2216 8.24852 12.8898C8.24856 13.336 8.15891 13.7564 7.99672 14.1398Z" fill="#545454"/>
</g>
<defs>
<clipPath id="clip0_2_350">
<rect width="20" height="20" fill="white"/>
</clipPath>
</defs>
</svg>
