<svg width="58" height="58" viewBox="0 0 58 58" fill="none" xmlns="http://www.w3.org/2000/svg">
<path d="M22.115 8.9834C18.3353 9.15705 14.6425 9.54777 11.0366 9.9819C6.86584 10.4594 3.56402 13.8022 3.04268 17.9699C2.52134 22.6585 2 27.4773 2 32.4264C2 37.3754 2.52134 42.2377 3.04268 46.9263C3.52058 51.0939 6.86584 54.4367 10.9931 54.9142C15.6852 55.4352 20.551 55.9996 25.5472 55.9996C30.5434 55.9996 35.4092 55.4786 40.1013 54.9142C44.272 54.4367 47.5738 51.1373 48.0517 46.9263C48.4427 43.4967 48.7903 40.067 48.9641 36.594" stroke="#F6A8BB" stroke-width="3" stroke-linecap="round"/>
<path d="M42.6211 4.16549L26.6334 22.3121L24.4177 32.6444C24.0701 34.2941 25.8079 35.8569 27.4154 35.3794L37.6684 32.1668L54.221 14.7582C56.958 11.893 56.4801 7.03075 53.1783 4.12208C49.9199 1.25683 45.2278 1.30024 42.6211 4.20891V4.16549Z" stroke="#F6A8BB" stroke-width="3" stroke-linecap="round" stroke-linejoin="round"/>
</svg>
