<svg width="22" height="22" viewBox="0 0 22 22" fill="none" xmlns="http://www.w3.org/2000/svg">
<g clip-path="url(#clip0_273_3144)">
<path d="M19.7313 16.2526H18.0676C17.6001 16.2526 17.2196 15.8721 17.2196 15.4046V9.54714C17.2196 9.07964 17.6001 8.69922 18.0676 8.69922H19.7313C20.923 8.69922 21.8946 9.67089 21.8946 10.8626V14.0892C21.8901 15.2809 20.923 16.2526 19.7313 16.2526ZM18.9109 14.5613H19.7313C19.9926 14.5613 20.2034 14.3505 20.2034 14.0938V10.8626C20.2034 10.6013 19.9926 10.3951 19.7313 10.3951H18.9109V14.5613ZM3.93714 16.2526H2.2688C1.07714 16.2526 0.105469 15.2809 0.105469 14.0892V10.8626C0.105469 9.67089 1.07714 8.69922 2.2688 8.69922H3.93255C4.40005 8.69922 4.78047 9.07964 4.78047 9.54714V15.4092C4.78047 15.8721 4.40464 16.2526 3.93714 16.2526ZM2.2688 10.3905C2.00755 10.3905 1.79672 10.6013 1.79672 10.858V14.0846C1.79672 14.3459 2.00755 14.5521 2.2688 14.5521H3.08922V10.3859H2.2688V10.3905Z" fill="#769AA3"/>
<path d="M19.2774 10.3904C18.8099 10.3904 18.4295 10.01 18.4295 9.5425V8.91C18.4295 4.92708 15.1891 1.68667 11.2062 1.68667H10.7891C6.80161 1.68667 3.56119 4.92708 3.56119 8.91V9.5425C3.56119 10.01 3.18077 10.3904 2.71327 10.3904C2.24577 10.3904 1.86536 10.01 1.86536 9.5425V8.91C1.87452 4.00125 5.87577 0 10.7937 0H11.2108C16.1241 0 20.1208 4.00125 20.1208 8.91458V9.54708C20.1208 10.0146 19.7449 10.3904 19.2774 10.3904ZM17.7374 20.7625H14.057C13.5895 20.7625 13.2091 20.3821 13.2091 19.9146C13.2091 19.4471 13.5895 19.0667 14.057 19.0667H17.7374C18.3699 19.0667 18.8833 18.5533 18.8833 17.9254V15.4046C18.8833 14.9371 19.2637 14.5567 19.7312 14.5567C20.1987 14.5567 20.5791 14.9371 20.5791 15.4046V17.9254C20.5791 19.4929 19.3049 20.7625 17.7374 20.7625Z" fill="#769AA3"/>
<path d="M13.4017 21.9999H11.1375C10.3079 21.9999 9.63416 21.3261 9.63416 20.4965V19.3461C9.63416 18.5165 10.3079 17.8428 11.1375 17.8428H13.4017C14.2312 17.8428 14.905 18.5165 14.905 19.3461V20.4965C14.905 21.3261 14.2312 21.9999 13.4017 21.9999ZM11.3254 20.3086H13.2137V19.534H11.3254V20.3086Z" fill="#769AA3"/>
</g>
<defs>
<clipPath id="clip0_273_3144">
<rect width="22" height="22" fill="white"/>
</clipPath>
</defs>
</svg>
