<svg width="60" height="60" viewBox="0 0 60 60" fill="none" xmlns="http://www.w3.org/2000/svg">
<path d="M55 21.9231C55 39.6923 32.1333 51 30.5 51C28.8667 51 6 39.6923 6 21.9231C6 14.7863 11.8506 9 19.0667 9C23.9895 9 28.2721 11.6945 30.5 15.6715C32.7279 11.6945 37.0105 9 41.9333 9C49.1494 9 55 14.7863 55 21.9231Z" fill="#F1ACAC"/>
<path d="M30 13.7514L28.649 15.0516C28.6575 15.0603 28.666 15.0689 28.6745 15.0774L30 13.7514ZM17.5015 41.052C16.702 40.394 15.5203 40.5088 14.8623 41.3083C14.2042 42.1078 14.3189 43.2895 15.1185 43.9475L17.5015 41.052ZM5.85497 33.5285C6.35185 34.437 7.49117 34.7708 8.3997 34.2738C9.30825 33.7768 9.64192 32.6375 9.14503 31.729L5.85497 33.5285ZM33.6745 20.0756C34.4067 20.8077 35.594 20.8075 36.326 20.0751C37.0583 19.3428 37.058 18.1556 36.3255 17.4235L33.6745 20.0756ZM6.875 22.8425C6.875 17.4654 9.91342 12.9561 14.0609 11.0603C18.0902 9.21848 23.5042 9.70623 28.649 15.0516L31.351 12.4511C25.2462 6.10858 18.1602 5.06325 12.5019 7.64968C6.96178 10.1821 3.125 16.0624 3.125 22.8425H6.875ZM21.2436 48.7495C22.5241 49.759 23.8989 50.8355 25.292 51.6495C26.6848 52.4633 28.274 53.1248 30 53.1248V49.3748C29.226 49.3748 28.3153 49.073 27.184 48.4118C26.0532 47.751 24.8802 46.8413 23.5651 45.8045L21.2436 48.7495ZM38.7565 48.7495C42.323 45.9378 46.882 42.7163 50.4583 38.6893C54.0988 34.59 56.875 29.5063 56.875 22.8425H53.125C53.125 28.336 50.877 32.5703 47.6543 36.1993C44.3673 39.9005 40.224 42.8175 36.435 45.8045L38.7565 48.7495ZM56.875 22.8425C56.875 16.0624 53.0383 10.1821 47.498 7.64968C41.8398 5.06325 34.7538 6.10858 28.649 12.4511L31.351 15.0516C36.4958 9.70623 41.9098 9.21848 45.939 11.0603C50.0865 12.9561 53.125 17.4654 53.125 22.8425H56.875ZM36.435 45.8045C35.1198 46.8413 33.9468 47.751 32.816 48.4118C31.6847 49.073 30.774 49.3748 30 49.3748V53.1248C31.726 53.1248 33.3152 52.4633 34.708 51.6495C36.1012 50.8355 37.4757 49.759 38.7565 48.7495L36.435 45.8045ZM23.5651 45.8045C21.5753 44.236 19.5532 42.7405 17.5015 41.052L15.1185 43.9475C17.1942 45.6558 19.3868 47.2858 21.2436 48.7495L23.5651 45.8045ZM9.14503 31.729C7.742 29.1638 6.875 26.258 6.875 22.8425H3.125C3.125 26.9363 4.17488 30.4565 5.85497 33.5285L9.14503 31.729ZM28.6745 15.0774L33.6745 20.0756L36.3255 17.4235L31.3255 12.4253L28.6745 15.0774Z" fill="#F26363"/>
</svg>
