<?xml version="1.0" encoding="UTF-8"?><svg id="Layer_1" xmlns="http://www.w3.org/2000/svg" viewBox="0 0 46.22 46.19"><g id="add-reaction-sticker-emoji"><path id="vector_2" d="m11,23.77c1.48,5.34,7.42,8.61,12.77,7.13,3.27-1.19,5.94-3.86,6.83-7.13" fill="none" stroke="#fff" stroke-linecap="round" stroke-linejoin="round" stroke-width="3"/><g id="group_623"><path id="vector_3" d="m14.12,16.35c-.41,0-.74-.33-.74-.74s.33-.74.74-.74" fill="none" stroke="#fff" stroke-linecap="round" stroke-linejoin="round" stroke-width="3"/><path id="vector_4" d="m14.12,16.35c.41,0,.74-.33.74-.74s-.33-.74-.74-.74" fill="none" stroke="#fff" stroke-linecap="round" stroke-linejoin="round" stroke-width="3"/></g><g id="group_624"><path id="vector_5" d="m27.49,16.35c-.41,0-.74-.33-.74-.74s.33-.74.74-.74" fill="none" stroke="#fff" stroke-linecap="round" stroke-linejoin="round" stroke-width="3"/><path id="vector_6" d="m27.49,16.35c.41,0,.74-.33.74-.74s-.33-.74-.74-.74" fill="none" stroke="#fff" stroke-linecap="round" stroke-linejoin="round" stroke-width="3"/></g><path id="vector_7" d="m40.11,20.8C40.11,10.14,31.46,1.5,20.8,1.5c-10.66,0-19.3,8.64-19.3,19.3,0,10.66,8.64,19.3,19.3,19.3" fill="none" stroke="#fff" stroke-linecap="round" stroke-linejoin="round" stroke-width="3"/><g id="group_4552"><path id="vector_8" d="m37.79,31.26v13.43" fill="none" stroke="#fff" stroke-linecap="round" stroke-linejoin="round" stroke-width="3"/><path id="vector_9" d="m31.29,37.78h13.43" fill="none" stroke="#fff" stroke-linecap="round" stroke-linejoin="round" stroke-width="3"/></g></g></svg>