<?xml version="1.0" encoding="UTF-8"?><svg id="Layer_1" xmlns="http://www.w3.org/2000/svg" viewBox="0 0 13.42 13.44"><path d="m5.12,2.12c-.87.04-1.72.13-2.55.23-.96.11-1.72.88-1.84,1.84-.12,1.08-.24,2.19-.24,3.33s.12,2.26.24,3.34c.11.96.88,1.73,1.83,1.84,1.08.12,2.2.25,3.35.25s2.27-.12,3.35-.25c.96-.11,1.72-.87,1.83-1.84.09-.79.17-1.58.21-2.38" fill="none" stroke="#18202f" stroke-linecap="round"/><path d="m9.84,1.01l-3.68,4.18-.51,2.38c-.08.38.32.74.69.63l2.36-.74,3.81-4.01c.63-.66.52-1.78-.24-2.45-.75-.66-1.83-.65-2.43.02h0Z" fill="#b6c0f3" stroke="#18202f" stroke-linecap="round" stroke-linejoin="round"/></svg>