<svg width="10" height="10" viewBox="0 0 10 10" fill="none" xmlns="http://www.w3.org/2000/svg">
<path d="M6.24984 2.22206C6.24984 2.07472 6.29375 1.93341 6.37188 1.82922C6.45 1.72504 6.556 1.6665 6.6665 1.6665C6.777 1.6665 6.883 1.72504 6.96113 1.82922C7.03925 1.93341 7.08317 2.07472 7.08317 2.22206V7.77763C7.08317 7.92496 7.03925 8.06625 6.96113 8.17046C6.883 8.27463 6.777 8.33317 6.6665 8.33317C6.556 8.33317 6.45 8.27463 6.37188 8.17046C6.29375 8.06625 6.24984 7.92496 6.24984 7.77763V2.22206ZM2.9165 2.22206C2.9165 2.07472 2.9604 1.93341 3.03854 1.82922C3.11668 1.72504 3.22266 1.6665 3.33317 1.6665C3.44368 1.6665 3.54966 1.72504 3.6278 1.82922C3.70594 1.93341 3.74984 2.07472 3.74984 2.22206V7.77763C3.74984 7.92496 3.70594 8.06625 3.6278 8.17046C3.54966 8.27463 3.44368 8.33317 3.33317 8.33317C3.22266 8.33317 3.11668 8.27463 3.03854 8.17046C2.9604 8.06625 2.9165 7.92496 2.9165 7.77763V2.22206Z" fill="black"/>
</svg>
