<svg width="24" height="24" viewBox="0 0 24 24" fill="none" xmlns="http://www.w3.org/2000/svg">
<g clip-path="url(#clip0_273_3156)">
<path d="M15.1819 8.81802C16.9392 10.5754 16.9392 13.4246 15.1819 15.182C13.4245 16.9393 10.5752 16.9393 8.81789 15.182C7.06054 13.4246 7.06054 10.5754 8.81789 8.81802C10.5752 7.06066 13.4245 7.06066 15.1819 8.81802Z" fill="#769AA3"/>
<path d="M17.25 0H6.75C3.02782 0 0 3.02782 0 6.75V17.25C0 20.9722 3.02782 24 6.75 24H17.25C20.9722 24 24 20.9722 24 17.25V6.75C24 3.02782 20.9722 0 17.25 0ZM12 18C8.69164 18 6 15.3091 6 12C6 8.69093 8.69164 6 12 6C15.3084 6 18 8.69093 18 12C18 15.3091 15.3084 18 12 18ZM18.75 6C18.3358 6 18 5.66418 18 5.25C18 4.83572 18.3358 4.5 18.75 4.5C19.1642 4.5 19.5 4.83572 19.5 5.25C19.5 5.66418 19.1642 6 18.75 6Z" fill="#769AA3"/>
</g>
<defs>
<clipPath id="clip0_273_3156">
<rect width="24" height="24" fill="white"/>
</clipPath>
</defs>
</svg>
