<svg width="18" height="18" viewBox="0 0 18 18" fill="none" xmlns="http://www.w3.org/2000/svg">
<path d="M8.57817 5.66844L9 6.33131L9.42183 5.66844C10.1171 4.5759 11.3451 3.875 12.75 3.875C14.9489 3.875 16.75 5.67614 16.75 7.875C16.75 8.84956 16.3007 9.87094 15.5577 10.884C14.8186 11.8919 13.8223 12.846 12.8084 13.6755C11.797 14.503 10.7831 15.1945 10.0206 15.6797C9.6399 15.922 9.32308 16.1121 9.10221 16.2412C9.06579 16.2624 9.03199 16.2821 9.00095 16.3C8.96976 16.2819 8.93577 16.262 8.89915 16.2404C8.67821 16.1104 8.36131 15.919 7.98051 15.6752C7.21793 15.187 6.20379 14.4919 5.19215 13.6619C4.17802 12.8298 3.18136 11.8744 2.44203 10.8679C1.69861 9.8558 1.25 8.83937 1.25 7.875C1.25 5.67614 3.05114 3.875 5.25 3.875C6.65493 3.875 7.88292 4.5759 8.57817 5.66844Z" stroke="white"/>
</svg>
