<svg width="16" height="16" viewBox="0 0 16 16" fill="none" xmlns="http://www.w3.org/2000/svg">
<path d="M11.3546 15.25C11.3546 15.4489 11.2756 15.6397 11.1349 15.7803C10.9943 15.921 10.8035 16 10.6046 16H3.53418C2.87137 15.9993 2.23591 15.7356 1.76723 15.2669C1.29856 14.7983 1.03492 14.1628 1.03418 13.5V2.5C1.03492 1.83719 1.29856 1.20173 1.76723 0.733055C2.23591 0.264376 2.87137 0.000744409 3.53418 0L10.6046 0C10.8035 0 10.9943 0.0790176 11.1349 0.21967C11.2756 0.360322 11.3546 0.551088 11.3546 0.75C11.3546 0.948912 11.2756 1.13968 11.1349 1.28033C10.9943 1.42098 10.8035 1.5 10.6046 1.5H3.53418C3.26905 1.50029 3.01487 1.60574 2.82739 1.79321C2.63992 1.98069 2.53447 2.23487 2.53418 2.5V13.5C2.53446 13.7651 2.63991 14.0193 2.82738 14.2068C3.01486 14.3943 3.26905 14.4997 3.53418 14.5H10.6046C10.8035 14.5 10.9943 14.579 11.1349 14.7197C11.2756 14.8603 11.3546 15.0511 11.3546 15.25ZM14.7469 7.46969L11.1828 3.90556C11.1134 3.83464 11.0307 3.77819 10.9394 3.73946C10.848 3.70074 10.7499 3.68052 10.6507 3.67997C10.5515 3.67942 10.4532 3.69855 10.3615 3.73626C10.2697 3.77397 10.1864 3.82951 10.1162 3.89966C10.0461 3.9698 9.99055 4.05317 9.95285 4.14492C9.91515 4.23668 9.89602 4.335 9.89659 4.4342C9.89715 4.53339 9.91738 4.63149 9.95611 4.72282C9.99485 4.81414 10.0513 4.89687 10.1222 4.96622L12.4059 7.25H6.50165C6.30274 7.25 6.11197 7.32902 5.97132 7.46967C5.83067 7.61032 5.75165 7.80109 5.75165 8C5.75165 8.19891 5.83067 8.38968 5.97132 8.53033C6.11197 8.67098 6.30274 8.75 6.50165 8.75H12.4059L10.1221 11.0337C10.0522 11.1033 9.99662 11.186 9.95868 11.2771C9.92074 11.3682 9.90114 11.4658 9.901 11.5645C9.90087 11.6632 9.9202 11.7609 9.9579 11.8521C9.99559 11.9432 10.0509 12.0261 10.1207 12.0958C10.1904 12.1656 10.2733 12.2209 10.3645 12.2586C10.4556 12.2963 10.5534 12.3157 10.652 12.3155C10.7507 12.3154 10.8484 12.2958 10.9394 12.2578C11.0305 12.2199 11.1132 12.1644 11.1828 12.0944L14.7469 8.53034C14.8875 8.38969 14.9665 8.19893 14.9665 8.00002C14.9665 7.8011 14.8875 7.61034 14.7469 7.46969Z" fill="white"/>
</svg>
