<svg width="70" height="70" viewBox="0 0 70 70" fill="none" xmlns="http://www.w3.org/2000/svg">
<g clip-path="url(#clip0_1049_6135)">
<path fill-rule="evenodd" clip-rule="evenodd" d="M34.4976 58.8513V62.3398C34.4976 65.1373 33.1034 67.5525 30.6806 68.9511C29.5149 69.624 28.2139 69.9995 26.865 70.0001C25.5149 70.0008 24.2143 69.6247 23.0478 68.9511L7.53629 59.9955C5.11322 58.5966 3.71924 56.1821 3.71924 53.3842V7.6341C3.71924 3.4244 7.14377 0 11.3533 0H45.5154C49.7252 0 53.15 3.42412 53.15 7.6341V17.2781C53.15 18.6616 52.0267 19.7848 50.6433 19.7848C49.2594 19.7848 48.1371 18.6617 48.1371 17.2781V7.6341C48.1371 6.18858 46.9609 5.01238 45.5154 5.01238H15.5805L30.6806 13.7319C33.1026 15.1305 34.4976 17.545 34.4976 20.3418V53.8383H45.5154C46.9608 53.8383 48.1371 52.6628 48.1371 51.2172V42.763C48.1371 41.3786 49.2587 40.2563 50.6433 40.2563C52.0273 40.2563 53.15 41.3789 53.15 42.763V51.2172C53.15 55.4272 49.7252 58.8513 45.5154 58.8513H34.4976ZM57.7238 31.9318L54.9633 34.6922C53.9846 35.671 53.9848 37.2578 54.9633 38.2367C55.1959 38.4696 55.4722 38.6543 55.7763 38.7801C56.0805 38.906 56.4065 38.9705 56.7356 38.97C57.0649 38.9707 57.391 38.9062 57.6953 38.7804C57.9996 38.6545 58.276 38.4697 58.5086 38.2367L65.5467 31.1973C66.5252 30.2187 66.5254 28.6327 65.5467 27.6541L58.5086 20.6158C57.5297 19.6369 55.9428 19.6373 54.9635 20.6157C53.985 21.5935 53.9852 23.1809 54.9635 24.159L57.7238 26.9188H39.2312C37.8464 26.9188 36.7251 28.041 36.7251 29.4257C36.7251 30.8104 37.8466 31.9319 39.2312 31.9319H57.7238V31.9318Z" fill="#769AA3"/>
</g>
<defs>
<clipPath id="clip0_1049_6135">
<rect width="70" height="70" fill="white"/>
</clipPath>
</defs>
</svg>
