<svg width="34" height="34" viewBox="0 0 34 34" fill="none" xmlns="http://www.w3.org/2000/svg">
<circle cx="17" cy="17" r="17" fill="#769AA3"/>
<g clip-path="url(#clip0_1738_7265)">
<path d="M21.8413 14.8418V16.7782C21.8408 18.1143 21.2995 19.3206 20.4215 20.2C19.5421 21.078 18.3362 21.6193 17.0002 21.6193C15.6641 21.6193 14.4578 21.078 13.5784 20.2C12.7005 19.3206 12.1592 18.1143 12.1587 16.7782V14.8418H10.7301V16.7782C10.7315 19.9958 13.1627 22.648 16.286 23.0042V25.7302H14.4602V27.0003H19.5394V25.7302H17.7146V23.0042C20.8373 22.648 23.2685 19.9958 23.2699 16.7782V14.8418H21.8413Z" fill="white"/>
<path d="M17.0003 20.0481C18.8032 20.0481 20.27 18.5809 20.27 16.778V10.2702C20.27 8.46723 18.8032 7 17.0003 7C15.1973 7 13.7301 8.46723 13.7301 10.2702V16.7779C13.7301 18.5809 15.1973 20.0481 17.0003 20.0481Z" fill="white"/>
</g>
<defs>
<clipPath id="clip0_1738_7265">
<rect width="20" height="20" fill="white" transform="translate(7 7)"/>
</clipPath>
</defs>
</svg>
