<svg width="58" height="58" viewBox="0 0 58 58" fill="none" xmlns="http://www.w3.org/2000/svg">
<g clip-path="url(#clip0_1732_6190)">
<path d="M57.8451 35.3616C57.6576 35.0369 57.324 34.8232 56.9507 34.7888C56.7077 34.7665 51.6058 34.3261 45.7005 36.0689C48.6829 28.5012 48.0671 21.2783 48.0345 20.9249C48.0001 20.5515 47.7865 20.2179 47.4617 20.0304C47.1369 19.8429 46.7413 19.8247 46.4006 19.9817C46.1314 20.1056 40.3939 22.7912 35.4972 28.3339C34.1046 20.5302 30.1459 14.8503 29.9431 14.5634C29.7266 14.2572 29.3748 14.0752 28.9996 14.0752C28.6245 14.0752 28.2728 14.2572 28.0562 14.5634C27.8534 14.8502 23.895 20.5301 22.5021 28.3339C17.6054 22.7911 11.8679 20.1056 11.5987 19.9817C11.2582 19.8248 10.8624 19.8429 10.5376 20.0304C10.2129 20.2179 9.99921 20.5515 9.96477 20.9249C9.93203 21.2784 9.31624 28.5014 12.2988 36.0691C6.39324 34.3265 1.29128 34.7665 1.04886 34.7888C0.675485 34.8232 0.341872 35.0369 0.154391 35.3616C-0.033089 35.6864 -0.0513273 36.082 0.105681 36.4227C0.262462 36.7634 4.03858 44.8158 11.9547 49.3861C17.809 52.7662 24.1801 53.2328 27.253 53.2328C28.143 53.2328 28.756 53.1936 28.9998 53.1748C29.2435 53.1937 29.8562 53.2328 30.7466 53.2328C33.8196 53.2328 40.1908 52.7658 46.0448 49.3861C53.9609 44.8158 57.7369 36.7634 57.8938 36.4227C58.051 36.0822 58.0326 35.6864 57.8451 35.3616ZM13.1104 47.385C7.86556 44.3569 4.52693 39.5211 3.06334 37.0389C5.32409 37.0568 9.41604 37.351 13.6156 38.9494C13.7873 39.2765 13.9658 39.6031 14.1535 39.928C17.147 45.113 21.4884 48.6944 24.6162 50.7926C21.4934 50.5228 17.123 49.7018 13.1104 47.385ZM16.1547 38.7727C12.691 32.7734 12.2185 26.0602 12.2114 22.9273C14.4778 24.2417 18.7476 27.088 22.1031 31.4857C22.0511 32.1856 22.0223 32.8969 22.0223 33.6188C22.0223 39.8566 24.1031 45.3389 25.8226 48.8047C22.9102 46.8335 18.8847 43.5012 16.1547 38.7727ZM29 49.8198C27.4012 47.0468 24.3331 40.7903 24.3331 33.6188C24.3331 26.4473 27.4015 20.1906 29 17.4179C30.5987 20.1909 33.6668 26.4474 33.6668 33.6189C33.6668 40.7904 30.5984 47.0472 29 49.8198ZM35.9775 33.6187C35.9775 32.8969 35.9488 32.1855 35.8968 31.4857C39.2535 27.0867 43.5251 24.2397 45.7909 22.9261C45.7867 26.0541 45.3186 32.7569 41.8454 38.7725C39.1233 43.4875 35.0958 46.8223 32.1808 48.7976C33.8996 45.3314 35.9775 39.8526 35.9775 33.6187ZM44.8896 47.385C40.877 49.7016 36.5066 50.5226 33.3839 50.7926C36.5116 48.6944 40.8529 45.113 43.8464 39.9281C44.034 39.6031 44.2126 39.2765 44.3845 38.9491C48.5714 37.356 52.6704 37.0607 54.9353 37.041C53.4708 39.5244 50.1326 44.3579 44.8896 47.385Z" fill="#FABF6F"/>
<path d="M19.6414 14.7036C17.762 14.7036 16.233 16.2327 16.233 18.112C16.233 19.9914 17.762 21.5204 19.6414 21.5204C21.5207 21.5204 23.0498 19.9914 23.0498 18.112C23.0498 16.2327 21.5207 14.7036 19.6414 14.7036ZM19.6414 19.2096C19.0362 19.2096 18.5438 18.7172 18.5438 18.112C18.5438 17.5069 19.0362 17.0144 19.6414 17.0144C20.2465 17.0144 20.739 17.5069 20.739 18.112C20.739 18.7172 20.2466 19.2096 19.6414 19.2096Z" fill="#FABF6F"/>
<path d="M38.3585 14.7036C36.4792 14.7036 34.9501 16.2327 34.9501 18.112C34.9501 19.9914 36.4792 21.5204 38.3585 21.5204C40.2378 21.5204 41.7669 19.9914 41.7669 18.112C41.7669 16.2327 40.2378 14.7036 38.3585 14.7036ZM38.3585 19.2096C37.7534 19.2096 37.2609 18.7172 37.2609 18.112C37.2609 17.5069 37.7534 17.0144 38.3585 17.0144C38.9637 17.0144 39.4561 17.5069 39.4561 18.112C39.4561 18.7172 38.9638 19.2096 38.3585 19.2096Z" fill="#FABF6F"/>
<path d="M29 4.76709C27.1207 4.76709 25.5916 6.29616 25.5916 8.1755C25.5916 10.0548 27.1207 11.5839 29 11.5839C30.8793 11.5839 32.4084 10.0548 32.4084 8.1755C32.4084 6.29616 30.8793 4.76709 29 4.76709ZM29 9.27308C28.3949 9.27308 27.9024 8.78064 27.9024 8.1755C27.9024 7.57035 28.3949 7.07791 29 7.07791C29.6052 7.07791 30.0976 7.57035 30.0976 8.1755C30.0976 8.78064 29.6052 9.27308 29 9.27308Z" fill="#FABF6F"/>
<path d="M30.1561 41.7439C29.5539 41.5332 28.8949 41.8501 28.6837 42.4523C28.5418 42.8577 28.447 43.0828 28.4465 43.0836C28.1964 43.6707 28.4696 44.3494 29.0566 44.5994C29.2042 44.6622 29.3579 44.692 29.509 44.692C29.958 44.692 30.3852 44.4285 30.5725 43.9892C30.5847 43.9603 30.6976 43.6931 30.8645 43.2163C31.0756 42.6141 30.7583 41.9548 30.1561 41.7439Z" fill="#FABF6F"/>
<path d="M32.4128 33.006C32.3923 32.3682 31.8572 31.8675 31.221 31.8883C30.5832 31.9088 30.0829 32.4425 30.1034 33.0803C30.1668 35.0527 29.9927 37.081 29.5858 39.1085C29.4601 39.7342 29.8656 40.3431 30.4912 40.4687C30.5679 40.4841 30.6443 40.4915 30.7197 40.4915C31.2588 40.4915 31.7411 40.1121 31.8513 39.5631C32.2931 37.3616 32.4819 35.1556 32.4128 33.006Z" fill="#FABF6F"/>
</g>
<defs>
<clipPath id="clip0_1732_6190">
<rect width="58" height="58" fill="white"/>
</clipPath>
</defs>
</svg>
