<svg width="60" height="60" viewBox="0 0 60 60" fill="none" xmlns="http://www.w3.org/2000/svg">
<circle cx="30" cy="13" r="6" fill="#B9D1F5"/>
<path d="M17.5 38L22 33L22.5 38L21.5 41.5L15.5 45L12 48L11 50L13 53.5H17.5H46.5L48.5 50L46.5 46.5L37.5 39V33.5L42 38H53L52.5 33L44 32L39 22.5H21.5L14 32.5L7.5 33.5V38H17.5Z" fill="#B9D1F5"/>
<path d="M31.0936 20.2805C31.0975 20.2799 31.1028 20.2793 31.1093 20.2791C31.1281 20.2785 31.1638 20.2814 31.2027 20.3036C31.2627 20.3379 31.2804 20.3863 31.2849 20.4037C31.285 20.4042 31.2851 20.4046 31.2852 20.4051M31.0936 20.2805L31.4701 20.2205C31.657 20.2936 31.8467 20.348 32.0395 20.3885C32.0011 20.3952 31.9632 20.4013 31.9259 20.407C31.8614 20.4167 31.8017 20.4249 31.7441 20.4328C31.6543 20.4451 31.5695 20.4566 31.4793 20.4726L31.4663 20.4749L31.4531 20.4758C31.4489 20.4761 31.4446 20.4764 31.4403 20.4766C31.4134 20.4667 31.3865 20.4563 31.3596 20.4457C31.3255 20.4497 31.2849 20.4682 31.2442 20.4867C31.2429 20.4872 31.2417 20.4878 31.2405 20.4884C31.2362 20.4891 31.2325 20.49 31.2293 20.4908C31.2258 20.4917 31.2243 20.4923 31.2242 20.4924C31.2238 20.4926 31.2409 20.4866 31.2589 20.4649C31.2813 20.4381 31.2846 20.4129 31.2852 20.4053C31.2852 20.4052 31.2852 20.4052 31.2852 20.4051M31.0936 20.2805C31.0947 20.2797 31.0958 20.279 31.0969 20.2783M31.0936 20.2805L31.0969 20.2783M31.2852 20.4051C31.2852 20.4052 31.2853 20.4052 31.2853 20.4053C31.2855 20.4064 31.2857 20.4073 31.2859 20.408C31.2858 20.4073 31.2857 20.4064 31.2856 20.4053L31.2854 20.4036C31.2854 20.4028 31.2854 20.4029 31.2853 20.4036C31.2853 20.404 31.2853 20.4045 31.2852 20.4051ZM32.4091 20.2971C35.9374 19.1019 38.1508 15.4553 37.6 11.7664C37.0396 8.01542 33.9082 5.23334 30.0691 5.06436L30.069 5.06435C26.4559 4.90674 23.0201 7.53228 22.1946 11.0774L22.1946 11.0775C21.3225 14.8304 23.2624 18.6459 26.8057 20.1519L26.8057 20.1519C26.9059 20.1945 27.0003 20.2258 27.0907 20.2557C27.2321 20.3026 27.3635 20.3461 27.4913 20.4244C27.4111 20.4234 27.3321 20.4223 27.2541 20.4212C26.7223 20.4139 26.2402 20.4072 25.766 20.4337L32.4091 20.2971ZM32.4091 20.2971C32.4093 20.297 32.4095 20.2969 32.4096 20.2969L32.3289 20.0603L32.4091 20.2971ZM28.5893 20.3409C28.5896 20.341 28.5898 20.3411 28.5901 20.3412C28.5917 20.342 28.5912 20.3415 28.5883 20.3408C28.5882 20.3408 28.5881 20.3408 28.588 20.3408C28.5871 20.3408 28.5859 20.3408 28.5843 20.3409C28.5836 20.341 28.5828 20.3411 28.582 20.3412L28.5789 20.3363C28.578 20.335 28.5773 20.334 28.5767 20.3333C28.5761 20.3324 28.5756 20.3318 28.5754 20.3316C28.5752 20.3313 28.5751 20.3313 28.5752 20.3314C28.5757 20.3319 28.5778 20.3339 28.5813 20.3363C28.5844 20.3384 28.5872 20.3399 28.5892 20.3409M28.5893 20.3409C28.5895 20.3409 28.5896 20.3409 28.5896 20.3409C28.5896 20.3409 28.5895 20.3409 28.5892 20.3409M28.5893 20.3409C28.5892 20.3409 28.5889 20.3409 28.5885 20.3408C28.5888 20.3408 28.589 20.3408 28.5892 20.3409M28.5893 20.3409C28.5893 20.3409 28.5893 20.3409 28.5892 20.3409M31.0969 20.2783C31.1007 20.2767 31.1057 20.2747 31.1121 20.2719C31.1193 20.2688 31.1254 20.266 31.1321 20.263C31.1395 20.2596 31.1477 20.2559 31.1588 20.2509C31.2108 20.236 31.2733 20.2325 31.3338 20.2305C31.342 20.2302 31.3502 20.23 31.3583 20.2297L31.0969 20.2783ZM54.5504 35.5332C54.5286 34.3929 54.1685 33.4341 53.5152 32.7542C52.8608 32.0731 51.9341 31.6947 50.8245 31.6765L50.8245 31.6765C49.4036 31.6534 47.9734 31.6325 46.5464 31.6858L46.5461 31.6858C46.1564 31.701 45.8767 31.645 45.6575 31.5178C45.4395 31.3913 45.2512 31.1768 45.078 30.8166C44.719 30.0675 44.322 29.3359 43.9288 28.6112C43.8647 28.4931 43.8007 28.3752 43.737 28.2574C43.2809 27.414 42.8378 26.5754 42.4629 25.7094L42.4629 25.7093C41.7667 24.1027 40.7843 22.9364 39.5539 22.1134C38.3263 21.2923 36.8649 20.8214 35.2216 20.5836L35.1858 20.831L50.855 39.3133L50.8596 39.5633C51.9922 39.5426 52.933 39.1286 53.5835 38.4094C54.2325 37.692 54.5733 36.6924 54.5504 35.5332ZM54.5504 35.5332L54.3004 35.538L54.5504 35.533C54.5504 35.5331 54.5504 35.5331 54.5504 35.5332ZM38.5644 35.8226C38.6121 35.8905 38.6588 35.9571 38.7049 36.0228C39.0638 36.5342 39.3788 36.9831 39.7002 37.4269L39.9027 37.2803L39.7002 37.4269C40.6473 38.7345 41.9277 39.5367 43.5894 39.5587C43.5893 39.5587 43.5892 39.5587 43.5891 39.5587L38.5644 35.8226ZM38.5644 35.8226C38.563 36.0387 38.5612 36.2498 38.5594 36.457C38.5508 37.4489 38.5431 38.3485 38.5809 39.2495C38.6151 40.0405 39.0985 40.5964 39.828 41.0563C42.3305 42.6284 44.8213 44.2166 47.3051 45.8186C49.3782 47.1555 50.1428 49.4617 49.301 51.7348C48.9552 52.6687 48.4114 53.4199 47.6826 53.9381C46.9533 54.4567 46.0534 54.7316 45.0131 54.7364H45.013C38.3251 54.7641 31.6385 54.7803 24.9493 54.7295C23.4337 54.7187 22.1916 54.2193 21.3368 53.3334C20.4824 52.4478 20.0384 51.2004 20.072 49.7384L20.072 49.7383C20.1057 48.2973 20.6192 47.0802 21.5117 46.2223C22.4038 45.3649 23.6554 44.8847 25.1327 44.881C27.7132 44.873 30.2952 44.875 32.8761 44.877C34.0232 44.8779 35.1701 44.8787 36.3166 44.8787C36.3625 44.8787 36.4044 44.8793 36.4443 44.8799C36.5164 44.8808 36.5818 44.8817 36.6523 44.8789C36.6525 44.8789 36.6526 44.8789 36.6527 44.8789L36.6627 45.1287L38.5644 35.8226ZM36.302 38.5658C36.3115 39.5556 36.5205 40.4329 36.958 41.1974C37.3956 41.9621 38.0533 42.5993 38.9379 43.1217L38.9381 43.1218C40.9897 44.331 42.9853 45.6318 44.9863 46.9361C45.3968 47.2036 45.8075 47.4713 46.2189 47.7384L46.219 47.7385C46.769 48.0951 47.1249 48.5448 47.302 49.051C47.4796 49.5583 47.4841 50.1409 47.299 50.7722L47.299 50.7723C47.1205 51.3813 46.8343 51.8059 46.4367 52.0822C46.0365 52.3604 45.4954 52.508 44.7719 52.508H44.7719C43.5694 52.5084 42.367 52.509 41.1644 52.5095C35.7571 52.5121 30.3491 52.5147 24.9426 52.5033C24.0734 52.5012 23.4142 52.2478 22.9713 51.8169C22.5289 51.3866 22.2734 50.751 22.2658 49.9265C22.2582 49.0812 22.5133 48.3987 22.9586 47.9171C23.4035 47.4359 24.0585 47.1337 24.8916 47.086L24.8924 47.086C25.1541 47.0702 25.4111 47.0734 25.679 47.0767C25.7932 47.0781 25.9094 47.0795 26.0289 47.0795C26.9135 47.0795 27.7981 47.0794 28.6827 47.0792C31.3333 47.0788 33.9836 47.0783 36.6341 47.0818C36.6343 47.0818 36.6345 47.0818 36.6347 47.0818L36.635 46.8318L19.7597 25.9184C20.5753 24.2496 21.8734 23.311 23.6316 22.9948C27.643 22.2735 31.6718 22.3346 35.7019 22.9497C37.8645 23.282 39.4218 24.3457 40.3462 26.405L40.3462 26.4051C40.7738 27.3558 41.2647 28.2763 41.7548 29.1879C41.7814 29.2373 41.808 29.2867 41.8345 29.3361C42.299 30.1997 42.7598 31.0563 43.17 31.9352C43.4977 32.6389 43.9182 33.1512 44.4669 33.472C45.015 33.7925 45.664 33.9063 46.42 33.8629M36.302 38.5658L36.5519 38.5633L36.302 38.5659C36.302 38.5659 36.302 38.5658 36.302 38.5658ZM36.302 38.5658C36.2884 37.2612 36.2896 35.9553 36.2908 34.651C36.2914 33.9562 36.292 33.2619 36.2904 32.5685L36.5404 32.568L36.2904 32.5691C36.2892 32.3014 36.3043 31.9987 36.4178 31.735C36.539 31.4532 36.7644 31.2336 37.1338 31.1276L37.1343 31.1275C37.3223 31.074 37.4972 31.0663 37.6597 31.1026C37.8219 31.1389 37.9568 31.2155 38.0702 31.3087C38.2564 31.4617 38.4039 31.6795 38.5252 31.8586C38.5436 31.8857 38.5614 31.9119 38.5786 31.9369L38.5788 31.9372C38.8939 32.396 39.213 32.8546 39.5326 33.314C40.1128 34.1477 40.6946 34.9839 41.2576 35.8285L41.2577 35.8286C41.6109 36.3589 42.0082 36.7434 42.4702 36.992C42.9315 37.2403 43.4728 37.3616 44.1275 37.3419C45.4692 37.3016 46.8182 37.3115 48.1615 37.3213C48.9734 37.3272 49.7832 37.3331 50.588 37.328C51.2532 37.3236 51.6801 37.1748 51.944 36.9201C52.2061 36.6672 52.3545 36.2643 52.3589 35.6424C52.3632 35.005 52.2065 34.5725 51.9297 34.2959C51.6521 34.0185 51.2108 33.855 50.5529 33.8495C50.2174 33.8467 49.8829 33.8415 49.5494 33.8363C48.4989 33.82 47.4575 33.8039 46.42 33.8629M46.42 33.8629L46.4058 33.6133L46.4201 33.8629C46.4201 33.8629 46.42 33.8629 46.42 33.8629ZM13.8433 33.8495L13.8428 33.8495C12.309 33.8264 10.7745 33.8333 9.23841 33.8495C8.62558 33.856 8.19728 34.0189 7.91867 34.2923C7.64037 34.5654 7.47481 34.9847 7.46188 35.5803L7.46188 35.5803C7.44901 36.1689 7.60245 36.5936 7.87415 36.8724C8.14593 37.1513 8.57232 37.3214 9.18221 37.3257C10.0983 37.3323 11.0199 37.3275 11.9432 37.3228C13.2528 37.316 14.5656 37.3092 15.8707 37.3349L15.8709 37.3349C16.4561 37.3469 16.9463 37.2331 17.3664 37.0082C17.7872 36.783 18.1513 36.439 18.4728 35.971L18.4729 35.9709C19.0133 35.1849 19.5566 34.399 20.0997 33.6133C20.4955 33.0406 20.8913 32.4681 21.2859 31.8957C21.2949 31.8825 21.304 31.8692 21.3133 31.8556C21.4442 31.6642 21.6057 31.4281 21.8161 31.2701C21.9345 31.1812 22.0742 31.1117 22.2392 31.0849C22.4042 31.0581 22.5792 31.0766 22.7647 31.141L22.7652 31.1412C23.1235 31.2664 23.3333 31.4963 23.4424 31.7794C23.5445 32.0443 23.5535 32.3444 23.5512 32.6088M13.8433 33.8495L12.1514 39.5716C13.3633 39.5659 14.5719 39.5602 15.7903 39.5795H15.7904C17.6823 39.6085 19.1385 38.8354 20.2183 37.3266C20.539 36.8785 20.8534 36.4265 21.2326 35.8814C21.2597 35.8425 21.287 35.8032 21.3147 35.7633C21.3143 35.9385 21.3138 36.1091 21.3134 36.2759C21.3109 37.1117 21.3088 37.8512 21.3181 38.5896C21.3257 39.1858 21.2044 39.68 20.9616 40.1004C20.7183 40.5218 20.3437 40.8852 19.8202 41.2045L19.8202 41.2046C17.3295 42.7248 14.8696 44.3001 12.425 45.8883C10.5434 47.1103 9.81092 49.2647 10.4499 51.4167C10.7577 52.4548 11.3163 53.2817 12.0946 53.8524C12.8722 54.4225 13.8531 54.7253 14.9872 54.7433C16.1433 54.7618 17.2967 54.7526 18.4488 54.7434L18.4524 54.7433L18.4531 54.7433C18.5061 54.7428 18.5656 54.7431 18.6279 54.7434C18.7363 54.7439 18.8533 54.7445 18.9601 54.7407C19.1351 54.7344 19.3243 54.7161 19.4995 54.6589C19.6787 54.6004 19.8515 54.4983 19.9782 54.3217C20.1038 54.1466 20.1667 53.9228 20.1726 53.6519L20.1727 53.6513C20.1779 53.3824 20.1267 53.1568 20.0122 52.9764C19.8961 52.7936 19.7309 52.6822 19.5543 52.6153C19.382 52.55 19.1937 52.5252 19.017 52.5148C18.8756 52.5065 18.7282 52.5071 18.593 52.5077C18.5601 52.5078 18.5278 52.508 18.4966 52.508C18.1013 52.508 17.7054 52.5068 17.3092 52.5057C16.436 52.5032 15.5612 52.5007 14.6886 52.5103C13.8919 52.5185 13.3322 52.1416 12.8996 51.4811C12.0234 50.1413 12.3698 48.5416 13.7811 47.6328L13.7813 47.6327C14.2014 47.3617 14.6208 47.0902 15.04 46.8188C17.0047 45.5468 18.9648 44.2777 20.9692 43.0819C21.8534 42.5547 22.4986 41.9062 22.9222 41.1321C23.3454 40.3589 23.5395 39.475 23.5442 38.4884L23.5442 38.4884C23.5487 37.5487 23.5478 36.6164 23.547 35.6848C23.546 34.6614 23.5451 33.639 23.5512 32.6088M13.8433 33.8495C14.4129 33.8568 14.9137 33.7476 15.3436 33.493M13.8433 33.8495L15.3436 33.493M23.5512 32.6088C23.5512 32.6088 23.5512 32.6087 23.5512 32.6087L23.3012 32.6072L23.5512 32.6094C23.5512 32.6092 23.5512 32.609 23.5512 32.6088ZM9.23608 31.6741L9.23633 31.6741C9.51558 31.6721 9.79574 31.669 10.0765 31.6658C11.1026 31.6543 12.1373 31.6426 13.1676 31.6882L13.1678 31.6882C13.5768 31.7067 13.8751 31.6512 14.1105 31.5179C14.344 31.3857 14.5458 31.1596 14.7288 30.7777L14.7289 30.7774C15.0794 30.0475 15.4739 29.3369 15.864 28.6342C15.9304 28.5147 15.9966 28.3955 16.0624 28.2764C16.5173 27.4537 16.9565 26.6363 17.3155 25.7875L17.3156 25.7874C18.1151 23.8985 19.282 22.6056 20.7322 21.7621C22.1779 20.9214 23.8889 20.5366 25.7657 20.4337L9.23608 31.6741ZM9.23608 31.6741C8.03936 31.6837 7.05312 32.0426 6.36192 32.7203M9.23608 31.6741L6.36192 32.7203M17.7839 29.6925C17.3071 30.5733 16.8316 31.4516 16.379 32.3313L17.7839 29.6925ZM17.7839 29.6925C18.4602 28.4433 19.1392 27.1891 19.7596 25.9185L17.7839 29.6925ZM15.3436 33.493C15.7738 33.2382 16.113 32.8496 16.3789 32.3316L15.3436 33.493ZM6.36192 32.7203C5.67024 33.3985 5.30218 34.3683 5.28888 35.5442L6.36192 32.7203ZM28.5751 20.4328C28.5747 20.4338 28.5743 20.4348 28.574 20.4357L28.5722 20.4259L28.5709 20.4183L28.5597 20.3546L28.5588 20.3495C28.5678 20.3445 28.5753 20.3423 28.5807 20.3414C28.5808 20.3418 28.5809 20.3423 28.5811 20.3427C28.5816 20.3447 28.5822 20.347 28.5828 20.3496C28.5835 20.3528 28.5841 20.3564 28.5846 20.3605C28.585 20.3646 28.5854 20.3692 28.5855 20.3741C28.5858 20.3918 28.5829 20.4121 28.5751 20.4328ZM6.31589 38.4754C7.00505 39.1841 8.00238 39.5629 9.21983 39.5726L5.28888 35.5444C5.27447 36.7584 5.62701 37.7671 6.31589 38.4754ZM35.4781 12.9047L35.4781 12.9048C35.4869 16.0091 32.8671 18.5947 29.7544 18.5549C26.6632 18.5151 24.2027 15.9873 24.2204 12.8617C24.2381 9.73948 26.7213 7.28604 29.852 7.29488C32.9461 7.30372 35.4715 9.82156 35.4781 12.9047Z" fill="#5094FA" stroke="#5094FA" stroke-width="0.5"/>
<path d="M31.3596 20.4454C31.2442 20.4593 31.055 20.637 31.0342 20.4293C31.0135 20.2101 31.2673 20.2377 31.4335 20.2285C31.4104 20.3001 31.385 20.3739 31.3596 20.4454Z" fill="#5094FA"/>
<path d="M28.5396 20.2402C28.5927 20.2841 28.715 20.3325 28.7381 20.411C28.775 20.5379 28.6642 20.6095 28.5419 20.5864C28.4773 20.5748 28.3989 20.5218 28.3642 20.4641C28.2881 20.3349 28.3666 20.2679 28.5396 20.2402Z" fill="#5094FA"/>
</svg>
