<svg width="28" height="28" viewBox="0 0 28 28" fill="none" xmlns="http://www.w3.org/2000/svg">
<path d="M10.5 22.167C10.5 24.1 8.93299 25.667 7 25.667C5.06701 25.667 3.5 24.1 3.5 22.167C3.5 20.2339 5.06701 18.667 7 18.667C8.93299 18.667 10.5 20.2339 10.5 22.167Z" stroke="white"/>
<path d="M24.5 19.833C24.5 21.7661 22.933 23.333 21 23.333C19.0669 23.333 17.5 21.7661 17.5 19.833C17.5 17.9 19.0669 16.333 21 16.333C22.933 16.333 24.5 17.9 24.5 19.833Z" stroke="white"/>
<path d="M10.5 22.1663V9.33301" stroke="white"/>
<path d="M24.5 19.8333V7" stroke="white"/>
<path d="M18.3576 4.3806L13.6909 5.93615C12.1509 6.4495 11.3809 6.70617 10.9404 7.31725C10.5 7.92831 10.5 8.73999 10.5 10.3633V13.9998L24.5 9.33313V8.80778C24.5 5.85324 24.5 4.37598 23.531 3.67756C22.5619 2.97914 21.1605 3.4463 18.3576 4.3806Z" stroke="white" stroke-linecap="round"/>
</svg>
