<svg width="253" height="199" viewBox="0 0 253 199" fill="none" xmlns="http://www.w3.org/2000/svg">
<path d="M55.6308 85.5466L62.8043 81.405C62.0543 78.5853 60.9321 75.9187 59.4976 73.4555L51.5092 75.5962L45.5229 69.6099L47.6565 61.6464C45.1869 60.2168 42.5154 59.0988 39.6898 58.3564L35.5725 65.4883H27.1068L23.0101 58.3927C20.1828 59.1481 17.5097 60.2763 15.0423 61.7194L17.1564 69.6099L11.1696 75.5962L3.3078 73.4896C1.87061 75.9647 0.74673 78.6437 0 81.4775L7.0474 85.5466V94.0128L0.00216428 98.0803C0.749435 100.914 1.87386 103.593 3.31267 106.068L11.169 103.963L17.1553 109.949L15.0439 117.831C17.5124 119.275 20.1866 120.404 23.0144 121.159L27.1063 114.071H35.5725L39.6849 121.194C42.5117 120.452 45.1842 119.334 47.6544 117.904L45.5229 109.95L51.5092 103.963L59.4927 106.102C60.9283 103.639 62.0511 100.973 62.8022 98.1528L55.6308 94.0123V85.5466ZM31.4027 107.338C21.7033 107.338 13.841 99.4748 13.841 89.7759C13.841 80.0771 21.7039 72.2142 31.4027 72.2142C41.1021 72.2142 48.9644 80.0771 48.9644 89.7759C48.9644 99.4748 41.1015 107.338 31.4027 107.338Z" fill="#F5F5F5"/>
<path d="M140.336 198.285C202.53 198.285 252.948 191.877 252.948 183.972C252.948 176.067 202.53 169.658 140.336 169.658C78.1429 169.658 27.7251 176.067 27.7251 183.972C27.7251 191.877 78.1429 198.285 140.336 198.285Z" fill="#F5F5F5"/>
<path d="M55.4434 89.7752V81.7052C55.4434 77.9996 58.9909 74.9959 63.3668 74.9959H145.469L151.198 64.9697C151.908 63.7279 153.394 62.939 155.023 62.939H174.291C176.638 62.939 178.54 64.5498 178.54 66.5363V170.938C178.449 171.931 178.037 174.992 175.545 177.587C172.09 181.185 167.439 180.972 166.742 180.928H55.4434V89.7752Z" fill="#E8A600"/>
<path d="M147.474 85.2345L135.555 72.6413L134.012 79.7319L121.397 66.8541L118.692 73.4702L109.327 61.9203L101.284 66.3547L94.2974 54.2885L86.6618 60.3776L76.667 49.1696C84.3513 32.3238 93.5398 19.6775 100.74 11.1421C125.653 21.3252 150.566 31.5083 175.479 41.692C168.222 54.197 160.689 68.8697 153.725 85.65L147.474 85.2345Z" fill="#F5F5F5"/>
<path d="M94.8814 56.8894L101.868 68.9556L109.911 64.5212L119.276 76.0712L121.981 69.4551L134.595 82.3329L136.139 75.2422L148.057 87.8355L154.308 88.2505C154.214 88.475 154.12 88.6958 154.027 88.9215C146.595 106.93 141.328 123.72 137.543 138.528L62.8044 107.978C63.7514 95.4342 66.5695 77.1161 75.1109 56.6638C75.8084 54.9939 76.5232 53.3647 77.2504 51.77L87.2458 62.978L94.8814 56.8894Z" fill="#F5F5F5"/>
<path d="M153.724 85.6487L147.474 85.2342L135.555 72.6404L134.011 79.7311L121.397 66.8533L118.692 73.4694L109.327 61.9194" stroke="#262626" stroke-width="0.274" stroke-miterlimit="10" stroke-linecap="round" stroke-linejoin="round"/>
<path d="M154.308 88.2502L148.058 87.8352L136.139 75.242L134.595 82.3327L121.981 69.4543L119.277 76.071L109.912 64.521" stroke="#262626" stroke-width="0.274" stroke-miterlimit="10" stroke-linecap="round" stroke-linejoin="round"/>
<path d="M25.9435 25.3911C23.9744 25.8056 22.7147 27.7379 23.1292 29.707C27.7026 42.9679 32.1246 58.1157 35.7414 74.9848C39.5984 92.9729 41.8229 109.574 43.0474 124.293C43.0977 124.531 43.3872 125.789 44.622 126.594C45.4028 127.103 46.3785 127.315 47.3627 127.108L116.248 112.602C118.217 112.187 119.477 110.255 119.062 108.286C118.19 94.6124 116.179 78.732 112.069 61.364C109.262 49.5018 105.91 38.7792 102.425 29.2806C94.4598 24.2932 86.4936 19.3053 78.5279 14.3179L25.9435 25.3911Z" fill="#F5F5F5"/>
<path d="M84.8909 32.9731L102.426 29.2806L78.5286 14.3179L82.0696 31.1334C82.3401 32.4201 83.6036 33.2442 84.8909 32.9731Z" fill="#D6D6D6"/>
<path d="M78.5278 14.3179L82.0689 31.1334C82.3399 32.4207 83.6034 33.2448 84.8907 32.9737L102.426 29.2812" stroke="#262626" stroke-width="0.274" stroke-miterlimit="10" stroke-linecap="round" stroke-linejoin="round"/>
<path d="M71.4197 80.0215C70.9122 77.612 70.6876 75.6326 70.7455 74.085C70.8034 72.5374 71.2342 71.0391 72.0382 69.59C72.496 68.7259 73.0571 67.9467 73.7216 67.2519C74.3856 66.5582 74.9819 65.8456 75.5111 65.1156C76.0392 64.3867 76.4504 63.6059 76.7459 62.7758C77.0402 61.9458 77.0635 60.9393 76.8135 59.7543C76.392 57.7538 75.5462 56.4703 74.2757 55.9059C73.0052 55.3416 71.6135 55.2187 70.1032 55.5369C67.9377 55.993 66.5741 56.9102 66.0114 58.2863C65.4475 59.6634 65.2793 61.3949 65.5054 63.4798L57.6025 65.1443C57.181 63.1433 57.1247 61.257 57.4343 59.4854C57.7432 57.7143 58.3801 56.1299 59.3444 54.7323C60.3081 53.3357 61.5732 52.1517 63.1397 51.1815C64.7046 50.2118 66.5092 49.5122 68.5519 49.082C72.963 48.1529 76.6339 48.319 79.5656 49.5782C82.4962 50.8384 84.388 53.4893 85.2397 57.533C85.5151 58.8409 85.6228 60.0119 85.5643 61.0481C85.5048 62.0843 85.2932 63.0567 84.9307 63.9647C84.5671 64.8732 84.0703 65.7563 83.441 66.6139C82.8106 67.4721 82.0834 68.3714 81.2582 69.313C80.5055 70.1971 79.9162 70.9931 79.4893 71.7009C79.0629 72.4097 78.7745 73.1213 78.6268 73.8339C78.4785 74.5482 78.4385 75.2711 78.5077 76.0027C78.5759 76.7354 78.7058 77.5508 78.8952 78.4485L71.4197 80.0215ZM73.6648 91.8978L71.9744 83.8721L80.2452 82.1302L81.9357 90.1559L73.6648 91.8978Z" fill="#D6D6D6"/>
<path d="M25.9435 25.3911C23.9744 25.8056 22.7147 27.7379 23.1292 29.707C27.7026 42.9679 32.1246 58.1158 35.7414 74.9848C39.5984 92.9729 41.8229 109.574 43.0474 124.293C43.0977 124.531 43.3872 125.789 44.622 126.594C45.4028 127.103 46.3785 127.315 47.3627 127.108L116.248 112.602C118.217 112.187 119.477 110.255 119.062 108.286C118.19 94.6124 116.179 78.732 112.069 61.364C109.262 49.5018 105.91 38.7792 102.425 29.2806C94.4598 24.2932 86.4936 19.3053 78.5279 14.3179L25.9435 25.3911Z" stroke="#262626" stroke-width="0.274" stroke-miterlimit="10" stroke-linecap="round" stroke-linejoin="round"/>
<path d="M32.8839 89.7754H153.782C156.939 89.7754 159.945 92.3343 160.496 95.4917L174.414 175.213C174.965 178.37 172.853 180.929 169.696 180.929H48.7979C45.6411 180.929 42.6352 178.37 42.0838 175.213L28.166 95.4917C27.6151 92.3348 29.7271 89.7754 32.8839 89.7754Z" fill="#FFC001"/>
<path d="M179.392 34.2791L184.514 32.6411L192.716 34.9982L192.505 36.1773H186.981L183.735 39.4158L180.909 39.978L179.392 34.2791Z" fill="#F7A99C"/>
<path d="M183.921 33.7991C185.323 33.0226 188.883 31.3149 193.103 32.145C194.399 32.3998 196.776 32.8673 198.272 34.8749C199.075 35.9517 199.297 37.0306 199.472 37.9354C199.975 40.5376 199.113 41.5759 199.099 45.9178C199.094 47.5428 199.213 48.171 199.595 48.7716C200.337 49.9339 201.27 49.7364 202.863 50.8397C203.085 50.9934 205.333 52.5924 206.254 55.3066C206.913 57.2497 206.226 57.7995 206.998 58.8633C208.191 60.5061 210.265 59.7967 211.3 61.1792C212.504 62.789 211.143 65.6883 210.968 66.0595C207.666 73.0966 186.834 76.4834 177.84 67.383C177.527 67.066 172.365 61.7366 173.87 58.0359C174.737 55.905 177.509 55.0642 177.51 52.5767C177.51 51.4983 176.988 51.4404 176.724 49.599C176.535 48.2852 176.28 46.5141 177.179 45.091C178.225 43.4347 179.947 43.6538 180.248 42.3211C180.483 41.2762 179.52 40.7172 179.336 39.6031C179.138 38.3969 179.855 36.5599 183.921 33.7991Z" fill="#262626"/>
<path d="M197.88 34.688C199.033 35.8092 200.383 37.5109 200.671 39.7544C201.077 42.8988 199.043 44.3452 199.927 46.5615C200.739 48.5961 202.668 47.9159 205.221 50.7973C206.016 51.695 207.757 53.6603 208.116 56.4633C208.415 58.8057 207.554 60.2088 208.529 61.0957C208.529 61.0957 208.837 61.376 211.658 61.9036" stroke="#262626" stroke-width="0.5" stroke-miterlimit="10" stroke-linecap="round" stroke-linejoin="round"/>
<path d="M179.121 43.5142C177.743 44.1283 175.983 45.1943 175.443 46.9919C174.794 49.152 176.56 50.1936 176.187 52.6578C175.698 55.9028 172.013 56.1501 172.093 59.1922C172.134 60.7636 172.657 62.0953 174.409 64.4037C175.856 66.31 177.489 67.1931 177.842 67.3814C178.441 67.7023 178.977 67.91 179.372 68.0432" stroke="#262626" stroke-width="0.5" stroke-miterlimit="10" stroke-linecap="round" stroke-linejoin="round"/>
<path d="M179.121 33.2612C166.039 33.3224 156.466 38.8585 155.673 44.8253C154.877 50.817 162.914 57.4017 166.261 60.1446C169.831 63.0698 173.263 64.8409 175.648 65.8879L185.754 55.1383L169.818 46.6742L181.321 41.5294L179.121 33.2612Z" fill="#FF7129"/>
<path d="M192.997 55.1384C191.918 55.1384 190.84 55.1384 189.761 55.1384C188.425 55.1384 187.09 55.1384 185.754 55.1384C183.755 56.3207 180.874 58.3921 178.562 61.807C175.885 65.7609 175.179 69.7305 174.689 75.0512C174.146 80.9541 173.913 89.5367 174.812 99.7257L211.222 99.4319C211.222 93.1426 211.222 86.8533 211.222 80.5645C211.044 75.8033 210.483 71.8879 209.953 69.034C209.096 64.4222 208.394 62.9866 207.636 61.8622C205.483 58.6718 202.406 57.2974 201.015 56.6762C197.762 55.2239 194.783 55.0745 192.997 55.1384Z" fill="#FFC001"/>
<path d="M189.375 58.0729C191.412 58.0804 193.069 56.4365 193.076 54.4004L193.106 46.4666L185.733 46.4385L185.702 54.3722C185.695 56.4079 187.339 58.0647 189.375 58.0729Z" fill="#F7A99C"/>
<path d="M185.711 52.151L190.513 49.6841C190.465 50.0997 190.192 52.0476 188.479 53.3928C187.385 54.2516 186.236 54.448 185.705 54.5037L185.711 52.151Z" fill="#FF7769"/>
<path d="M193.286 44.008C193.309 43.8885 193.625 43.7072 193.722 43.645C193.886 43.54 194.063 43.4567 194.248 43.3971C194.608 43.2813 195.003 43.2543 195.373 43.3392C196.108 43.5075 196.76 44.1255 196.882 44.8819C196.953 45.3213 196.852 45.7758 196.664 46.1795C196.381 46.7861 195.9 47.2958 195.321 47.6297C194.84 47.9067 194.293 48.0631 193.74 48.0961C193.629 48.1026 192.496 48.0766 192.505 48.0328C192.764 46.6909 193.025 45.3494 193.286 44.008Z" fill="#F7A99C"/>
<path d="M194.296 44.0844C194.209 44.6763 193.689 47.7985 190.874 50.0046C190.356 50.411 186.909 53.1128 183.756 51.7941C179.704 50.0999 180.146 43.4442 180.174 43.0839C180.271 41.8653 180.555 38.2761 183.528 36.3611C185.954 34.7984 188.582 35.3731 188.955 35.4607C189.347 35.5533 191.849 36.1842 193.381 38.6381C194.771 40.8648 194.439 43.1158 194.296 44.0844Z" fill="#F7A99C"/>
<path d="M182.474 43.0889C182.409 43.6084 182.009 43.9861 181.579 43.932C181.15 43.8778 180.855 43.413 180.921 42.8936C180.986 42.3741 181.387 41.9964 181.816 42.05C182.245 42.1046 182.54 42.5694 182.474 43.0889Z" fill="#262626"/>
<path d="M187.156 43.6773C187.091 44.1968 186.69 44.5745 186.261 44.5204C185.832 44.4663 185.537 44.0015 185.603 43.482C185.668 42.9625 186.069 42.5848 186.498 42.6389C186.927 42.6931 187.222 43.1579 187.156 43.6773Z" fill="#262626"/>
<path d="M183.888 43.8667L183.17 44.8364C183.038 45.0144 183.088 45.2676 183.277 45.3829L183.936 45.7844" stroke="#262626" stroke-width="0.7131" stroke-miterlimit="10" stroke-linecap="round" stroke-linejoin="round"/>
<path d="M188.727 46.1249C188.654 46.7076 188.122 47.121 187.539 47.048C186.956 46.9749 186.543 46.443 186.616 45.8597C186.689 45.277 187.221 44.8635 187.804 44.9366C188.387 45.0096 188.8 45.5421 188.727 46.1249Z" fill="#FF7769"/>
<path d="M193.78 46.6742C193.777 46.5573 193.767 45.7657 194.402 45.1943C194.9 44.7468 195.479 44.7175 195.636 44.7148" stroke="#262626" stroke-width="0.7131" stroke-miterlimit="10" stroke-linecap="round" stroke-linejoin="round"/>
<path d="M194.341 45.3509C194.376 45.3455 194.802 45.2865 195.099 45.6079C195.344 45.8725 195.322 46.1999 195.317 46.2546" stroke="#262626" stroke-width="0.7131" stroke-miterlimit="10" stroke-linecap="round" stroke-linejoin="round"/>
<path d="M180.726 44.4416C180.525 44.4162 180.331 44.4525 180.158 44.5304C180.179 45.1018 180.233 45.7944 180.359 46.5292C180.393 46.5368 180.426 46.5482 180.461 46.5525C181.045 46.6256 181.576 46.2127 181.65 45.6294C181.723 45.0466 181.31 44.5147 180.726 44.4416Z" fill="#FF7769"/>
<path d="M179.443 38.6345C179.302 39.0825 179.266 39.5777 179.434 40.0165C179.602 40.4543 179.975 40.8087 180.421 40.9537C180.99 41.1388 181.675 40.9916 182.028 40.4889C182.028 40.4889 182.199 40.8303 182.68 40.9385C183.158 41.0468 183.698 40.4943 183.703 40.4889C183.682 40.5111 184.14 40.8368 184.189 40.8514C184.334 40.8942 184.491 40.8666 184.631 40.8108C184.71 40.78 185.269 40.5462 185.27 40.4424C185.268 40.8114 186.023 40.6296 186.167 40.5306C186.257 40.4683 186.607 40.2129 186.607 40.0858C186.607 40.0858 186.588 40.7681 187.022 40.8455C187.456 40.9229 188.124 40.2562 188.124 40.2562C188.124 40.2562 188.403 40.9077 188.666 40.9229C188.93 40.9386 189.55 40.3953 189.55 40.3953C189.55 40.3953 189.613 40.4883 189.923 40.7676C190.233 41.0468 190.838 40.3953 190.838 40.3953L193.226 44.5521C193.226 44.5521 193.195 43.9742 193.552 43.7204C193.909 43.4666 194.389 43.3573 194.389 43.3573C194.514 43.2274 194.536 42.774 194.564 42.5981C194.61 42.3205 194.636 42.0397 194.639 41.7583C194.645 41.2491 194.578 40.7362 194.429 40.2492C194.135 39.2941 193.545 38.4549 192.88 37.7211C191.479 36.1768 189.632 34.9625 187.583 34.4966C186.869 34.3343 186.133 34.2586 185.401 34.2835C184.346 34.3197 183.372 34.6871 182.463 35.2185C181.145 35.989 179.924 37.1297 179.443 38.6345Z" fill="#262626"/>
<path d="M183.859 48.0966L186.237 47.53C186.093 46.8607 185.451 46.4332 184.831 46.5376C184.153 46.6513 183.673 47.3699 183.859 48.0966Z" fill="white"/>
<path d="M201.595 74.9358C195.979 83.7499 189.943 87.8916 185.514 90.0344C176.309 94.4882 159.399 97.3988 157.385 98.5265C156.671 98.9259 156.257 98.9756 155.43 99.0747C155.138 99.1098 154.666 99.1439 154.265 98.8696C154.155 98.7938 153.965 98.6634 153.91 98.4399C153.814 98.0525 154.164 97.5482 154.164 97.5482C154.08 97.6115 153.807 97.8025 153.417 97.7949C153.305 97.7928 152.91 97.769 152.642 97.4816C152.334 97.1499 152.3 96.5802 152.583 96.0872C152.044 96.5893 151.307 96.5856 150.952 96.2257C150.723 95.9936 150.6 95.5607 150.765 95.1873C150.881 94.9271 151.093 94.7945 151.182 94.7458C150.983 94.8015 150.443 94.9227 149.922 94.6516C149.774 94.5748 149.53 94.4482 149.418 94.1766C149.252 93.775 149.498 93.3584 149.544 93.2821C149.789 92.8698 150.206 92.7237 150.922 92.4932C152.396 92.0186 153.984 91.5635 153.984 91.5635L151.11 90.3964C150.732 90.0279 150.568 89.5176 150.716 89.1226C150.93 88.5528 151.804 88.1962 152.623 88.615C154.483 89.069 156.344 89.523 158.203 89.9765C158.203 89.9765 160.04 90.3563 161.577 90.1052C163.113 89.8542 174.509 83.3381 176.761 81.6115C179.013 79.8848 188.747 70.752 188.747 70.752L201.595 74.9358Z" fill="#F7A99C"/>
<path d="M177.293 99.7255C177.293 99.7255 167.859 131.098 167.308 135.622C166.756 140.146 171.004 175.564 171.004 175.564H183.968L190.809 140.477C190.809 140.477 191.692 146.766 195.885 151.179C200.078 155.593 215.414 170.82 215.414 170.82L225.124 161.331L213.428 139.926C212.766 135.377 212.418 131.527 212.22 128.635C211.908 124.068 211.753 121.784 211.984 119.08C212.455 113.589 213.684 112.644 213.585 108.907C213.524 106.62 212.968 103.358 210.623 99.4316C199.513 99.5296 188.403 99.6275 177.293 99.7255Z" fill="#2390E2"/>
<path d="M183.012 175.564V188.731H161.901L162.453 184.943C162.453 184.943 169.073 181.228 170.103 180.382C171.133 179.536 172.236 177.881 172.457 177.366C172.678 176.851 172.457 175.563 172.457 175.563L183.012 175.564Z" fill="#F7A99C"/>
<path d="M184.079 180.529C183.821 180.458 183.432 180.392 183.012 180.511C181.933 180.818 181.649 182.068 181.183 182.736L169.073 182.874C169.099 182.26 169.124 181.646 169.149 181.033C168.519 180.828 167.889 180.623 167.258 180.419C165.938 181.892 164.653 182.747 163.683 183.264C162.193 184.057 160.261 184.684 159.474 186.028C159.092 186.679 159.073 187.341 159.071 187.464C159.065 187.805 159.057 188.284 159.4 188.602C159.656 188.839 159.983 188.873 160.136 188.878C167.951 188.829 175.767 188.78 183.582 188.731C183.857 188.731 184.079 188.509 184.079 188.235V180.529H184.079Z" fill="#FF7129"/>
<path d="M160.109 190.239H183.147C183.662 190.239 184.078 189.822 184.078 189.308V188.275H159.177V189.308C159.177 189.822 159.595 190.239 160.109 190.239Z" fill="#5D1113"/>
<path opacity="0.5" d="M180.014 91.7657L180.147 97.0599C181.7 96.2888 183.269 95.4955 184.851 94.679C186.415 93.8728 187.951 93.0649 189.462 92.257C189.462 90.8312 189.462 89.4048 189.462 87.979L180.014 91.7657Z" fill="#E5A300"/>
<path d="M224.91 161.541L234.101 170.969L218.985 185.706L216.736 182.609C216.736 182.609 218.883 175.327 219.03 174.003C219.177 172.678 218.811 170.723 218.61 170.2C218.409 169.677 217.352 168.909 217.352 168.909L224.91 161.541Z" fill="#F7A99C"/>
<path d="M229.14 164.351C228.905 164.48 228.581 164.704 228.363 165.083C227.804 166.056 228.474 167.15 228.606 167.953L220.032 176.505C219.621 176.048 219.211 175.591 218.801 175.134C218.206 175.428 217.612 175.721 217.019 176.014C217.101 177.991 216.778 179.499 216.445 180.546C215.932 182.155 214.986 183.953 215.36 185.464C215.542 186.197 215.99 186.685 216.074 186.774C216.308 187.022 216.636 187.37 217.105 187.358C217.453 187.35 217.711 187.146 217.824 187.042C223.386 181.552 228.947 176.061 234.509 170.569C234.706 170.378 234.71 170.064 234.519 169.867L229.14 164.351Z" fill="#FF7129"/>
<path d="M218.754 188.037L235.251 171.954C235.619 171.595 235.626 171.006 235.267 170.637L234.546 169.897L216.716 187.28L217.437 188.02C217.797 188.388 218.386 188.396 218.754 188.037Z" fill="#5D1113"/>
<path d="M150.82 90.0093C151.033 90.1543 151.309 90.3312 151.64 90.5174C152.231 90.8491 152.753 91.072 153.133 91.217C153.643 91.4113 154.302 91.6196 155.09 91.7657" stroke="#262626" stroke-width="0.5" stroke-miterlimit="10" stroke-linecap="round" stroke-linejoin="round"/>
<path d="M150.198 94.7571C150.198 94.7571 150.463 94.8994 151.182 94.7452C151.901 94.591 152.651 94.1743 152.651 94.1743" stroke="#262626" stroke-width="0.5" stroke-miterlimit="10" stroke-linecap="round" stroke-linejoin="round"/>
<path d="M151.754 96.4731C151.754 96.4731 152.033 96.4109 152.716 96.0965C153.399 95.7821 154.033 95.353 154.033 95.353" stroke="#262626" stroke-width="0.5" stroke-miterlimit="10" stroke-linecap="round" stroke-linejoin="round"/>
<path d="M153.708 97.7632C153.708 97.7632 154.285 97.5267 154.616 97.3325C154.946 97.1382 155.317 96.8027 155.317 96.8027" stroke="#262626" stroke-width="0.5" stroke-miterlimit="10" stroke-linecap="round" stroke-linejoin="round"/>
<path d="M188.522 117.861C188.522 117.861 181.739 143.752 181.326 150.452C180.912 157.152 179.093 175.564 179.093 175.564H183.969L190.81 140.477L188.522 117.861Z" fill="#1775AF"/>
<path d="M193.768 148.404C192.794 146.66 191.521 143.965 190.809 140.477C190.664 139.766 190.602 139.318 190.196 135.149C189.652 129.565 189.24 124.991 189.216 124.732C189.061 123.009 188.823 120.396 188.522 117.158C188.522 117.158 188.108 110.748 187.901 107.439" stroke="#262626" stroke-width="0.5" stroke-miterlimit="10" stroke-linecap="round" stroke-linejoin="round"/>
<path d="M202.418 99.4316C202.418 99.4316 204.031 130.558 204.776 134.281C205.52 138.003 207.414 146.192 210.623 150.411C213.833 154.629 221.102 165.253 221.102 165.253" stroke="#262626" stroke-width="0.5" stroke-miterlimit="10" stroke-linecap="round" stroke-linejoin="round"/>
<path d="M188.395 118.346C188.395 118.346 182.198 143.705 181.761 147.079C181.325 150.452 179.091 175.564 179.091 175.564" stroke="#262626" stroke-width="0.5" stroke-miterlimit="10" stroke-linecap="round" stroke-linejoin="round"/>
<path d="M224.91 161.541L217.352 168.909L218.247 169.69L226.096 162.758L224.91 161.541Z" fill="#FF7769"/>
<path d="M183.012 175.564H172.456L172.549 176.879H183.012V175.564Z" fill="#FF7769"/>
<path d="M185.754 55.1377C185.754 55.1377 181.659 70.2357 180.908 75.7777C180.158 81.3198 180.148 101.999 180.148 101.999H173.044C172.766 98.8733 171.353 81.9015 174.502 69.5745C176.049 63.5184 178.22 60.453 180.489 58.4076C182.444 56.6441 184.438 55.6696 185.754 55.1377Z" fill="#FF7129"/>
<path opacity="0.5" d="M172.735 97.7631C173.839 97.9103 175.293 97.9915 176.972 97.781C178.214 97.6257 179.283 97.3475 180.146 97.0597C180.169 95.7291 180.192 94.398 180.214 93.0674L172.487 96.0716L172.735 97.7631Z" fill="#ED5F20"/>
<path d="M216.553 103.902C214.257 86.5566 211.703 73.4206 209.977 67.134C209.299 64.6665 208.137 61.0233 204.918 58.4736C202.951 56.9152 200.755 56.1906 199.926 55.926C197.051 55.0061 194.54 55.0143 192.996 55.1382C192.996 55.1382 189.939 62.8825 189.886 65.8554C187.288 69.7394 183.374 74.5829 177.675 79.0866C171.41 84.0377 165.305 86.7487 161.049 88.2502L163.117 99.4317C163.117 99.4317 180.445 93.4795 189.513 89.0727C189.397 96.3068 189.3 102.413 189.3 102.413L216.553 103.902Z" fill="#FF7129"/>
<path opacity="0.5" d="M189.462 92.2565L189.513 89.0726C195.905 85.7854 199.58 81.8651 201.477 79.4793C204.098 76.185 206.08 72.3621 206.913 70.7534C208.037 68.5857 208.86 66.701 209.426 65.312C209.964 67.352 210.503 69.392 211.041 71.432C209.776 74.4064 207.289 79.2169 202.594 83.8217C197.663 88.6592 192.529 91.0796 189.462 92.2565Z" fill="#ED5F20"/>
<path d="M209.274 65.8882C209.274 65.8882 205.789 73.6131 202.624 78.1497C200.399 81.339 196.547 85.5126 189.513 89.0731C185.686 90.797 181.668 92.5069 177.46 94.1768C172.52 96.1372 167.729 97.8801 163.117 99.4315" stroke="#262626" stroke-width="0.5" stroke-miterlimit="10" stroke-linecap="round" stroke-linejoin="round"/>
<path d="M198.979 55.6528C198.217 55.6983 197.067 55.879 195.956 56.5873C194.626 57.4358 194.067 58.5835 193.227 60.144C192.506 61.4822 191.408 63.4383 189.886 65.8549C188.433 67.8364 182.337 75.9763 174.85 81.1813C171.756 83.3316 169.045 84.7304 169.045 84.7304C165.426 86.5967 161.05 88.2498 161.05 88.2498" stroke="#262626" stroke-width="0.5" stroke-miterlimit="10" stroke-linecap="round" stroke-linejoin="round"/>
<path d="M176.657 63.5483C176.657 63.5483 175.596 65.4839 174.924 68.0439C174.252 70.6033 173.708 73.2823 173.708 73.2823" stroke="#262626" stroke-width="0.5" stroke-miterlimit="10" stroke-linecap="round" stroke-linejoin="round"/>
<path d="M185.754 55.138L167.667 45.4976" stroke="#262626" stroke-width="0.5" stroke-miterlimit="10" stroke-linecap="round" stroke-linejoin="round"/>
<path d="M166.757 38.2241C165.497 38.3756 162.266 38.9481 159.892 41.6158C159.221 42.3695 158.105 43.6228 157.906 45.4977C157.533 49.0263 160.747 51.5408 161.05 51.7697" stroke="white" stroke-width="0.5" stroke-miterlimit="10" stroke-linecap="round" stroke-linejoin="round"/>
<path d="M210.101 78.0527L212.707 97.9087" stroke="#262626" stroke-width="0.5" stroke-miterlimit="10" stroke-linecap="round" stroke-linejoin="round"/>
<path d="M97.235 144.704C96.787 142.138 96.622 140.072 96.7399 138.507C96.8579 136.941 97.3681 135.506 98.2713 134.202C98.7869 133.419 99.4081 132.745 100.136 132.18C100.864 131.615 101.52 131.017 102.107 130.386C102.692 129.756 103.155 129.049 103.497 128.266C103.839 127.483 103.9 126.462 103.68 125.2C103.307 123.07 102.46 121.579 101.138 120.731C99.8156 119.883 98.3492 119.459 96.741 119.459C94.4353 119.459 92.9603 120.102 92.3147 121.384C91.6681 122.667 91.4268 124.396 91.5891 126.571H83.1749C82.8026 124.44 82.8123 122.505 83.2046 120.764C83.5964 119.025 84.328 117.546 85.3983 116.328C86.4681 115.111 87.849 114.176 89.5405 113.523C91.2304 112.871 93.1632 112.544 95.3384 112.544C100.035 112.544 103.91 113.502 106.962 115.415C110.014 117.329 111.916 120.438 112.668 124.744C112.911 126.136 112.982 127.353 112.882 128.397C112.781 129.441 112.522 130.386 112.106 131.234C111.688 132.082 111.131 132.876 110.434 133.615C109.736 134.355 108.934 135.116 108.027 135.899C107.2 136.638 106.548 137.323 106.07 137.953C105.593 138.584 105.262 139.248 105.081 139.943C104.898 140.639 104.829 141.368 104.875 142.128C104.92 142.89 105.028 143.749 105.195 144.705H97.235V144.704ZM99.1733 157.295L97.6809 148.749H106.487L107.98 157.295H99.1733Z" fill="#E8A600"/>
<path d="M12.8809 190.291C12.4383 188.626 13.4285 186.919 15.093 186.476L58.103 175.038L59.7058 181.064L16.6957 192.503C15.0313 192.946 13.3235 191.955 12.8809 190.291Z" fill="#4450E4"/>
<path opacity="0.5" d="M99.4898 174.854C102.246 163.388 95.1847 151.859 83.7183 149.103C72.2519 146.346 60.7224 153.408 57.9663 164.874C55.2103 176.34 62.2714 187.87 73.7378 190.626C85.2042 193.382 96.7338 186.321 99.4898 174.854Z" fill="#CDEBF5"/>
<path d="M78.7302 146.006C65.5542 146.006 54.8733 156.687 54.8733 169.863C54.8733 183.038 65.5542 193.72 78.7302 193.72C91.9062 193.72 102.587 183.039 102.587 169.863C102.587 156.687 91.9057 146.006 78.7302 146.006ZM78.7302 189.845C67.6938 189.845 58.7471 180.899 58.7471 169.862C58.7471 158.826 67.6938 149.879 78.7302 149.879C89.7667 149.879 98.7134 158.826 98.7134 169.862C98.7128 180.899 89.7661 189.845 78.7302 189.845Z" fill="#4450E4"/>
<path d="M82.9495 183.957C82.6973 183.731 82.5301 183.41 82.5079 183.046C82.463 182.313 83.0209 181.682 83.7546 181.637C85.0874 181.555 86.4039 181.184 87.5624 180.562C88.8573 179.868 89.7019 179.008 90.0905 178.557C90.5509 178.023 91.5098 176.91 91.8588 175.261C92.3442 172.965 91.3328 170.983 90.8756 170.237C90.4914 169.611 90.6878 168.792 91.3139 168.408C91.9405 168.024 92.7603 168.221 93.1434 168.846C93.9188 170.11 95.1206 172.695 94.4621 175.812C93.9724 178.13 92.6645 179.647 92.1061 180.295C91.4844 181.016 90.4097 182.055 88.8199 182.907C87.3254 183.709 85.6296 184.188 83.917 184.293C83.5479 184.315 83.2049 184.185 82.9495 183.957Z" fill="white"/>
<path d="M41.3489 178.288L12.2074 186.252C9.83631 186.882 8.42564 189.315 9.05603 191.686C9.68642 194.057 12.1198 195.468 14.4904 194.837L44.0095 186.986L41.3489 178.288Z" fill="#FDB6D6"/>
<path d="M41.3282 185.376L15.355 192.159" stroke="#262626" stroke-width="0.5" stroke-miterlimit="10" stroke-linecap="round" stroke-linejoin="round"/>
<path d="M87.6703 149.551C85.5719 148.608 79.9633 146.439 73.3077 148.112C70.5696 148.8 68.4214 149.946 66.9004 150.952" stroke="#262626" stroke-width="0.5" stroke-miterlimit="10" stroke-linecap="round" stroke-linejoin="round"/>
<path d="M211.645 30.5624C211.889 28.6182 212.234 27.0717 212.68 25.9224C213.125 24.7736 213.838 23.7585 214.819 22.8775C215.388 22.3467 216.012 21.9063 216.693 21.5562C217.372 21.2066 218.005 20.8257 218.594 20.4139C219.18 20.0026 219.692 19.5227 220.13 18.9751C220.566 18.4275 220.845 17.6764 220.965 16.7203C221.168 15.1061 220.865 13.9211 220.056 13.1668C219.247 12.4125 218.232 11.9585 217.014 11.8054C215.266 11.5857 214.003 11.9217 213.222 12.8102C212.44 13.6998 211.864 14.9579 211.493 16.5845L205.117 15.7836C205.32 14.1695 205.767 12.7361 206.46 11.484C207.152 10.2324 208.042 9.20589 209.131 8.40505C210.218 7.60475 211.477 7.04308 212.907 6.72058C214.336 6.39808 215.875 6.34018 217.523 6.54689C221.082 6.99384 223.799 8.07173 225.677 9.78001C227.554 11.4888 228.289 13.9741 227.879 17.2365C227.746 18.2917 227.523 19.2002 227.21 19.9642C226.896 20.7283 226.485 21.4046 225.976 21.9934C225.467 22.5821 224.864 23.1173 224.168 23.5988C223.471 24.081 222.691 24.568 221.826 25.062C221.03 25.5317 220.38 25.977 219.875 26.3985C219.371 26.8206 218.969 27.2811 218.673 27.7789C218.376 28.2773 218.159 28.8113 218.02 29.379C217.881 29.9477 217.767 30.5948 217.676 31.3188L211.645 30.5624ZM210.25 40.0772L211.063 33.6023L217.735 34.4405L216.922 40.9154L210.25 40.0772Z" fill="#FDB6D6"/>
<path d="M187.824 17.8924C187.573 16.5148 187.476 15.386 187.533 14.5073C187.589 13.6285 187.858 12.7833 188.337 11.9722C188.611 11.4879 188.942 11.0539 189.331 10.6692C189.719 10.285 190.069 9.88944 190.381 9.48253C190.693 9.07616 190.938 8.63894 191.119 8.17142C191.299 7.70444 191.328 7.13249 191.205 6.45503C190.996 5.31112 190.535 4.56818 189.821 4.22782C189.108 3.88746 188.319 3.79602 187.455 3.95348C186.217 4.17912 185.428 4.6791 185.086 5.45289C184.744 6.22722 184.622 7.20879 184.718 8.39706L180.199 9.22063C179.991 8.07673 179.987 7.00317 180.191 6.00103C180.394 4.99944 180.781 4.10824 181.351 3.3285C181.92 2.5493 182.658 1.89618 183.564 1.36914C184.468 0.842645 185.505 0.472525 186.673 0.259329C189.195 -0.200073 191.279 -0.0491003 192.926 0.71224C194.573 1.47412 195.607 3.01033 196.029 5.32248C196.165 6.0703 196.208 6.73748 196.158 7.32567C196.109 7.91385 195.973 8.46308 195.753 8.97389C195.532 9.48469 195.236 9.97926 194.865 10.4565C194.493 10.9349 194.066 11.4348 193.582 11.957C193.141 12.4478 192.793 12.8915 192.539 13.2871C192.286 13.6832 192.111 14.0836 192.016 14.4862C191.921 14.8898 191.887 15.3005 191.915 15.7172C191.942 16.1344 192.003 16.6003 192.097 17.1138L187.824 17.8924ZM188.916 24.6785L188.079 20.0899L192.808 19.2279L193.644 23.8165L188.916 24.6785Z" fill="#FDB6D6"/>
</svg>
