<svg width="190" height="152" viewBox="0 0 190 152" fill="none" xmlns="http://www.w3.org/2000/svg">
<path fill-rule="evenodd" clip-rule="evenodd" d="M157.32 49.3999C160.258 49.3999 162.64 51.7817 162.64 54.7199C162.64 57.6581 160.258 60.0399 157.32 60.0399H126.92C129.858 60.0399 132.24 62.4217 132.24 65.3599C132.24 68.2981 129.858 70.6799 126.92 70.6799H143.64C146.578 70.6799 148.96 73.0617 148.96 75.9999C148.96 78.9381 146.578 81.3199 143.64 81.3199H135.908C132.203 81.3199 129.2 83.7017 129.2 86.6399C129.2 88.5987 130.72 90.372 133.76 91.9599C136.698 91.9599 139.08 94.3417 139.08 97.2799C139.08 100.218 136.698 102.6 133.76 102.6H70.6797C67.7416 102.6 65.3597 100.218 65.3597 97.2799C65.3597 94.3417 67.7416 91.9599 70.6797 91.9599H41.0397C38.1016 91.9599 35.7197 89.5781 35.7197 86.6399C35.7197 83.7017 38.1016 81.3199 41.0397 81.3199H71.4397C74.3779 81.3199 76.7597 78.9381 76.7597 75.9999C76.7597 73.0617 74.3779 70.6799 71.4397 70.6799H52.4397C49.5016 70.6799 47.1197 68.2981 47.1197 65.3599C47.1197 62.4217 49.5016 60.0399 52.4397 60.0399H82.8397C79.9016 60.0399 77.5197 57.6581 77.5197 54.7199C77.5197 51.7817 79.9016 49.3999 82.8397 49.3999H157.32ZM157.32 70.6799C160.258 70.6799 162.64 73.0617 162.64 75.9999C162.64 78.9381 160.258 81.3199 157.32 81.3199C154.382 81.3199 152 78.9381 152 75.9999C152 73.0617 154.382 70.6799 157.32 70.6799Z" fill="#D9D9D9" fill-opacity="0.01"/>
<path d="M91.5801 101.08C105.641 101.08 117.04 89.6813 117.04 75.6202C117.04 61.559 105.641 50.1602 91.5801 50.1602C77.5189 50.1602 66.1201 61.559 66.1201 75.6202C66.1201 89.6813 77.5189 101.08 91.5801 101.08Z" fill="#F3F7FF" stroke="#5A7681" stroke-width="2.5"/>
<path d="M87.5008 95.3753C88.8374 95.6221 90.1973 95.7503 91.5804 95.76C102.703 95.76 111.72 86.743 111.72 75.62C111.72 64.497 102.703 55.48 91.5804 55.48C88.7231 55.48 86.0048 56.075 83.5425 57.1479C79.2637 59.0124 75.7584 62.3199 73.6414 66.4558C72.2343 69.2048 71.4404 72.3197 71.4404 75.62C71.4404 78.6144 72.0939 81.4562 73.2661 84.0105C74.1029 85.8341 75.2041 87.5111 76.5205 88.9926" stroke="#5A7681" stroke-width="2.5" stroke-linecap="round"/>
<path d="M78.8857 91.2568C80.5183 92.5838 82.3627 93.6602 84.3604 94.4275" stroke="#5A7681" stroke-width="2.5" stroke-linecap="round"/>
<path d="M112.48 95.7603L117.04 100.32" stroke="#5A7681" stroke-width="2.5"/>
<path fill-rule="evenodd" clip-rule="evenodd" d="M116.303 99.5832C114.865 101.022 114.865 103.354 116.303 104.792L124.728 113.217C126.167 114.656 128.499 114.656 129.937 113.217C131.376 111.779 131.376 109.447 129.937 108.008L121.513 99.5832C120.074 98.1448 117.742 98.1448 116.303 99.5832Z" fill="#E8F0FE" stroke="#5A7681" stroke-width="2.5"/>
<path d="M120.08 101.08L128.44 109.44" stroke="white" stroke-width="2.5" stroke-linecap="round"/>
<path fill-rule="evenodd" clip-rule="evenodd" d="M86.6405 66.8804C86.6405 75.6948 93.786 82.8404 102.601 82.8404C104.332 82.8404 105.999 82.5646 107.56 82.0547C105.012 88.3785 98.8176 92.8425 91.5805 92.8425C82.069 92.8425 74.3584 85.1319 74.3584 75.6204C74.3584 67.0016 80.6895 59.8616 88.9547 58.5972C87.4864 61.0126 86.6405 63.8477 86.6405 66.8804Z" fill="#ECF1F3"/>
<path d="M91.9605 61.5601C90.9927 61.5601 90.0472 61.6553 89.1327 61.8368M86.3705 62.6819C81.1714 64.8667 77.5205 70.007 77.5205 76.0001" stroke="#769AA3" stroke-width="2.5" stroke-linecap="round"/>
<path d="M132.373 75.8307H126.16M137.18 69.9199H124.126H137.18ZM142.5 69.9199H140.811H142.5Z" stroke="#769AA3" stroke-width="2.5" stroke-linecap="round" stroke-linejoin="round"/>
<path d="M63.9731 92.5507H57.7595M60.4195 85.8799H47.366H60.4195ZM42.9396 85.8799H39.7314H42.9396Z" stroke="#769AA3" stroke-width="2.5" stroke-linecap="round" stroke-linejoin="round"/>
</svg>
