<svg width="190" height="152" viewBox="0 0 190 152" fill="none" xmlns="http://www.w3.org/2000/svg">
<g opacity="0.66">
<rect width="190" height="152" fill="white"/>
<path fill-rule="evenodd" clip-rule="evenodd" d="M157.32 49.4004C160.258 49.4004 162.64 51.7822 162.64 54.7204C162.64 57.6585 160.258 60.0404 157.32 60.0404H126.92C129.858 60.0404 132.24 62.4222 132.24 65.3604C132.24 68.2985 129.858 70.6804 126.92 70.6804H143.64C146.578 70.6804 148.96 73.0622 148.96 76.0004C148.96 78.9385 146.578 81.3204 143.64 81.3204H135.908C132.203 81.3204 129.2 83.7022 129.2 86.6404C129.2 88.5992 130.72 90.3725 133.76 91.9604C136.698 91.9604 139.08 94.3422 139.08 97.2804C139.08 100.219 136.698 102.6 133.76 102.6H70.68C67.7418 102.6 65.36 100.219 65.36 97.2804C65.36 94.3422 67.7418 91.9604 70.68 91.9604H41.04C38.1018 91.9604 35.72 89.5785 35.72 86.6404C35.72 83.7022 38.1018 81.3204 41.04 81.3204H71.44C74.3782 81.3204 76.76 78.9385 76.76 76.0004C76.76 73.0622 74.3782 70.6804 71.44 70.6804H52.44C49.5018 70.6804 47.12 68.2985 47.12 65.3604C47.12 62.4222 49.5018 60.0404 52.44 60.0404H82.84C79.9018 60.0404 77.52 57.6585 77.52 54.7204C77.52 51.7822 79.9018 49.4004 82.84 49.4004H157.32ZM157.32 70.6804C160.258 70.6804 162.64 73.0622 162.64 76.0004C162.64 78.9385 160.258 81.3204 157.32 81.3204C154.382 81.3204 152 78.9385 152 76.0004C152 73.0622 154.382 70.6804 157.32 70.6804Z" fill="#BFD0D4" fill-opacity="0.3"/>
<path d="M91.58 101.08C105.641 101.08 117.04 89.6813 117.04 75.6202C117.04 61.559 105.641 50.1602 91.58 50.1602C77.5188 50.1602 66.12 61.559 66.12 75.6202C66.12 89.6813 77.5188 101.08 91.58 101.08Z" fill="#F3F7FF" stroke="#5A7681" stroke-width="2.5"/>
<path fill-rule="evenodd" clip-rule="evenodd" d="M87.5004 95.3758C88.837 95.6225 90.1969 95.7508 91.58 95.7605C102.703 95.7605 111.72 86.7435 111.72 75.6205C111.72 64.4975 102.703 55.4805 91.58 55.4805C88.7227 55.4805 86.0043 56.0755 83.5421 57.1484C79.2633 59.0128 75.758 62.3204 73.641 66.4563C72.2338 69.2053 71.44 72.3202 71.44 75.6205C71.44 78.6149 72.0935 81.4566 73.2656 84.011C74.1025 85.8345 75.2036 87.5116 76.5201 88.9931" fill="white"/>
<path d="M87.5004 95.3758C88.837 95.6225 90.1969 95.7508 91.58 95.7605C102.703 95.7605 111.72 86.7435 111.72 75.6205C111.72 64.4975 102.703 55.4805 91.58 55.4805C88.7227 55.4805 86.0043 56.0755 83.5421 57.1484C79.2633 59.0128 75.758 62.3204 73.641 66.4563C72.2338 69.2053 71.44 72.3202 71.44 75.6205C71.44 78.6149 72.0935 81.4566 73.2656 84.011C74.1025 85.8345 75.2036 87.5116 76.5201 88.9931" stroke="#5A7681" stroke-width="2.5" stroke-linecap="round"/>
<path d="M78.886 91.2568C80.5186 92.5838 82.363 93.6602 84.3607 94.4275" stroke="#5A7681" stroke-width="2.5" stroke-linecap="round"/>
<path d="M112.48 95.7598L117.04 100.32" stroke="#5A7681" stroke-width="2.5"/>
<path fill-rule="evenodd" clip-rule="evenodd" d="M116.303 99.5828C114.865 101.021 114.865 103.353 116.303 104.792L124.728 113.217C126.166 114.655 128.499 114.655 129.937 113.217C131.375 111.778 131.375 109.446 129.937 108.008L121.512 99.5828C120.074 98.1443 117.741 98.1443 116.303 99.5828Z" fill="#E8F0FE" stroke="#5A7681" stroke-width="2.5"/>
<path d="M120.08 101.08L128.44 109.44" stroke="white" stroke-width="2.5" stroke-linecap="round"/>
<path fill-rule="evenodd" clip-rule="evenodd" d="M86.64 66.8799C86.64 75.6944 93.7856 82.8399 102.6 82.8399C104.332 82.8399 105.999 82.5641 107.56 82.0542C105.012 88.378 98.8171 92.842 91.58 92.842C82.0685 92.842 74.3579 85.1314 74.3579 75.6199C74.3579 67.0011 80.689 59.8611 88.9542 58.5967C87.4859 61.0121 86.64 63.8472 86.64 66.8799Z" fill="#ECF1F3"/>
<path d="M91.96 61.5605C90.9922 61.5605 90.0467 61.6558 89.1322 61.8373M86.37 62.6824C81.1709 64.8672 77.52 70.0075 77.52 76.0005" stroke="#769AA3" stroke-width="2.5" stroke-linecap="round"/>
<path d="M132.374 75.8307H126.16M137.18 69.9199H124.126H137.18ZM142.5 69.9199H140.812H142.5Z" stroke="#769AA3" stroke-width="2.5" stroke-linecap="round" stroke-linejoin="round"/>
<path d="M63.9736 92.5507H57.76M60.42 85.8799H47.3664H60.42ZM42.94 85.8799H39.7319H42.94Z" stroke="#769AA3" stroke-width="2.5" stroke-linecap="round" stroke-linejoin="round"/>
</g>
</svg>
