<svg width="197" height="158" viewBox="0 0 197 158" fill="none" xmlns="http://www.w3.org/2000/svg">
<rect width="197" height="158" fill="#E8F4F8"/>
<rect width="197" height="158" fill="#E8F4F8"/>
<path fill-rule="evenodd" clip-rule="evenodd" d="M163.116 51.3501C166.162 51.3501 168.632 53.826 168.632 56.8801C168.632 59.9342 166.162 62.4101 163.116 62.4101H131.596C134.642 62.4101 137.112 64.886 137.112 67.9401C137.112 70.9942 134.642 73.4701 131.596 73.4701H148.932C151.978 73.4701 154.448 75.946 154.448 79.0001C154.448 82.0542 151.978 84.5301 148.932 84.5301H140.915C137.074 84.5301 133.96 87.006 133.96 90.0601C133.96 92.0962 135.536 93.9395 138.688 95.5901C141.734 95.5901 144.204 98.066 144.204 101.12C144.204 104.174 141.734 106.65 138.688 106.65H73.2839C70.2375 106.65 67.7679 104.174 67.7679 101.12C67.7679 98.066 70.2375 95.5901 73.2839 95.5901H42.5519C39.5055 95.5901 37.0359 93.1142 37.0359 90.0601C37.0359 87.006 39.5055 84.5301 42.5519 84.5301H74.0719C77.1183 84.5301 79.5879 82.0542 79.5879 79.0001C79.5879 75.946 77.1183 73.4701 74.0719 73.4701H54.3719C51.3255 73.4701 48.8559 70.9942 48.8559 67.9401C48.8559 64.886 51.3255 62.4101 54.3719 62.4101H85.8919C82.8455 62.4101 80.3759 59.9342 80.3759 56.8801C80.3759 53.826 82.8455 51.3501 85.8919 51.3501H163.116ZM163.116 73.4701C166.162 73.4701 168.632 75.946 168.632 79.0001C168.632 82.0542 166.162 84.5301 163.116 84.5301C160.069 84.5301 157.6 82.0542 157.6 79.0001C157.6 75.946 160.069 73.4701 163.116 73.4701Z" fill="#BFD0D4" fill-opacity="0.3"/>
<path d="M94.9539 105.07C109.533 105.07 121.352 93.2214 121.352 78.6051C121.352 63.9889 109.533 52.1401 94.9539 52.1401C80.3747 52.1401 68.5559 63.9889 68.5559 78.6051C68.5559 93.2214 80.3747 105.07 94.9539 105.07Z" fill="#F3F7FF" stroke="#5A7681" stroke-width="2.5"/>
<path fill-rule="evenodd" clip-rule="evenodd" d="M90.7241 99.1401C92.11 99.3966 93.52 99.5298 94.954 99.5399C106.487 99.5399 115.836 90.167 115.836 78.6049C115.836 67.0428 106.487 57.6699 94.954 57.6699C91.9914 57.6699 89.1729 58.2884 86.62 59.4037C82.1836 61.3417 78.5491 64.7799 76.3541 69.079C74.8951 71.9365 74.072 75.1743 74.072 78.6049C74.072 81.7175 74.7496 84.6715 75.9649 87.3266C76.8326 89.2222 77.9743 90.9655 79.3393 92.5054" fill="white"/>
<path d="M90.7241 99.1401C92.11 99.3966 93.52 99.5298 94.954 99.5399C106.487 99.5399 115.836 90.167 115.836 78.6049C115.836 67.0428 106.487 57.6699 94.954 57.6699C91.9914 57.6699 89.1729 58.2884 86.62 59.4037C82.1836 61.3417 78.5491 64.7799 76.3541 69.079C74.8951 71.9365 74.072 75.1743 74.072 78.6049C74.072 81.7175 74.7496 84.6715 75.9649 87.3266C76.8326 89.2222 77.9743 90.9655 79.3393 92.5054" stroke="#5A7681" stroke-width="2.5" stroke-linecap="round"/>
<path d="M81.7922 94.8594C83.485 96.2387 85.3973 97.3576 87.4686 98.1552" stroke="#5A7681" stroke-width="2.5" stroke-linecap="round"/>
<path d="M116.624 99.54L121.352 104.28" stroke="#5A7681" stroke-width="2.5"/>
<path fill-rule="evenodd" clip-rule="evenodd" d="M120.588 103.514C119.096 105.009 119.096 107.434 120.588 108.929L129.323 117.686C130.815 119.181 133.233 119.181 134.724 117.686C136.216 116.191 136.216 113.767 134.724 112.271L125.989 103.514C124.497 102.019 122.079 102.019 120.588 103.514Z" fill="#E8F0FE" stroke="#5A7681" stroke-width="2.5"/>
<path d="M124.504 105.07L133.172 113.76" stroke="white" stroke-width="2.5" stroke-linecap="round"/>
<path fill-rule="evenodd" clip-rule="evenodd" d="M89.832 69.5203C89.832 78.6827 97.2408 86.1103 106.38 86.1103C108.175 86.1103 109.904 85.8237 111.523 85.2936C108.88 91.8671 102.458 96.5073 94.954 96.5073C85.0921 96.5073 77.0974 88.4923 77.0974 78.6053C77.0974 69.6464 83.6617 62.2245 92.2315 60.9102C90.709 63.421 89.832 66.368 89.832 69.5203Z" fill="#ECF1F3"/>
<path d="M95.348 63.9902C94.3445 63.9902 93.3642 64.0892 92.416 64.2779M89.552 65.1563C84.1614 67.4274 80.376 72.7706 80.376 79.0002" stroke="#769AA3" stroke-width="2.5" stroke-linecap="round"/>
<path d="M137.25 78.8243H130.808M142.234 72.6802H128.699H142.234ZM147.75 72.6802H146H147.75Z" stroke="#769AA3" stroke-width="2.5" stroke-linecap="round" stroke-linejoin="round"/>
<path d="M66.3306 96.2041H59.8881M62.6461 89.27H49.1116H62.6461ZM44.5221 89.27H41.1958H44.5221Z" stroke="#769AA3" stroke-width="2.5" stroke-linecap="round" stroke-linejoin="round"/>
</svg>
