<svg width="100" height="100" viewBox="0 0 100 100" fill="none" xmlns="http://www.w3.org/2000/svg">
<path d="M43.75 63.5416C42.9458 63.4803 42.1983 63.1062 41.6665 62.4999L29.1665 49.9999C28.888 49.417 28.7972 48.762 28.9065 48.1249C29.0158 47.4878 29.3198 46.9007 29.7768 46.4437C30.2337 45.9866 30.8211 45.6824 31.458 45.5732C32.0949 45.4641 32.7501 45.5549 33.3332 45.8332L43.625 56.1249L79.1666 20.8334C79.7495 20.5549 80.405 20.464 81.0416 20.5733C81.6787 20.6826 82.2662 20.9867 82.7229 21.4436C83.18 21.9006 83.4841 22.488 83.5933 23.1249C83.7025 23.7618 83.6116 24.417 83.3333 25.0001L45.8333 62.4999C45.3016 63.1062 44.5537 63.4803 43.75 63.5416Z" fill="#2EDF11"/>
<path d="M50 87.4999C43.2979 87.4891 36.7208 85.6824 30.9538 82.2678C25.1867 78.8528 20.4403 73.9549 17.2083 68.0832C14.7515 63.7082 13.2332 58.8695 12.75 53.8749C11.9874 46.5503 13.3983 39.1633 16.8068 32.6353C20.2153 26.1073 25.4704 20.7274 31.9166 17.1667C36.2917 14.7099 41.1306 13.1916 46.125 12.7083C51.1004 12.1731 56.1329 12.6551 60.9167 14.125C61.3433 14.2103 61.7479 14.3838 62.1038 14.6346C62.4596 14.8852 62.7592 15.2075 62.9833 15.5808C63.2075 15.954 63.3513 16.3699 63.4054 16.8019C63.4592 17.2339 63.4225 17.6724 63.2971 18.0893C63.1717 18.5062 62.9604 18.8923 62.6771 19.2229C62.3937 19.5535 62.0446 19.8212 61.6521 20.0089C61.2592 20.1967 60.8313 20.3003 60.3963 20.3131C59.9613 20.3259 59.5279 20.2476 59.125 20.0833C55.0775 18.8663 50.8279 18.4697 46.625 18.9167C42.4708 19.3421 38.4456 20.6034 34.7916 22.625C31.2713 24.5671 28.1589 27.1702 25.625 30.2917C23.016 33.4715 21.0678 37.1399 19.8945 41.0821C18.7211 45.0245 18.3462 49.1612 18.7916 53.2499C19.217 57.4041 20.4784 61.4295 22.5 65.0832C24.442 68.6037 27.0452 71.7162 30.1666 74.2499C33.3465 76.8591 37.0149 78.807 40.9571 79.9803C44.8992 81.1537 49.0358 81.5287 53.125 81.0832C57.2792 80.6578 61.3042 79.3966 64.9583 77.3749C68.4788 75.4328 71.5908 72.8299 74.125 69.7082C76.7338 66.5287 78.6821 62.8599 79.8554 58.9178C81.0288 54.9757 81.4038 50.8391 80.9583 46.7499C80.9171 46.3203 80.9613 45.887 81.0875 45.4745C81.2142 45.062 81.4204 44.6782 81.6954 44.3457C81.97 44.0128 82.3075 43.7374 82.6888 43.5353C83.07 43.3328 83.4871 43.2078 83.9167 43.1666C84.3463 43.1257 84.7796 43.1695 85.1921 43.2961C85.6046 43.4224 85.9883 43.6291 86.3208 43.9036C86.6537 44.1782 86.9292 44.5162 87.1313 44.897C87.3338 45.2782 87.4587 45.6953 87.5 46.1249C88.2588 53.4541 86.8417 60.8441 83.4254 67.3728C80.0092 73.9012 74.7454 79.2787 68.2917 82.8332C63.87 85.3907 58.9563 86.9812 53.875 87.4999C52.5833 87.4999 51.25 87.4999 50 87.4999Z" fill="#2EDF11"/>
</svg>
