<svg width="28" height="28" viewBox="0 0 28 28" fill="none" xmlns="http://www.w3.org/2000/svg">
<g filter="url(#filter0_i_375_6218)">
<circle cx="14" cy="14" r="14" fill="black" fill-opacity="0.5"/>
</g>
<path d="M15.25 11.2225C15.25 11.0752 15.2939 10.9339 15.372 10.8297C15.4501 10.7255 15.5561 10.667 15.6666 10.667C15.7771 10.667 15.8831 10.7255 15.9613 10.8297C16.0394 10.9339 16.0833 11.0752 16.0833 11.2225V16.7781C16.0833 16.9255 16.0394 17.0667 15.9613 17.171C15.8831 17.2751 15.7771 17.3337 15.6666 17.3337C15.5561 17.3337 15.4501 17.2751 15.372 17.171C15.2939 17.0667 15.25 16.9255 15.25 16.7781V11.2225ZM11.9166 11.2225C11.9166 11.0752 11.9605 10.9339 12.0387 10.8297C12.1168 10.7255 12.2228 10.667 12.3333 10.667C12.4438 10.667 12.5498 10.7255 12.6279 10.8297C12.7061 10.9339 12.75 11.0752 12.75 11.2225V16.7781C12.75 16.9255 12.7061 17.0667 12.6279 17.171C12.5498 17.2751 12.4438 17.3337 12.3333 17.3337C12.2228 17.3337 12.1168 17.2751 12.0387 17.171C11.9605 17.0667 11.9166 16.9255 11.9166 16.7781V11.2225Z" fill="white"/>
<defs>
<filter id="filter0_i_375_6218" x="-6" y="-3" width="34" height="31" filterUnits="userSpaceOnUse" color-interpolation-filters="sRGB">
<feFlood flood-opacity="0" result="BackgroundImageFix"/>
<feBlend mode="normal" in="SourceGraphic" in2="BackgroundImageFix" result="shape"/>
<feColorMatrix in="SourceAlpha" type="matrix" values="0 0 0 0 0 0 0 0 0 0 0 0 0 0 0 0 0 0 127 0" result="hardAlpha"/>
<feOffset dx="-6" dy="-3"/>
<feGaussianBlur stdDeviation="16.5"/>
<feComposite in2="hardAlpha" operator="arithmetic" k2="-1" k3="1"/>
<feColorMatrix type="matrix" values="0 0 0 0 0.74902 0 0 0 0 0.815686 0 0 0 0 0.831373 0 0 0 0.2 0"/>
<feBlend mode="normal" in2="shape" result="effect1_innerShadow_375_6218"/>
</filter>
</defs>
</svg>
