<svg width="28" height="28" viewBox="0 0 28 28" fill="none" xmlns="http://www.w3.org/2000/svg">
<g filter="url(#filter0_i_375_5372)">
<circle cx="14" cy="14" r="14" fill="black" fill-opacity="0.5"/>
</g>
<g clip-path="url(#clip0_375_5372)">
<path fill-rule="evenodd" clip-rule="evenodd" d="M12.1482 10.5178C11.5312 10.1823 10.7916 10.6248 10.7916 11.2911V16.71C10.7916 17.3763 11.5312 17.8188 12.1482 17.4833L17.1306 14.7738C17.7527 14.4356 17.7527 13.5655 17.1306 13.2272L12.1482 10.5178ZM10.2083 11.2911C10.2083 10.1614 11.4398 9.46855 12.4268 10.0053L17.4093 12.7147C18.4375 13.2739 18.4375 14.7271 17.4093 15.2863L12.4268 17.9957C11.4398 18.5325 10.2083 17.8397 10.2083 16.71V11.2911Z" fill="white"/>
</g>
<defs>
<filter id="filter0_i_375_5372" x="-6" y="-3" width="34" height="31" filterUnits="userSpaceOnUse" color-interpolation-filters="sRGB">
<feFlood flood-opacity="0" result="BackgroundImageFix"/>
<feBlend mode="normal" in="SourceGraphic" in2="BackgroundImageFix" result="shape"/>
<feColorMatrix in="SourceAlpha" type="matrix" values="0 0 0 0 0 0 0 0 0 0 0 0 0 0 0 0 0 0 127 0" result="hardAlpha"/>
<feOffset dx="-6" dy="-3"/>
<feGaussianBlur stdDeviation="16.5"/>
<feComposite in2="hardAlpha" operator="arithmetic" k2="-1" k3="1"/>
<feColorMatrix type="matrix" values="0 0 0 0 0.74902 0 0 0 0 0.815686 0 0 0 0 0.831373 0 0 0 0.2 0"/>
<feBlend mode="normal" in2="shape" result="effect1_innerShadow_375_5372"/>
</filter>
<clipPath id="clip0_375_5372">
<rect width="9.33333" height="9.33333" fill="white" transform="translate(9.33325 9.33398)"/>
</clipPath>
</defs>
</svg>
