<svg width="103" height="98" viewBox="0 0 103 98" fill="none" xmlns="http://www.w3.org/2000/svg">
<g clip-path="url(#clip0_1054_10555)">
<path d="M14.8279 60.1457C14.0673 59.6809 13.5199 58.9367 13.3015 58.0727L7.28738 39.4842C7.3065 38.7705 7.54651 38.0802 7.9745 37.5082C8.4025 36.9362 8.99699 36.5114 9.67659 36.2914C10.3562 36.0714 11.0872 36.0675 11.7689 36.2804C12.4506 36.4934 13.0497 36.9123 13.4835 37.4795L18.4353 52.784L71.1626 35.93C71.8763 35.9491 72.567 36.1894 73.1386 36.6172C73.7106 37.0451 74.1358 37.6399 74.3554 38.3192C74.5754 38.9988 74.5793 39.7299 74.3664 40.4116C74.1534 41.0933 73.7345 41.6923 73.1673 42.1262L17.402 60.1684C16.5739 60.4976 15.6497 60.4897 14.8279 60.1457Z" fill="#5A7681"/>
<path d="M8.92855 86.8665C2.33845 83.4849 -3.22538 78.3988 -7.1833 72.1379C-11.1411 65.8765 -13.3485 58.6691 -13.5758 51.2651C-13.793 45.724 -12.8535 40.1985 -10.8169 35.0402C-7.88328 27.4485 -2.77926 20.8886 3.85842 16.1787C10.4961 11.4689 18.3737 8.81769 26.5084 8.55585C32.0496 8.3387 37.5752 9.27828 42.7333 11.3148C47.8988 13.2906 52.6089 16.2961 56.5773 20.1488C56.9543 20.4473 57.2651 20.8216 57.4892 21.2473C57.7133 21.6729 57.846 22.1408 57.8789 22.6209C57.9118 23.1009 57.844 23.5825 57.6801 24.0349C57.5157 24.487 57.259 24.9001 56.9259 25.2473C56.5928 25.5945 56.1907 25.8683 55.7456 26.0511C55.3005 26.2339 54.8222 26.3217 54.3416 26.3091C53.8605 26.2962 53.3872 26.1829 52.9527 25.9767C52.5182 25.7705 52.1311 25.4756 51.8172 25.1112C48.4462 21.8778 44.4637 19.35 40.1027 17.6759C35.8006 16.0051 31.2049 15.2219 26.5923 15.3735C22.1511 15.5141 17.7788 16.5103 13.7152 18.3077C9.54836 20.1247 5.78601 22.755 2.64846 26.0443C-0.489113 29.3338 -2.93874 33.2162 -4.5569 37.464C-6.22772 41.766 -7.01103 46.3619 -6.85936 50.9744C-6.71882 55.4157 -5.72258 59.788 -3.92515 63.8515C-2.10821 68.0185 0.522152 71.7806 3.81154 74.9181C7.1008 78.0555 10.9831 80.5052 15.2313 82.1236C19.5334 83.7944 24.1288 84.5777 28.7417 84.4261C33.183 84.2855 37.5548 83.2893 41.6188 81.4919C45.7853 79.675 49.548 77.0445 52.6854 73.7552C55.8228 70.466 58.2725 66.5837 59.8909 62.3355C60.0664 61.892 60.3278 61.4877 60.6595 61.1453C60.9917 60.8031 61.3876 60.5291 61.8255 60.3402C62.2632 60.1507 62.7339 60.0494 63.2107 60.0423C63.6877 60.0348 64.161 60.1216 64.6045 60.297C65.0478 60.4729 65.4523 60.7339 65.7945 61.0661C66.137 61.3978 66.4107 61.7942 66.5998 62.2316C66.7893 62.6693 66.8904 63.1404 66.8977 63.6168C66.9052 64.0939 66.8184 64.5672 66.643 65.0107C63.7033 72.605 58.5918 79.1648 51.946 83.8714C45.3005 88.5777 37.4157 91.2222 29.2767 91.4742C23.6389 91.7671 18.0034 90.8607 12.742 88.8155C11.4708 88.1658 10.1587 87.4952 8.92855 86.8665Z" fill="#5A7681"/>
</g>
<defs>
<clipPath id="clip0_1054_10555">
<rect width="110.519" height="110.519" fill="white" transform="translate(3.7334 -24.3911) rotate(27.0715)"/>
</clipPath>
</defs>
</svg>
