<svg width="60" height="60" viewBox="0 0 60 60" fill="none" xmlns="http://www.w3.org/2000/svg">
<path d="M18 29.5L24 38.5V50L25 52L33.5 52.5L36 50.5V38L39 34L41.5 29.5L45 22.5L46 18L45 13L42 8.5L39 6L34 3.5L28.5 3L23 5L18 8.5L14.5 15V22L18 29.5Z" fill="#FFEEB1"/>
<path d="M29.6937 19.4938L28.9437 19.2188C28.0207 18.8801 27.1209 18.4814 26.25 18.025C24.425 17.0438 22.725 13.95 22.5375 13.6L21.9688 12.5L23.125 12.2188C23.375 12.15 25.625 11.6375 28.5 13.5125C31.375 15.3875 30.575 17.9438 30.075 18.8063L29.6937 19.4938ZM23.85 13.3688C24.5062 14.5125 25.7562 16.3375 26.85 16.925C27.582 17.3119 28.3376 17.6522 29.1125 17.9438C29.35 17.35 29.7375 15.7938 27.8625 14.5563C26.6969 13.7198 25.2831 13.3014 23.85 13.3688Z" fill="#DFAF05"/>
<path d="M30.0875 19.494L29.6875 18.8002C29.2023 17.8901 29.0941 16.8257 29.3864 15.8366C29.6787 14.8475 30.348 14.0129 31.25 13.5127C34.0938 11.6377 36.3688 12.1565 36.625 12.219L37.8125 12.5002L37.2375 13.5752C37.05 13.919 35.3625 17.0127 33.5188 18.0002C32.6495 18.4555 31.7518 18.8542 30.8313 19.194L30.0875 19.494ZM35.575 13.3565C34.2754 13.3939 33.0152 13.811 31.95 14.5565C30.075 15.8065 30.425 17.344 30.7 17.944C31.4739 17.65 32.2294 17.3098 32.9625 16.9252C34.0625 16.3315 35.3063 14.5065 35.9625 13.369L35.575 13.3565Z" fill="#DFAF05"/>
<path d="M29.5312 31.0874L28.6938 30.7811C27.4711 30.3246 26.2773 29.7945 25.1187 29.1936C22.725 27.9061 20.475 23.8061 20.2312 23.3436L19.6063 22.1436L20.9125 21.7999C21.0437 21.7686 24.1313 21.0061 27.95 23.5061C32.2063 26.3061 30 30.2749 30 30.3124L29.5312 31.0874ZM21.45 22.9624C22.2875 24.4749 24.1062 27.2249 25.7125 28.0936C26.7638 28.6414 27.847 29.1256 28.9563 29.5436C29.2438 28.9186 30.1188 26.4186 27.2438 24.5436C24.3688 22.6686 22.1688 22.8499 21.45 22.9624Z" fill="#DFAF05"/>
<path d="M30.25 31.0875L29.8062 30.3125C29.8062 30.275 27.5687 26.3063 31.85 23.5063C35.6 21.0563 38.5562 21.7188 38.8812 21.8L40.1937 22.1438L39.5687 23.3438C39.3187 23.8063 37.0687 27.9063 34.675 29.1938C33.5165 29.7947 32.3226 30.3248 31.1 30.7813L30.25 31.0875ZM37.5 22.9063C35.7084 22.9531 33.9699 23.5246 32.5 24.55C29.6312 26.425 30.5 28.925 30.7875 29.55C31.9068 29.1414 33.0005 28.6655 34.0625 28.125C35.6687 27.2563 37.4875 24.5063 38.3312 22.9938C38.0566 22.9451 37.7788 22.9159 37.5 22.9063Z" fill="#DFAF05"/>
<path d="M29.8891 2.55605V2.55606C32.4431 2.58327 34.9618 3.15637 37.2762 4.2369C39.5905 5.31744 41.647 6.88044 43.3077 8.82103C44.6646 10.3985 45.6523 12.2589 46.1987 14.2666C46.7452 16.2744 46.8367 18.3789 46.4664 20.4265L46.4663 20.4265C46.0399 22.7801 44.8 25.4807 43.3371 28.088C41.885 30.6761 40.2056 33.1854 38.8647 35.1889L38.8309 35.2395L38.8274 35.2447L38.8273 35.2446C38.0272 36.3378 37.3118 37.4905 36.6875 38.6926V49.518V49.5186H36.5375L29.8891 2.55605ZM29.8891 2.55605H29.8875H29.8891ZM32.9872 51.6811L26.7883 51.6811C26.7881 51.6811 26.7879 51.6811 26.7876 51.6811C26.5058 51.6794 26.2271 51.6223 25.9675 51.5129C25.7076 51.4033 25.4718 51.2436 25.2738 51.0429C25.0757 50.8421 24.9192 50.6042 24.8133 50.3428C24.7073 50.0815 24.6539 49.8018 24.6562 49.5198V49.5186V38.6936C24.6562 38.351 24.4779 37.9261 24.0887 37.2637C23.6952 36.5939 23.0672 35.6521 22.1305 34.2658L22.1292 34.2639C20.7508 32.2135 19.0236 29.6442 17.5916 27.1081C16.1558 24.5654 15.0301 22.0786 14.8367 20.1908L14.8367 20.1908L14.8364 20.1877C14.5995 18.2628 14.7806 16.3093 15.3673 14.4607C15.954 12.6123 16.9323 10.9121 18.2356 9.47609C19.7294 7.85753 21.5281 6.54993 23.5285 5.62837C25.528 4.70726 27.6896 4.18995 29.8894 4.10609C32.2124 4.13585 34.5022 4.66087 36.6062 5.64611C38.7112 6.63189 40.5816 8.05567 42.0922 9.82229L42.0927 9.82278C43.303 11.2259 44.1845 12.8817 44.6728 14.6693C45.1611 16.4567 45.2438 18.3307 44.9149 20.1543C44.5196 22.3254 43.3348 24.8933 41.9115 27.4191C40.4898 29.9422 38.8383 32.4095 37.5191 34.3788L37.5188 34.3792C36.645 35.6931 36.0484 36.5911 35.6707 37.2323C35.2978 37.8656 35.1187 38.2785 35.1187 38.6123L35.1187 49.5186L35.1187 49.5194C35.1219 50.0886 34.8991 50.6358 34.4994 51.041C34.0998 51.446 33.5561 51.6762 32.9872 51.6811ZM32.9872 51.6811H32.9875V51.8311M32.9872 51.6811C32.9869 51.6811 32.9866 51.6811 32.9863 51.6811L32.9875 51.8311M32.9875 51.8311H26.7875M32.9875 51.8311C33.5964 51.8261 34.1785 51.5799 34.6062 51.1464C35.0338 50.7129 35.2721 50.1275 35.2687 49.5186L26.7875 51.8311M26.7875 51.8311C26.4857 51.8294 26.1873 51.7683 25.9092 51.6511C25.6311 51.5339 25.3789 51.363 25.167 51.1482C24.9551 50.9334 24.7876 50.6788 24.6743 50.3992C24.5609 50.1196 24.5038 49.8203 24.5062 49.5186V38.6936C24.5062 38.0998 23.8812 37.1248 22.0062 34.3498L22.0034 34.3455C19.2471 30.2455 15.0811 24.0485 14.6875 20.2061L26.7875 51.8311ZM33.0125 53.2311L33.0136 53.2311L23.1313 49.518L23.2812 49.5186H23.1312V49.5183C23.1279 50.4984 23.5135 51.4398 24.2034 52.1358C24.8935 52.832 25.8315 53.2259 26.8117 53.2311H26.8125L33.0125 53.2311ZM23.1312 38.7504C23.1373 38.7615 23.1433 38.7726 23.1494 38.7838L23.2812 38.7123H23.1312V38.7504ZM13.4812 20.3561L13.332 20.3707C13.332 20.3713 13.3321 20.3719 13.3321 20.3725C13.3322 20.3732 13.3323 20.3738 13.3324 20.3744L13.4812 20.3561ZM17.2312 8.55605L17.1203 8.45512C17.1201 8.45527 17.12 8.45543 17.1199 8.45558C17.1197 8.45574 17.1196 8.45589 17.1195 8.45605L17.2312 8.55605Z" fill="#DFAF05" stroke="#DFAF05" stroke-width="0.3"/>
<path d="M38.125 40.3311H21.675C21.5092 40.3311 21.3503 40.2652 21.2331 40.148C21.1158 40.0308 21.05 39.8718 21.05 39.7061C21.05 39.5403 21.1158 39.3813 21.2331 39.2641C21.3503 39.1469 21.5092 39.0811 21.675 39.0811H38.125C38.2908 39.0811 38.4497 39.1469 38.5669 39.2641C38.6842 39.3813 38.75 39.5403 38.75 39.7061C38.75 39.8718 38.6842 40.0308 38.5669 40.148C38.4497 40.2652 38.2908 40.3311 38.125 40.3311Z" fill="#DFAF05"/>
<path d="M30.5375 16.0813C30.3687 18.05 30.3375 20.0188 30.3625 21.9875C30.3501 22.973 30.4002 23.9583 30.5125 24.9375C30.6375 25.925 30.8062 26.9125 30.8375 27.8938C30.95 29.8625 30.475 31.8313 30.4312 33.8C30.3667 35.7693 30.4021 37.7406 30.5375 39.7063C30.5508 39.872 30.4976 40.0363 30.3898 40.1628C30.282 40.2894 30.1283 40.368 29.9625 40.3813C29.8804 40.3878 29.7979 40.3782 29.7195 40.3528C29.6412 40.3275 29.5686 40.2869 29.5059 40.2336C29.3793 40.1257 29.3008 39.972 29.2875 39.8063C29.2812 39.7732 29.2812 39.7393 29.2875 39.7063C29.4197 37.7404 29.4489 35.7689 29.375 33.8C29.3312 31.8313 28.8625 29.8625 28.975 27.8938C28.975 26.9125 29.175 25.925 29.2937 24.9375C29.4081 23.9585 29.4603 22.9732 29.45 21.9875C29.45 20.0188 29.45 18.05 29.275 16.0813C29.268 15.9992 29.2773 15.9165 29.3022 15.838C29.3272 15.7595 29.3674 15.6867 29.4205 15.6238C29.4736 15.5608 29.5386 15.5089 29.6117 15.471C29.6849 15.4332 29.7648 15.4101 29.8469 15.4031C29.929 15.3962 30.0116 15.4054 30.0901 15.4304C30.1686 15.4553 30.2414 15.4955 30.3044 15.5486C30.3673 15.6017 30.4192 15.6667 30.4571 15.7399C30.4949 15.813 30.518 15.8929 30.525 15.975L30.5375 16.0813Z" fill="#DFAF05"/>
<path d="M49.4812 57.5H41.9125C41.7467 57.5 41.5878 57.4342 41.4706 57.3169C41.3533 57.1997 41.2875 57.0408 41.2875 56.875C41.2875 56.7092 41.3533 56.5503 41.4706 56.4331C41.5878 56.3158 41.7467 56.25 41.9125 56.25H49.4812C49.647 56.25 49.806 56.3158 49.9232 56.4331C50.0404 56.5503 50.1062 56.7092 50.1062 56.875C50.1062 57.0408 50.0404 57.1997 49.9232 57.3169C49.806 57.4342 49.647 57.5 49.4812 57.5Z" fill="#DFAF05"/>
<path d="M39.525 57.5H22.65C22.4842 57.5 22.3253 57.4342 22.2081 57.3169C22.0908 57.1997 22.025 57.0408 22.025 56.875C22.025 56.7092 22.0908 56.5503 22.2081 56.4331C22.3253 56.3158 22.4842 56.25 22.65 56.25H39.525C39.6908 56.25 39.8497 56.3158 39.9669 56.4331C40.0842 56.5503 40.15 56.7092 40.15 56.875C40.15 57.0408 40.0842 57.1997 39.9669 57.3169C39.8497 57.4342 39.6908 57.5 39.525 57.5Z" fill="#DFAF05"/>
<path d="M19.6125 57.5H17.3125C17.1467 57.5 16.9878 57.4342 16.8706 57.3169C16.7533 57.1997 16.6875 57.0408 16.6875 56.875C16.6875 56.7092 16.7533 56.5503 16.8706 56.4331C16.9878 56.3158 17.1467 56.25 17.3125 56.25H19.6125C19.7783 56.25 19.9372 56.3158 20.0544 56.4331C20.1717 56.5503 20.2375 56.7092 20.2375 56.875C20.2375 57.0408 20.1717 57.1997 20.0544 57.3169C19.9372 57.4342 19.7783 57.5 19.6125 57.5Z" fill="#DFAF05"/>
<path d="M12.5 57.5H11.4813C11.3155 57.5 11.1565 57.4342 11.0393 57.3169C10.9221 57.1997 10.8563 57.0408 10.8563 56.875C10.8563 56.7092 10.9221 56.5503 11.0393 56.4331C11.1565 56.3158 11.3155 56.25 11.4813 56.25H12.5C12.6658 56.25 12.8247 56.3158 12.9419 56.4331C13.0592 56.5503 13.125 56.7092 13.125 56.875C13.125 57.0408 13.0592 57.1997 12.9419 57.3169C12.8247 57.4342 12.6658 57.5 12.5 57.5Z" fill="#DFAF05"/>
<path d="M28.125 44.0249H23.9062C23.7405 44.0249 23.5815 43.9591 23.4643 43.8418C23.3471 43.7246 23.2812 43.5657 23.2812 43.3999C23.2812 43.2341 23.3471 43.0752 23.4643 42.958C23.5815 42.8407 23.7405 42.7749 23.9062 42.7749H28.125C28.2908 42.7749 28.4497 42.8407 28.5669 42.958C28.6842 43.0752 28.75 43.2341 28.75 43.3999C28.75 43.5657 28.6842 43.7246 28.5669 43.8418C28.4497 43.9591 28.2908 44.0249 28.125 44.0249Z" fill="#DFAF05"/>
<path d="M35.9187 48.9502H31.6312C31.4655 48.9502 31.3065 48.8843 31.1893 48.7671C31.0721 48.6499 31.0062 48.491 31.0062 48.3252C31.0062 48.1594 31.0721 48.0005 31.1893 47.8833C31.3065 47.766 31.4655 47.7002 31.6312 47.7002H35.9187C36.0845 47.7002 36.2435 47.766 36.3607 47.8833C36.4779 48.0005 36.5437 48.1594 36.5437 48.3252C36.5437 48.491 36.4779 48.6499 36.3607 48.7671C36.2435 48.8843 36.0845 48.9502 35.9187 48.9502Z" fill="#DFAF05"/>
<path d="M29.8813 57.4998H29.8063C28.936 57.4998 28.1014 57.1541 27.4861 56.5387C26.8707 55.9234 26.525 55.0888 26.525 54.2186V51.8311H33.1625V54.2186C33.1625 55.0888 32.8168 55.9234 32.2014 56.5387C31.5861 57.1541 30.7515 57.4998 29.8813 57.4998ZM27.775 53.0811V54.2186C27.7766 54.7568 27.9912 55.2725 28.3718 55.653C28.7523 56.0336 29.268 56.2482 29.8063 56.2498H29.8813C30.4195 56.2482 30.9352 56.0336 31.3157 55.653C31.6963 55.2725 31.9109 54.7568 31.9125 54.2186V53.0811H27.775Z" fill="#DFAF05"/>
<path d="M24.875 10.875C24.7432 10.8749 24.6148 10.8331 24.5082 10.7556C24.4015 10.6782 24.3221 10.569 24.2812 10.4437L23.225 7.2687C23.1991 7.19073 23.1889 7.10843 23.1949 7.0265C23.2008 6.94457 23.2228 6.86461 23.2597 6.7912C23.3341 6.64292 23.4644 6.53029 23.6219 6.47808C23.7793 6.42586 23.9511 6.43834 24.0994 6.51277C24.2477 6.5872 24.3603 6.71748 24.4125 6.87495L25.4687 10.05C25.5203 10.2066 25.5078 10.3773 25.4341 10.5248C25.3603 10.6723 25.2313 10.7847 25.075 10.8375C25.0108 10.8608 24.9433 10.8735 24.875 10.875Z" fill="#DFAF05"/>
<path d="M35.375 11.0937C35.3086 11.0934 35.2429 11.0807 35.1813 11.0562C35.025 11.0034 34.8959 10.8911 34.8222 10.7436C34.7484 10.596 34.736 10.4254 34.7875 10.2687L35.8437 7.0937C35.906 6.95041 36.0197 6.83563 36.1624 6.77198C36.3051 6.70834 36.4664 6.70044 36.6146 6.74985C36.7628 6.79925 36.8872 6.90238 36.9631 7.03891C37.0391 7.17543 37.0612 7.33546 37.025 7.48745L35.9687 10.6625C35.9279 10.7878 35.8485 10.8969 35.7418 10.9744C35.6352 11.0518 35.5068 11.0936 35.375 11.0937Z" fill="#DFAF05"/>
<path d="M30 10.1626C29.8342 10.1626 29.6753 10.0967 29.5581 9.97954C29.4408 9.86233 29.375 9.70336 29.375 9.5376V6.19385C29.375 6.02809 29.4408 5.86912 29.5581 5.75191C29.6753 5.6347 29.8342 5.56885 30 5.56885C30.1658 5.56885 30.3247 5.6347 30.4419 5.75191C30.5592 5.86912 30.625 6.02809 30.625 6.19385V9.5376C30.625 9.61967 30.6088 9.70095 30.5774 9.77677C30.546 9.8526 30.5 9.9215 30.4419 9.97954C30.3839 10.0376 30.315 10.0836 30.2392 10.115C30.1633 10.1464 30.0821 10.1626 30 10.1626Z" fill="#DFAF05"/>
</svg>
