<svg width="54" height="58" viewBox="0 0 54 58" fill="none" xmlns="http://www.w3.org/2000/svg">
<path d="M53.8784 26.2889C53.7081 24.5043 53.3963 22.7628 52.7604 21.0808C52.1205 19.3865 51.2446 17.766 50.3051 16.2173C49.3923 14.7178 48.4118 13.2511 47.3185 11.8727C46.2333 10.5107 45.0969 9.19375 43.858 7.96504C43.2857 7.4071 42.6908 6.87172 42.0836 6.35275C41.337 5.72096 40.5883 5.07892 39.7903 4.51277C38.4611 3.56919 37.0334 2.72407 35.5668 2.00818C34.775 1.62255 33.973 1.25332 33.1545 0.935375C32.2663 0.58666 31.3638 0.311792 30.4427 0.0594866C30.2992 0.0184614 30.1515 0 30.0058 0C29.2653 0 28.572 0.496405 28.3669 1.23896C28.213 1.7969 28.3935 2.36715 28.7546 2.78356C29.2058 3.90355 29.6715 5.01943 30.1289 6.14352C30.6192 7.34966 30.8509 8.61939 31.054 9.90143C31.214 11.2101 31.3125 12.5168 31.3535 13.8357C31.4007 15.3127 31.3904 16.7793 31.2489 18.248C31.1094 19.0993 30.9186 19.93 30.6499 20.7546C30.3792 21.5936 30.0551 22.4141 29.7166 23.2305C29.3412 24.0633 28.9412 24.8715 28.494 25.6756C28.0633 26.4469 27.5259 27.1505 26.9905 27.8541C26.2438 28.8079 25.4623 29.7269 24.6931 30.6581C23.8767 31.6427 22.9782 32.5145 21.9977 33.333C21.0193 34.0919 20.0326 34.8509 19.0008 35.5381C17.8829 36.2806 16.6829 36.9022 15.4644 37.4642C13.9445 38.055 12.3486 38.3668 10.7896 38.8324C9.97528 39.0662 9.16503 39.2775 8.33427 39.4519C7.57325 39.6119 6.81018 39.7883 6.04096 39.9093C5.30046 39.9811 4.55585 40.0283 3.81124 40.055C2.93535 40.0796 2.07587 40.0508 1.21229 40.2047C0.498456 40.3339 0 41.1134 0 41.7985C0 41.9954 0.0451277 42.1883 0.114871 42.3729C0.106665 42.3975 0.0882046 42.416 0.0820508 42.4406C0.00410293 42.7318 0.00410293 43.0293 0.0820508 43.3206C0.16205 43.5995 0.305638 43.8436 0.506662 44.0488C1.01332 44.6682 1.55691 45.261 2.07587 45.8682C2.59074 46.4754 3.11791 47.0641 3.69227 47.6159C4.91277 48.7995 6.16403 49.9872 7.53017 51.0005C8.18658 51.4866 8.8799 51.9215 9.57733 52.3502C10.2542 52.7625 10.9065 53.222 11.5835 53.6425C12.2809 54.0753 12.9824 54.5143 13.6983 54.9163C14.4757 55.3532 15.3352 55.6897 16.1742 55.9891C16.9126 56.2517 17.6654 56.4835 18.4203 56.7071C19.3454 56.986 20.2849 57.2014 21.2449 57.306C22.8941 57.4886 24.5761 57.4517 26.2254 57.3491C27.9915 57.2445 29.7556 57.0414 31.4786 56.6127C32.2766 56.4137 33.0786 56.2107 33.8663 55.9686C34.734 55.6979 35.5729 55.3409 36.4078 54.984C37.8704 54.3563 39.2816 53.5645 40.656 52.7666C42.1636 51.8866 43.4723 50.66 44.7851 49.5195C45.4005 48.98 46.0262 48.4384 46.5882 47.8415C47.2364 47.1605 47.8374 46.4282 48.3954 45.6692C48.9061 44.9718 49.3964 44.258 49.8456 43.5216C50.262 42.8385 50.6025 42.1185 50.9328 41.3903C51.6589 39.7678 52.3071 38.1021 52.8569 36.4181C53.4086 34.7196 53.6958 32.9535 53.8784 31.1812C54.0486 29.5525 54.0322 27.9217 53.8784 26.2889ZM50.4282 31.9607C50.2415 33.1812 49.9953 34.3976 49.622 35.5709C49.2097 36.8693 48.7236 38.1452 48.2087 39.4088C47.8477 40.2457 47.4702 41.0765 47.0026 41.8621C46.4713 42.7544 45.8928 43.6139 45.2733 44.4487C44.5472 45.339 43.7616 46.1472 42.9021 46.9082C42.0262 47.6815 41.1524 48.459 40.2437 49.1954C39.3473 49.8333 38.3955 50.3748 37.4211 50.8938C36.5822 51.3471 35.7247 51.7841 34.8468 52.1635C33.7514 52.6107 32.6355 52.9553 31.4868 53.2486C30.3833 53.5358 29.2879 53.7902 28.1638 53.9563C27.0602 54.0835 25.9546 54.1574 24.8449 54.1922C23.69 54.2312 22.5351 54.2353 21.3885 54.1225C20.4818 53.9563 19.6121 53.7225 18.7301 53.4456C17.9239 53.1912 17.1301 52.9266 16.3485 52.6087C15.1075 52.0364 13.9486 51.3205 12.7978 50.58C11.6204 49.8251 10.406 49.1113 9.28195 48.2764C8.13735 47.3472 7.05838 46.3298 5.99993 45.3103C5.35584 44.6928 4.76097 44.0262 4.18252 43.3452C4.94148 43.298 5.70455 43.2365 6.45326 43.1257C7.2471 43.0088 8.03068 42.8016 8.81631 42.6313C9.58964 42.4652 10.3609 42.2949 11.126 42.0693C11.9732 41.8211 12.8204 41.5749 13.684 41.3719C14.4573 41.1893 15.2244 40.9493 15.965 40.6662C16.7998 40.3503 17.606 39.9442 18.3895 39.5237C19.1793 39.1011 19.9464 38.6601 20.6911 38.1575C21.3803 37.6919 22.0449 37.1852 22.7136 36.6868C23.4192 36.1555 24.129 35.6181 24.7895 35.0212C25.4582 34.4222 26.0859 33.7925 26.6746 33.1073C27.1894 32.5104 27.692 31.9032 28.1946 31.3002C28.8058 30.5679 29.3822 29.8007 29.9504 29.0315C30.4284 28.3915 30.8756 27.7269 31.2715 27.0336C32.172 25.4561 32.8796 23.7905 33.5176 22.0982C33.8007 21.3475 34.053 20.57 34.2027 19.7844C34.3894 18.847 34.4858 17.8993 34.5555 16.9475C34.6171 16.0962 34.6089 15.2409 34.6006 14.3855C34.5924 13.5547 34.5719 12.7199 34.5186 11.8891C34.4058 10.1414 34.1371 8.38555 33.776 6.67275C33.614 5.90558 33.3022 5.18558 33.0212 4.45739C34.8427 5.28199 36.5781 6.2666 38.2006 7.43582C39.4252 8.40401 40.6211 9.40913 41.7267 10.5148C42.8488 11.645 43.8682 12.8737 44.8549 14.127C46.5882 16.4429 48.0938 18.9003 49.3041 21.528C49.542 22.1228 49.7513 22.7239 49.9461 23.3351C50.1697 24.0428 50.2907 24.7874 50.4056 25.5238C50.5307 26.5843 50.6312 27.6387 50.6312 28.7074C50.6353 29.7987 50.5594 30.8797 50.4282 31.9607ZM47.8354 29.811C47.8682 30.7197 47.8846 31.6099 47.8067 32.5145C47.7369 33.3904 47.579 34.295 47.382 35.1524C47.1913 35.9668 46.9328 36.7586 46.6292 37.536C46.3092 38.3668 45.9564 39.218 45.5359 39.9996C45.1667 40.6847 44.7544 41.3411 44.3277 41.9934C43.8211 42.7749 43.2898 43.5339 42.6949 44.2518C41.616 45.5482 40.2642 46.6313 38.9062 47.62C37.577 48.5882 36.0899 49.2528 34.5617 49.8374C34.1965 49.9789 33.7186 49.8743 33.3945 49.6877C33.0581 49.4887 32.8037 49.1605 32.7012 48.7851C32.5925 48.3954 32.6478 47.9708 32.8509 47.6179C33.0663 47.2569 33.374 47.0703 33.7555 46.9246C33.9627 46.8446 34.1658 46.7708 34.3709 46.6908C35.4294 46.2231 36.4406 45.6692 37.3822 44.9944C38.5124 44.0836 39.577 43.1154 40.496 41.9913C41.5175 40.5698 42.3893 39.017 43.0949 37.4129C43.3964 36.6847 43.6775 35.9504 43.9052 35.1935C44.1082 34.5124 44.2293 33.8212 44.3298 33.1217C44.3831 32.6027 44.4364 32.0858 44.4323 31.5668C44.4282 30.9802 44.3995 30.3956 44.3749 29.813C44.338 28.8694 45.1933 28.0776 46.1062 28.0776C47.0723 28.0756 47.8026 28.8653 47.8354 29.811Z" fill="#B8F070"/>
</svg>
