<svg width="96" height="96" viewBox="0 0 96 96" fill="none" xmlns="http://www.w3.org/2000/svg">
<circle cx="48" cy="48" r="47.5" stroke="#FF4444"/>
<path fill-rule="evenodd" clip-rule="evenodd" d="M23.625 33.3049C23.625 32.2694 24.4645 31.4299 25.5 31.4299H70.5C71.5355 31.4299 72.375 32.2694 72.375 33.3049C72.375 34.3405 71.5355 35.1799 70.5 35.1799H25.5C24.4645 35.1799 23.625 34.3405 23.625 33.3049Z" fill="#FF4444"/>
<path fill-rule="evenodd" clip-rule="evenodd" d="M65.7707 57.0839C65.0377 63.7211 64.6712 67.0396 62.7977 69.3306C62.1425 70.1316 61.3672 70.8261 60.499 71.3894C58.0162 73.0001 54.6775 73.0001 47.9997 73.0001C41.3223 73.0001 37.9836 73.0001 35.5007 71.3894C34.6325 70.8261 33.8571 70.1316 33.202 69.3306C31.3284 67.0396 30.9619 63.7209 30.2289 57.0839L27.4116 31.5762H68.588L65.7707 57.0839ZM52.9997 44.1631C54.0352 44.1631 54.8747 45.0026 54.8747 46.0381V58.5381C54.8747 59.5736 54.0352 60.4131 52.9997 60.4131C51.9642 60.4131 51.1247 59.5736 51.1247 58.5381V46.0381C51.1247 45.0026 51.9642 44.1631 52.9997 44.1631ZM44.8747 46.0381C44.8747 45.0026 44.0352 44.1631 42.9997 44.1631C41.9642 44.1631 41.1247 45.0026 41.1247 46.0381V58.5381C41.1247 59.5736 41.9642 60.4131 42.9997 60.4131C44.0352 60.4131 44.8747 59.5736 44.8747 58.5381V46.0381Z" fill="#FF4444"/>
<path fill-rule="evenodd" clip-rule="evenodd" d="M43.8448 21.125C43.8848 21.125 43.9248 21.125 43.965 21.125H52.035C52.0753 21.125 52.1155 21.125 52.1553 21.125C53.458 21.1249 54.6238 21.1248 55.5663 21.256C56.5985 21.3998 57.635 21.7321 58.4753 22.6022C59.3068 23.4632 59.6155 24.5095 59.7503 25.5468C59.8753 26.5096 59.875 27.7049 59.875 29.0621V33.356H56.125V29.1773C56.125 27.6701 56.1213 26.7219 56.0315 26.0296C55.9478 25.3848 55.8198 25.2508 55.7778 25.2071L55.7753 25.2047C55.7395 25.1673 55.628 25.0508 55.049 24.9702C54.3963 24.8793 53.496 24.875 52.035 24.875H43.965C42.5042 24.875 41.6038 24.8793 40.9509 24.9702C40.3721 25.0508 40.2605 25.1673 40.2247 25.2047L40.2224 25.2071C40.1802 25.2508 40.0523 25.3848 39.9686 26.0296C39.8787 26.7219 39.875 27.6701 39.875 29.1773V33.356H36.125V29.1773C36.125 29.1387 36.125 29.1003 36.125 29.062C36.1249 27.7049 36.1248 26.5096 36.2498 25.5468C36.3845 24.5095 36.6934 23.4632 37.5248 22.6022C38.365 21.7321 39.4015 21.3998 40.4338 21.256C41.3764 21.1248 42.5421 21.1249 43.8448 21.125Z" fill="#FF4444"/>
</svg>
