<svg width="190" height="152" viewBox="0 0 190 152" fill="none" xmlns="http://www.w3.org/2000/svg">
<path fill-rule="evenodd" clip-rule="evenodd" d="M157.32 49.4004C160.258 49.4004 162.64 51.7822 162.64 54.7204C162.64 57.6585 160.258 60.0404 157.32 60.0404H126.92C129.858 60.0404 132.24 62.4222 132.24 65.3604C132.24 68.2985 129.858 70.6804 126.92 70.6804H143.64C146.578 70.6804 148.96 73.0622 148.96 76.0004C148.96 78.9385 146.578 81.3204 143.64 81.3204H135.908C132.203 81.3204 129.2 83.7022 129.2 86.6404C129.2 88.5992 130.72 90.3725 133.76 91.9604C136.698 91.9604 139.08 94.3422 139.08 97.2804C139.08 100.219 136.698 102.6 133.76 102.6H70.6797C67.7416 102.6 65.3597 100.219 65.3597 97.2804C65.3597 94.3422 67.7416 91.9604 70.6797 91.9604H41.0397C38.1016 91.9604 35.7197 89.5785 35.7197 86.6404C35.7197 83.7022 38.1016 81.3204 41.0397 81.3204H71.4397C74.3779 81.3204 76.7597 78.9385 76.7597 76.0004C76.7597 73.0622 74.3779 70.6804 71.4397 70.6804H52.4397C49.5016 70.6804 47.1197 68.2985 47.1197 65.3604C47.1197 62.4222 49.5016 60.0404 52.4397 60.0404H82.8397C79.9016 60.0404 77.5197 57.6585 77.5197 54.7204C77.5197 51.7822 79.9016 49.4004 82.8397 49.4004H157.32ZM157.32 70.6804C160.258 70.6804 162.64 73.0622 162.64 76.0004C162.64 78.9385 160.258 81.3204 157.32 81.3204C154.382 81.3204 152 78.9385 152 76.0004C152 73.0622 154.382 70.6804 157.32 70.6804Z" fill="#BFD0D4" fill-opacity="0.3"/>
<path d="M91.5801 101.08C105.641 101.08 117.04 89.6813 117.04 75.6202C117.04 61.559 105.641 50.1602 91.5801 50.1602C77.5189 50.1602 66.1201 61.559 66.1201 75.6202C66.1201 89.6813 77.5189 101.08 91.5801 101.08Z" fill="#F3F7FF" stroke="#5A7681" stroke-width="2.5"/>
<path d="M87.5008 95.3758C88.8374 95.6225 90.1973 95.7508 91.5804 95.7605C102.703 95.7605 111.72 86.7435 111.72 75.6205C111.72 64.4975 102.703 55.4805 91.5804 55.4805C88.7231 55.4805 86.0048 56.0755 83.5425 57.1484C79.2637 59.0128 75.7584 62.3204 73.6414 66.4563C72.2343 69.2053 71.4404 72.3202 71.4404 75.6205C71.4404 78.6149 72.0939 81.4566 73.2661 84.011C74.1029 85.8345 75.2041 87.5116 76.5205 88.9931" stroke="#5A7681" stroke-width="2.5" stroke-linecap="round"/>
<path d="M78.8857 91.2568C80.5183 92.5838 82.3627 93.6602 84.3604 94.4275" stroke="#5A7681" stroke-width="2.5" stroke-linecap="round"/>
<path d="M112.48 95.7598L117.04 100.32" stroke="#5A7681" stroke-width="2.5"/>
<path fill-rule="evenodd" clip-rule="evenodd" d="M116.303 99.5828C114.865 101.021 114.865 103.353 116.303 104.792L124.728 113.217C126.167 114.655 128.499 114.655 129.937 113.217C131.376 111.778 131.376 109.446 129.937 108.008L121.513 99.5828C120.074 98.1443 117.742 98.1443 116.303 99.5828Z" fill="#E8F0FE" stroke="#5A7681" stroke-width="2.5"/>
<path fill-rule="evenodd" clip-rule="evenodd" d="M86.6405 66.8799C86.6405 75.6944 93.786 82.8399 102.601 82.8399C104.332 82.8399 105.999 82.5641 107.56 82.0542C105.012 88.378 98.8176 92.842 91.5805 92.842C82.069 92.842 74.3584 85.1314 74.3584 75.6199C74.3584 67.0011 80.6895 59.8611 88.9547 58.5967C87.4864 61.0121 86.6405 63.8472 86.6405 66.8799Z" fill="#ECF1F3"/>
<path d="M91.9605 61.5605C90.9927 61.5605 90.0472 61.6558 89.1327 61.8373M86.3705 62.6824C81.1714 64.8672 77.5205 70.0075 77.5205 76.0005" stroke="#769AA3" stroke-width="2.5" stroke-linecap="round"/>
<path d="M132.373 75.8307H126.16M137.18 69.9199H124.126H137.18ZM142.5 69.9199H140.811H142.5Z" stroke="#769AA3" stroke-width="2.5" stroke-linecap="round" stroke-linejoin="round"/>
<path d="M63.9731 92.5507H57.7595M60.4195 85.8799H47.366H60.4195ZM42.9396 85.8799H39.7314H42.9396Z" stroke="#769AA3" stroke-width="2.5" stroke-linecap="round" stroke-linejoin="round"/>
</svg>
