<svg width="47" height="59" viewBox="0 0 47 59" fill="none" xmlns="http://www.w3.org/2000/svg">
<path d="M32.449 20.3868C32.3738 27.9062 25.855 34.0192 18.4952 33.4676C10.6796 32.8819 5.05889 26.0714 6.11647 18.4631C7.05553 11.7119 12.0266 6.47641 18.4383 5.46213C19.1198 5.355 19.8332 5.22964 19.954 6.12084C20.0634 6.92315 19.3887 7.02116 18.7482 7.13968C10.9805 8.55511 6.00023 16.3776 8.23164 23.6348C9.875 28.9775 15.1652 32.3781 20.7358 31.6738C26.2243 30.9787 30.5435 26.2469 30.76 20.6877C30.9652 15.434 26.8534 10.7911 21.7569 10.5221C16.159 10.2281 11.5639 14.2601 11.2448 19.7418C10.9782 24.3391 14.6797 28.2686 19.2542 28.2481C23.8698 28.2276 27.4916 24.314 27.1702 19.6917C26.94 16.3685 23.8242 13.7177 20.5398 14.0482C16.9385 14.4106 14.3766 17.5195 14.8507 20.9567C15.1629 23.2109 17.2986 24.8406 19.6896 24.6491C21.8709 24.4736 23.7171 22.461 23.692 20.2797C23.6783 18.9304 22.6686 17.7611 21.3717 17.5925C20.0201 17.4169 18.8189 18.2147 18.436 19.5526C18.3744 19.7692 18.3266 19.9948 18.3061 20.2205C18.2536 20.829 17.9231 21.1208 17.326 21.0478C16.7516 20.9772 16.6399 20.5601 16.6308 20.0518C16.5829 17.7155 18.9329 15.6232 21.3489 15.867C24.2048 16.1542 25.9485 18.7503 25.2328 21.6496C24.3917 25.0571 20.966 27.0948 17.6063 26.1899C14.176 25.2645 12.3184 21.6906 13.3828 18.0665C14.6205 13.8544 18.9032 11.4475 23.1245 12.594C27.3753 13.7473 29.8141 18.1828 28.6471 22.6411C27.2636 27.9267 21.8526 31.0607 16.6239 29.6043C11.3497 28.1341 8.40943 22.6661 9.95022 17.1936C11.548 11.5159 16.9385 8.07646 22.8988 8.93119C28.344 9.70615 32.5037 14.6978 32.449 20.3868Z" fill="#4987E5"/>
<path d="M39.5991 38.1944C39.9205 38.7505 40.4538 39.0035 40.8572 39.391C41.8373 40.3346 42.0379 41.4196 41.3222 42.5615C40.8208 43.3592 40.5792 44.1752 40.5404 45.1211C40.4379 47.7035 38.5688 49.4609 35.9705 49.4928C34.6052 49.5087 33.2399 49.4745 31.8746 49.5019C28.7018 49.5657 26.4773 51.8085 26.418 54.9836C26.4043 55.779 26.4317 56.5768 26.4043 57.3722C26.3861 57.9238 26.1285 58.3478 25.5131 58.3341C24.9752 58.3227 24.6766 57.9535 24.6766 57.4406C24.6744 55.9272 24.5171 54.4023 24.9501 52.9163C25.8049 49.9851 28.4306 47.9315 31.4962 47.8312C32.9367 47.7833 34.3795 47.8335 35.82 47.8084C37.6754 47.7765 38.7193 46.7782 38.8036 44.9593C38.8538 43.8789 39.0612 42.8418 39.6994 41.9552C40.1666 41.3056 39.9866 40.8657 39.4167 40.4212C38.7603 39.9084 38.1198 39.3705 37.5113 38.8007C36.8594 38.1898 36.9483 37.6382 37.7232 37.1778C37.7551 37.1596 37.7939 37.1482 37.8281 37.1345C39.7769 36.4804 40.8823 35.4866 40.0071 33.1572C39.5854 32.0335 40.5655 30.7115 41.7826 30.169C42.4026 29.8933 43.0613 29.7018 43.6858 29.4306C44.5998 29.0362 44.6796 28.6009 43.9343 27.9376C42.9724 27.0806 41.9878 26.2441 40.9849 25.435C40.1256 24.7421 39.6857 23.8418 39.6743 22.7751C39.6492 20.3066 39.5763 17.8495 38.8446 15.4609C38.6874 14.9503 38.929 14.5377 39.4418 14.4055C40.1074 14.2346 40.4105 14.6654 40.5678 15.2352C41.1171 17.2205 41.4362 19.249 41.3108 21.3049C41.2174 22.8434 41.6345 24.015 42.9679 24.8902C43.7861 25.4259 44.5018 26.1279 45.2312 26.7889C46.674 28.0972 46.3184 30.1873 44.5383 30.9622C44.4699 30.9919 44.3924 31.0055 44.3217 31.0329C41.6778 32.0905 41.6801 32.0905 42.0493 34.976C42.1883 36.061 41.794 36.9089 40.8778 37.4969C40.4789 37.7545 40.0413 37.9551 39.5991 38.1944Z" fill="#4987E5"/>
<path d="M22.0532 1.77633C11.2562 1.71707 3.12833 8.78512 1.83826 18.0914C1.75165 18.7114 1.65136 19.4248 0.844494 19.3427C-0.0307496 19.2538 0.010277 18.529 0.106007 17.8475C1.32086 9.13385 8.37295 1.82192 17.0274 0.30392C25.6772 -1.2118 34.514 3.04589 38.7216 10.7544C38.8127 10.9208 38.9039 11.0872 38.9837 11.2581C39.207 11.7254 39.1797 12.1812 38.7193 12.4548C38.2087 12.7602 37.7551 12.571 37.4793 12.0627C36.8639 10.9276 36.1893 9.83131 35.3665 8.83754C31.5373 4.2106 26.6117 1.86523 22.0532 1.77633Z" fill="#4987E5"/>
<path d="M36.016 20.3228C35.9818 29.285 28.6038 36.859 19.7921 36.9753C19.4206 36.9798 19.0195 37.0687 18.6981 36.7952C18.4109 36.549 18.3402 36.2277 18.4587 35.8675C18.6206 35.3729 19.0217 35.3205 19.4616 35.3045C21.725 35.2293 23.888 34.7347 25.9234 33.7227C34.0148 29.7021 36.8252 19.3564 31.6991 12.3796C29.5816 9.49855 26.728 7.76173 23.2133 7.13037C22.5637 7.01413 21.9278 6.89561 22.0623 6.07507C22.199 5.24997 22.8486 5.34798 23.496 5.44827C30.6233 6.55144 36.0457 12.9813 36.016 20.3228Z" fill="#4987E5"/>
<path d="M9.0385 43.6214C9.03166 45.1645 8.77183 46.8443 8.22936 48.474C7.25155 51.4165 6.26462 54.3568 5.28681 57.3016C5.08623 57.9056 4.8583 58.5575 4.06283 58.2886C3.29472 58.0287 3.44059 57.4065 3.65484 56.7728C4.61214 53.942 5.51473 51.0929 6.48343 48.2666C7.99231 43.8562 7.48631 39.6896 5.05204 35.7419C3.03944 32.478 1.15447 29.1571 0.400032 25.3347C0.210852 24.3706 0.11968 23.3882 0.0102748 22.4104C-0.0467072 21.9044 0.126518 21.4896 0.700897 21.4258C1.30491 21.3597 1.62856 21.6696 1.67187 22.2668C2.00236 26.9553 4.07651 30.9737 6.51534 34.8484C8.17009 37.4765 9.03622 40.3369 9.0385 43.6214Z" fill="#4987E5"/>
</svg>
