<svg width="99" height="99" viewBox="0 0 99 99" fill="none" xmlns="http://www.w3.org/2000/svg">
<circle cx="49.5" cy="49.5" r="49.5" fill="#FF0000" fill-opacity="0.2"/>
<circle cx="49.061" cy="49.061" r="43.061" fill="#F73B3B"/>
<path d="M31.0824 56.196C29.8317 56.196 28.6277 56.0373 27.4704 55.72C26.3317 55.384 25.4264 54.9827 24.7544 54.516L26.0984 51.856C26.7704 52.2853 27.5731 52.64 28.5064 52.92C29.4397 53.2 30.3731 53.34 31.3064 53.34C32.4077 53.34 33.2011 53.1907 33.6864 52.892C34.1904 52.5933 34.4424 52.192 34.4424 51.688C34.4424 51.2773 34.2744 50.9693 33.9384 50.764C33.6024 50.54 33.1638 50.372 32.6224 50.26C32.0811 50.148 31.4744 50.0453 30.8024 49.952C30.1491 49.8587 29.4864 49.7373 28.8144 49.588C28.1611 49.42 27.5637 49.1867 27.0224 48.888C26.4811 48.5707 26.0424 48.1507 25.7064 47.628C25.3704 47.1053 25.2024 46.4147 25.2024 45.556C25.2024 44.604 25.4731 43.7827 26.0144 43.092C26.5557 42.3827 27.3117 41.8413 28.2824 41.468C29.2717 41.076 30.4384 40.88 31.7824 40.88C32.7904 40.88 33.8077 40.992 34.8344 41.216C35.8611 41.44 36.7104 41.7573 37.3824 42.168L36.0384 44.828C35.3291 44.3987 34.6104 44.1093 33.8824 43.96C33.1731 43.792 32.4638 43.708 31.7544 43.708C30.6904 43.708 29.8971 43.8667 29.3744 44.184C28.8704 44.5013 28.6184 44.9027 28.6184 45.388C28.6184 45.836 28.7864 46.172 29.1224 46.396C29.4584 46.62 29.8971 46.7973 30.4384 46.928C30.9797 47.0587 31.5771 47.1707 32.2304 47.264C32.9024 47.3387 33.5651 47.46 34.2184 47.628C34.8718 47.796 35.4691 48.0293 36.0104 48.328C36.5704 48.608 37.0184 49.0093 37.3544 49.532C37.6904 50.0547 37.8584 50.736 37.8584 51.576C37.8584 52.5093 37.5784 53.3213 37.0184 54.012C36.4771 54.7027 35.7024 55.244 34.6944 55.636C33.6864 56.0093 32.4824 56.196 31.0824 56.196ZM48.9926 56.196C47.4619 56.196 46.0992 55.8693 44.9046 55.216C43.7099 54.544 42.7672 53.6293 42.0766 52.472C41.3859 51.3147 41.0406 49.9987 41.0406 48.524C41.0406 47.0307 41.3859 45.7147 42.0766 44.576C42.7672 43.4187 43.7099 42.5133 44.9046 41.86C46.0992 41.2067 47.4619 40.88 48.9926 40.88C50.5419 40.88 51.9139 41.2067 53.1086 41.86C54.3219 42.5133 55.2646 43.4093 55.9366 44.548C56.6272 45.6867 56.9726 47.012 56.9726 48.524C56.9726 49.9987 56.6272 51.3147 55.9366 52.472C55.2646 53.6293 54.3219 54.544 53.1086 55.216C51.9139 55.8693 50.5419 56.196 48.9926 56.196ZM48.9926 53.2C49.8512 53.2 50.6166 53.0133 51.2886 52.64C51.9606 52.2667 52.4832 51.7253 52.8566 51.016C53.2486 50.3067 53.4446 49.476 53.4446 48.524C53.4446 47.5533 53.2486 46.7227 52.8566 46.032C52.4832 45.3227 51.9606 44.7813 51.2886 44.408C50.6166 44.0347 49.8606 43.848 49.0206 43.848C48.1619 43.848 47.3966 44.0347 46.7246 44.408C46.0712 44.7813 45.5486 45.3227 45.1566 46.032C44.7646 46.7227 44.5686 47.5533 44.5686 48.524C44.5686 49.476 44.7646 50.3067 45.1566 51.016C45.5486 51.7253 46.0712 52.2667 46.7246 52.64C47.3966 53.0133 48.1526 53.2 48.9926 53.2ZM66.3394 56.196C65.0888 56.196 63.8848 56.0373 62.7274 55.72C61.5888 55.384 60.6834 54.9827 60.0114 54.516L61.3554 51.856C62.0274 52.2853 62.8301 52.64 63.7634 52.92C64.6968 53.2 65.6301 53.34 66.5634 53.34C67.6648 53.34 68.4581 53.1907 68.9434 52.892C69.4474 52.5933 69.6994 52.192 69.6994 51.688C69.6994 51.2773 69.5314 50.9693 69.1954 50.764C68.8594 50.54 68.4208 50.372 67.8794 50.26C67.3381 50.148 66.7314 50.0453 66.0594 49.952C65.4061 49.8587 64.7434 49.7373 64.0714 49.588C63.4181 49.42 62.8208 49.1867 62.2794 48.888C61.7381 48.5707 61.2994 48.1507 60.9634 47.628C60.6274 47.1053 60.4594 46.4147 60.4594 45.556C60.4594 44.604 60.7301 43.7827 61.2714 43.092C61.8128 42.3827 62.5688 41.8413 63.5394 41.468C64.5288 41.076 65.6954 40.88 67.0394 40.88C68.0474 40.88 69.0648 40.992 70.0914 41.216C71.1181 41.44 71.9674 41.7573 72.6394 42.168L71.2954 44.828C70.5861 44.3987 69.8674 44.1093 69.1394 43.96C68.4301 43.792 67.7208 43.708 67.0114 43.708C65.9474 43.708 65.1541 43.8667 64.6314 44.184C64.1274 44.5013 63.8754 44.9027 63.8754 45.388C63.8754 45.836 64.0434 46.172 64.3794 46.396C64.7154 46.62 65.1541 46.7973 65.6954 46.928C66.2368 47.0587 66.8341 47.1707 67.4874 47.264C68.1594 47.3387 68.8221 47.46 69.4754 47.628C70.1288 47.796 70.7261 48.0293 71.2674 48.328C71.8274 48.608 72.2754 49.0093 72.6114 49.532C72.9474 50.0547 73.1154 50.736 73.1154 51.576C73.1154 52.5093 72.8354 53.3213 72.2754 54.012C71.7341 54.7027 70.9594 55.244 69.9514 55.636C68.9434 56.0093 67.7394 56.196 66.3394 56.196Z" fill="white"/>
<path d="M31.8906 63.5724H32.4666V68.0244H31.8906V63.5724ZM35.2284 68.0604C34.9124 68.0604 34.6284 67.9904 34.3764 67.8504C34.1244 67.7104 33.9264 67.5184 33.7824 67.2744C33.6424 67.0264 33.5724 66.7464 33.5724 66.4344C33.5724 66.1224 33.6424 65.8444 33.7824 65.6004C33.9264 65.3524 34.1244 65.1604 34.3764 65.0244C34.6284 64.8844 34.9124 64.8144 35.2284 64.8144C35.5444 64.8144 35.8264 64.8844 36.0744 65.0244C36.3264 65.1604 36.5224 65.3524 36.6624 65.6004C36.8064 65.8444 36.8784 66.1224 36.8784 66.4344C36.8784 66.7464 36.8064 67.0264 36.6624 67.2744C36.5224 67.5184 36.3264 67.7104 36.0744 67.8504C35.8264 67.9904 35.5444 68.0604 35.2284 68.0604ZM35.2284 67.5564C35.4324 67.5564 35.6144 67.5104 35.7744 67.4184C35.9384 67.3224 36.0664 67.1904 36.1584 67.0224C36.2504 66.8504 36.2964 66.6544 36.2964 66.4344C36.2964 66.2144 36.2504 66.0204 36.1584 65.8524C36.0664 65.6804 35.9384 65.5484 35.7744 65.4564C35.6144 65.3644 35.4324 65.3184 35.2284 65.3184C35.0244 65.3184 34.8404 65.3644 34.6764 65.4564C34.5164 65.5484 34.3884 65.6804 34.2924 65.8524C34.2004 66.0204 34.1544 66.2144 34.1544 66.4344C34.1544 66.6544 34.2004 66.8504 34.2924 67.0224C34.3884 67.1904 34.5164 67.3224 34.6764 67.4184C34.8404 67.5104 35.0244 67.5564 35.2284 67.5564ZM39.673 64.8144C40.077 64.8144 40.397 64.9324 40.633 65.1684C40.873 65.4004 40.993 65.7424 40.993 66.1944V68.0244H40.417V66.2604C40.417 65.9524 40.343 65.7204 40.195 65.5644C40.047 65.4084 39.835 65.3304 39.559 65.3304C39.247 65.3304 39.001 65.4224 38.821 65.6064C38.641 65.7864 38.551 66.0464 38.551 66.3864V68.0244H37.975V64.8444H38.527V65.3244C38.643 65.1604 38.799 65.0344 38.995 64.9464C39.195 64.8584 39.421 64.8144 39.673 64.8144ZM45.4186 64.8444V67.5924C45.4186 68.1484 45.2806 68.5584 45.0046 68.8224C44.7286 69.0904 44.3166 69.2244 43.7686 69.2244C43.4686 69.2244 43.1826 69.1824 42.9106 69.0984C42.6386 69.0184 42.4186 68.9024 42.2506 68.7504L42.5266 68.3064C42.6746 68.4344 42.8566 68.5344 43.0726 68.6064C43.2926 68.6824 43.5186 68.7204 43.7506 68.7204C44.1226 68.7204 44.3966 68.6324 44.5726 68.4564C44.7526 68.2804 44.8426 68.0124 44.8426 67.6524V67.4004C44.7066 67.5644 44.5386 67.6884 44.3386 67.7724C44.1426 67.8524 43.9286 67.8924 43.6966 67.8924C43.3926 67.8924 43.1166 67.8284 42.8686 67.7004C42.6246 67.5684 42.4326 67.3864 42.2926 67.1544C42.1526 66.9184 42.0826 66.6504 42.0826 66.3504C42.0826 66.0504 42.1526 65.7844 42.2926 65.5524C42.4326 65.3164 42.6246 65.1344 42.8686 65.0064C43.1166 64.8784 43.3926 64.8144 43.6966 64.8144C43.9366 64.8144 44.1586 64.8584 44.3626 64.9464C44.5706 65.0344 44.7406 65.1644 44.8726 65.3364V64.8444H45.4186ZM43.7626 67.3884C43.9706 67.3884 44.1566 67.3444 44.3206 67.2564C44.4886 67.1684 44.6186 67.0464 44.7106 66.8904C44.8066 66.7304 44.8546 66.5504 44.8546 66.3504C44.8546 66.0424 44.7526 65.7944 44.5486 65.6064C44.3446 65.4144 44.0826 65.3184 43.7626 65.3184C43.4386 65.3184 43.1746 65.4144 42.9706 65.6064C42.7666 65.7944 42.6646 66.0424 42.6646 66.3504C42.6646 66.5504 42.7106 66.7304 42.8026 66.8904C42.8986 67.0464 43.0286 67.1684 43.1926 67.2564C43.3606 67.3444 43.5506 67.3884 43.7626 67.3884ZM50.4165 64.8144C50.7245 64.8144 51.0005 64.8824 51.2445 65.0184C51.4885 65.1544 51.6785 65.3444 51.8145 65.5884C51.9545 65.8324 52.0245 66.1144 52.0245 66.4344C52.0245 66.7544 51.9545 67.0384 51.8145 67.2864C51.6785 67.5304 51.4885 67.7204 51.2445 67.8564C51.0005 67.9924 50.7245 68.0604 50.4165 68.0604C50.1885 68.0604 49.9785 68.0164 49.7865 67.9284C49.5985 67.8404 49.4385 67.7124 49.3065 67.5444V69.1884H48.7305V64.8444H49.2825V65.3484C49.4105 65.1724 49.5725 65.0404 49.7685 64.9524C49.9645 64.8604 50.1805 64.8144 50.4165 64.8144ZM50.3685 67.5564C50.5725 67.5564 50.7545 67.5104 50.9145 67.4184C51.0785 67.3224 51.2065 67.1904 51.2985 67.0224C51.3945 66.8504 51.4425 66.6544 51.4425 66.4344C51.4425 66.2144 51.3945 66.0204 51.2985 65.8524C51.2065 65.6804 51.0785 65.5484 50.9145 65.4564C50.7545 65.3644 50.5725 65.3184 50.3685 65.3184C50.1685 65.3184 49.9865 65.3664 49.8225 65.4624C49.6625 65.5544 49.5345 65.6844 49.4385 65.8524C49.3465 66.0204 49.3005 66.2144 49.3005 66.4344C49.3005 66.6544 49.3465 66.8504 49.4385 67.0224C49.5305 67.1904 49.6585 67.3224 49.8225 67.4184C49.9865 67.5104 50.1685 67.5564 50.3685 67.5564ZM53.6723 65.3784C53.7723 65.1944 53.9203 65.0544 54.1163 64.9584C54.3123 64.8624 54.5503 64.8144 54.8303 64.8144V65.3724C54.7983 65.3684 54.7543 65.3664 54.6983 65.3664C54.3863 65.3664 54.1403 65.4604 53.9603 65.6484C53.7843 65.8324 53.6963 66.0964 53.6963 66.4404V68.0244H53.1203V64.8444H53.6723V65.3784ZM58.6849 66.4524C58.6849 66.4964 58.6809 66.5544 58.6729 66.6264H56.0929C56.1289 66.9064 56.2509 67.1324 56.4589 67.3044C56.6709 67.4724 56.9329 67.5564 57.2449 67.5564C57.6249 67.5564 57.9309 67.4284 58.1629 67.1724L58.4809 67.5444C58.3369 67.7124 58.1569 67.8404 57.9409 67.9284C57.7289 68.0164 57.4909 68.0604 57.2269 68.0604C56.8909 68.0604 56.5929 67.9924 56.3329 67.8564C56.0729 67.7164 55.8709 67.5224 55.7269 67.2744C55.5869 67.0264 55.5169 66.7464 55.5169 66.4344C55.5169 66.1264 55.5849 65.8484 55.7209 65.6004C55.8609 65.3524 56.0509 65.1604 56.2909 65.0244C56.5349 64.8844 56.8089 64.8144 57.1129 64.8144C57.4169 64.8144 57.6869 64.8844 57.9229 65.0244C58.1629 65.1604 58.3489 65.3524 58.4809 65.6004C58.6169 65.8484 58.6849 66.1324 58.6849 66.4524ZM57.1129 65.3004C56.8369 65.3004 56.6049 65.3844 56.4169 65.5524C56.2329 65.7204 56.1249 65.9404 56.0929 66.2124H58.1329C58.1009 65.9444 57.9909 65.7264 57.8029 65.5584C57.6189 65.3864 57.3889 65.3004 57.1129 65.3004ZM60.6968 68.0604C60.4368 68.0604 60.1868 68.0264 59.9468 67.9584C59.7068 67.8864 59.5188 67.7964 59.3828 67.6884L59.6228 67.2324C59.7628 67.3324 59.9328 67.4124 60.1328 67.4724C60.3328 67.5324 60.5348 67.5624 60.7388 67.5624C61.2428 67.5624 61.4948 67.4184 61.4948 67.1304C61.4948 67.0344 61.4608 66.9584 61.3928 66.9024C61.3248 66.8464 61.2388 66.8064 61.1348 66.7824C61.0348 66.7544 60.8908 66.7244 60.7028 66.6924C60.4468 66.6524 60.2368 66.6064 60.0728 66.5544C59.9128 66.5024 59.7748 66.4144 59.6588 66.2904C59.5428 66.1664 59.4848 65.9924 59.4848 65.7684C59.4848 65.4804 59.6048 65.2504 59.8448 65.0784C60.0848 64.9024 60.4068 64.8144 60.8108 64.8144C61.0228 64.8144 61.2348 64.8404 61.4468 64.8924C61.6588 64.9444 61.8328 65.0144 61.9688 65.1024L61.7228 65.5584C61.4628 65.3904 61.1568 65.3064 60.8048 65.3064C60.5608 65.3064 60.3748 65.3464 60.2468 65.4264C60.1188 65.5064 60.0548 65.6124 60.0548 65.7444C60.0548 65.8484 60.0908 65.9304 60.1628 65.9904C60.2348 66.0504 60.3228 66.0944 60.4268 66.1224C60.5348 66.1504 60.6848 66.1824 60.8768 66.2184C61.1328 66.2624 61.3388 66.3104 61.4948 66.3624C61.6548 66.4104 61.7908 66.4944 61.9028 66.6144C62.0148 66.7344 62.0708 66.9024 62.0708 67.1184C62.0708 67.4064 61.9468 67.6364 61.6988 67.8084C61.4548 67.9764 61.1208 68.0604 60.6968 68.0604ZM64.0026 68.0604C63.7426 68.0604 63.4926 68.0264 63.2526 67.9584C63.0126 67.8864 62.8246 67.7964 62.6886 67.6884L62.9286 67.2324C63.0686 67.3324 63.2386 67.4124 63.4386 67.4724C63.6386 67.5324 63.8406 67.5624 64.0446 67.5624C64.5486 67.5624 64.8006 67.4184 64.8006 67.1304C64.8006 67.0344 64.7666 66.9584 64.6986 66.9024C64.6306 66.8464 64.5446 66.8064 64.4406 66.7824C64.3406 66.7544 64.1966 66.7244 64.0086 66.6924C63.7526 66.6524 63.5426 66.6064 63.3786 66.5544C63.2186 66.5024 63.0806 66.4144 62.9646 66.2904C62.8486 66.1664 62.7906 65.9924 62.7906 65.7684C62.7906 65.4804 62.9106 65.2504 63.1506 65.0784C63.3906 64.9024 63.7126 64.8144 64.1166 64.8144C64.3286 64.8144 64.5406 64.8404 64.7526 64.8924C64.9646 64.9444 65.1386 65.0144 65.2746 65.1024L65.0286 65.5584C64.7686 65.3904 64.4626 65.3064 64.1106 65.3064C63.8666 65.3064 63.6806 65.3464 63.5526 65.4264C63.4246 65.5064 63.3606 65.6124 63.3606 65.7444C63.3606 65.8484 63.3966 65.9304 63.4686 65.9904C63.5406 66.0504 63.6286 66.0944 63.7326 66.1224C63.8406 66.1504 63.9906 66.1824 64.1826 66.2184C64.4386 66.2624 64.6446 66.3104 64.8006 66.3624C64.9606 66.4104 65.0966 66.4944 65.2086 66.6144C65.3206 66.7344 65.3766 66.9024 65.3766 67.1184C65.3766 67.4064 65.2526 67.6364 65.0046 67.8084C64.7606 67.9764 64.4266 68.0604 64.0026 68.0604Z" fill="white"/>
</svg>
