<svg width="22" height="22" viewBox="0 0 22 22" fill="none" xmlns="http://www.w3.org/2000/svg">
<path d="M2.89498 12.7699C2.24139 11.6807 2.24139 10.3198 2.89498 9.23049C3.09443 8.89806 3.42484 8.6652 3.80497 8.58918L5.35692 8.27878C5.44937 8.26029 5.53272 8.21071 5.59308 8.13827L7.48974 5.86228C8.57375 4.56147 9.11575 3.91106 9.59941 4.08618C10.0831 4.2613 10.0831 5.10794 10.0831 6.80122V15.1992C10.0831 16.8925 10.0831 17.7391 9.59941 17.9143C9.11575 18.0893 8.57375 17.439 7.48974 16.1381L5.59308 13.8621C5.53272 13.7897 5.44937 13.7401 5.35692 13.7216L3.80497 13.4112C3.42484 13.3352 3.09443 13.1024 2.89498 12.7699Z" stroke="black"/>
<path d="M14.2407 7.75928C15.0959 8.61439 15.5784 9.77285 15.5832 10.9821C15.5879 12.1915 15.1146 13.3536 14.2662 14.2155" stroke="black" stroke-linecap="round"/>
<path d="M18.019 5.81445C19.3872 7.18265 20.1592 9.03612 20.1668 10.971C20.1745 12.9059 19.4171 14.7654 18.0597 16.1443" stroke="black" stroke-linecap="round"/>
</svg>
