<svg width="23" height="23" viewBox="0 0 23 23" fill="none" xmlns="http://www.w3.org/2000/svg">
<path d="M5.44119 13.2152C4.75789 12.0764 4.75789 10.6537 5.44119 9.51492C5.6497 9.16737 5.99513 8.92393 6.39254 8.84445L8.01503 8.51995C8.11169 8.50062 8.19882 8.44878 8.26193 8.37305L10.2448 5.9936C11.3781 4.63367 11.9447 3.95369 12.4504 4.13677C12.9561 4.31985 12.9561 5.20498 12.9561 6.97522V15.7549C12.9561 17.5251 12.9561 18.4103 12.4504 18.5934C11.9447 18.7764 11.3781 18.0965 10.2448 16.7365L8.26193 14.3571C8.19882 14.2814 8.11169 14.2295 8.01503 14.2102L6.39254 13.8857C5.99513 13.8062 5.6497 13.5628 5.44119 13.2152Z" stroke="white" stroke-width="1.5"/>
<path d="M17.3027 7.97656C18.1968 8.87054 18.7012 10.0817 18.7062 11.3459C18.7112 12.6102 18.2163 13.8252 17.3294 14.7262" stroke="white" stroke-width="1.5" stroke-linecap="round"/>
</svg>
