<svg width="150" height="136" viewBox="0 0 150 136" fill="none" xmlns="http://www.w3.org/2000/svg">
<ellipse opacity="0.05" cx="78.3174" cy="72.8693" rx="62.6535" ry="62.6535" fill="#789CA5"/>
<path fill-rule="evenodd" clip-rule="evenodd" d="M78.594 49.8561C80.1188 64.7247 71.3797 70.9259 68.9033 72.3688C68.9238 72.5223 68.934 72.686 68.934 72.8497V94.0629L73.0068 96.3039H94.4246C94.4655 96.3039 94.5167 96.3039 94.5576 96.3141C99.4899 96.9895 99.6844 91.1567 99.6844 90.4301C99.6537 90.0617 99.8583 89.6933 100.216 89.5399C103.307 88.2096 101.997 84.0345 101.874 83.6763C101.711 83.2568 101.905 82.7758 102.314 82.5711C106.326 80.6269 103.798 77.1272 103.471 76.6871C103.205 76.4006 103.164 75.9606 103.378 75.6127C110.644 64.4689 87.947 67.2216 86.4939 67.4057C86.3814 67.4262 86.2586 67.4364 86.1358 67.4057C85.6548 67.3137 85.3478 66.8532 85.4399 66.3722C88.8271 49.2114 81.0193 49.3956 78.5736 49.8356L78.594 49.8561Z" fill="#789CA5"/>
<path fill-rule="evenodd" clip-rule="evenodd" d="M67.4807 94.3187V72.8498C67.4807 72.3381 67.276 71.8776 66.9384 71.5502C66.6007 71.2125 66.1402 71.0078 65.6388 71.0078H54.2801C53.7684 71.0078 53.3079 71.2125 52.9805 71.5502C52.6428 71.8879 52.4381 72.3483 52.4381 72.8498V94.3187C52.4381 94.8304 52.6428 95.2909 52.9805 95.6183C53.3182 95.956 53.7786 96.1607 54.2801 96.1607H65.6388C66.1504 96.1607 66.6109 95.956 66.9384 95.6183C67.2146 95.342 67.3988 94.9839 67.4602 94.5848C67.4602 94.5234 67.4602 94.4518 67.4807 94.3904C67.4807 94.3699 67.4807 94.3392 67.4807 94.3187Z" fill="#789CA5"/>
<path opacity="0.1" d="M94.5024 4.80133C93.9164 4.64095 93.3322 4.64742 92.6646 4.65482C92.4977 4.65667 92.3308 4.65852 92.1639 4.66037C92.9901 3.90028 93.8163 3.14018 94.3903 2.21601C94.5544 1.96387 94.2178 1.71729 94.0528 1.886C93.0597 2.64794 92.1509 3.49239 91.2422 4.33684C91.2302 3.25229 91.2182 2.16773 91.2061 1.08318C91.2006 0.582614 90.4495 0.59094 90.4551 1.0915C90.4671 2.17606 90.48 3.34404 90.492 4.42859C89.7326 3.68607 88.9742 3.02698 88.2157 2.36789C87.8791 2.12131 87.4665 2.54307 87.8031 2.78965C88.3946 3.45059 88.9862 4.11154 89.6612 4.77155C88.8267 4.7808 87.9922 4.79006 87.1586 4.88273C86.8248 4.88643 86.8303 5.387 87.1641 5.3833C88.1665 5.45562 89.0844 5.44545 90.0024 5.43527C89.2588 6.11102 88.516 6.87019 87.8567 7.62843C87.5266 7.96584 88.0319 8.37743 88.363 8.12345C89.1066 7.4477 89.8512 6.85539 90.5115 6.18057C90.5216 7.09827 90.5327 8.09939 90.7098 9.01524C90.7117 9.1821 91.0455 9.1784 91.1271 9.01062C91.2847 8.1745 91.2746 7.2568 91.2644 6.3391C91.5166 6.50317 91.6863 6.75161 91.9385 6.91569C92.4438 7.32727 92.9492 7.73886 93.4536 8.06702C93.6223 8.23202 93.8699 7.97896 93.7012 7.81396C93.2784 7.31802 92.939 6.82116 92.5162 6.32522C92.2621 5.99429 91.9255 5.7477 91.6724 5.5002C92.0897 5.49557 92.4235 5.49187 92.8407 5.48725C93.5084 5.47985 94.0091 5.4743 94.6749 5.30004C94.7574 5.21569 94.7537 4.88198 94.5024 4.80133Z" fill="#030229"/>
<path opacity="0.1" d="M8.1801 46.902C7.59408 46.7416 7.00991 46.7481 6.34229 46.7555C6.17538 46.7573 6.00848 46.7592 5.84157 46.761C6.66778 46.0009 7.49398 45.2408 8.06798 44.3166C8.23211 44.0645 7.89552 43.8179 7.73047 43.9866C6.65298 44.6661 5.74517 45.594 4.83644 46.4384C4.82442 45.3538 4.81239 44.2693 4.80037 43.1847C4.79482 42.6842 4.04375 42.6925 4.0493 43.1931C4.06132 44.2776 4.07427 45.4456 4.08629 46.5302C3.32689 45.7876 2.56842 45.1285 1.80994 44.4695C1.47336 44.2229 1.06072 44.6446 1.3973 44.8912C1.98887 45.5522 2.58044 46.2131 3.25546 46.8731C2.42093 46.8824 1.5864 46.8916 0.752801 46.9843C0.41899 46.988 0.424539 47.4886 0.75835 47.4849C1.76071 47.5572 2.67869 47.547 3.59667 47.5368C2.85299 48.2126 2.11024 48.9717 1.45094 49.73C1.12083 50.0674 1.62617 50.479 1.95721 50.225C2.70088 49.5493 3.44549 48.9569 4.10571 48.2821C4.11588 49.1998 4.12698 50.201 4.30406 51.1168C4.30591 51.2837 4.63972 51.28 4.72132 51.1122C4.87898 50.2761 4.86881 49.3584 4.85863 48.4407C5.11084 48.6047 5.28052 48.8532 5.53273 49.0172C6.03807 49.4288 6.54341 49.8404 7.04783 50.1686C7.21658 50.3336 7.46417 50.0805 7.29541 49.9155C6.8726 49.4196 6.53324 48.9227 6.11043 48.4268C5.85637 48.0958 5.51978 47.8493 5.26665 47.6018C5.68391 47.5971 6.01773 47.5934 6.43499 47.5888C7.10261 47.5814 7.60333 47.5759 8.2691 47.4016C8.35163 47.3172 8.34793 46.9835 8.1801 46.902Z" fill="#030229"/>
<path d="M22.2302 19.2962C21.3066 18.8058 20.4665 18.3145 19.7897 17.4876C19.0284 16.5782 18.6826 15.4974 18.1699 14.4184C18.1699 14.4184 18.1689 14.335 18.0855 14.3359L18.002 14.3368C18.002 14.3368 18.002 14.3368 17.9195 14.4212C17.9195 14.4212 17.9195 14.4212 17.9204 14.5046C17.695 16.7599 16.3774 18.3598 14.724 19.7966C14.6415 19.8809 14.6433 20.0478 14.7277 20.1303C16.5729 20.9442 17.8497 23.1829 18.4542 25.0118C18.5395 25.1777 18.7899 25.175 18.8715 25.0072C19.1933 23.9189 19.4325 22.915 20.0056 21.9074C20.5787 20.8998 21.3214 20.1406 22.2329 19.5465C22.3155 19.4621 22.3136 19.2953 22.2302 19.2962Z" fill="#789CA5"/>
<path d="M149.753 44.3215C148.829 43.8311 147.989 43.3398 147.396 42.512C146.634 41.6027 146.289 40.5218 145.776 39.4428C145.776 39.4428 145.775 39.3594 145.691 39.3603L145.608 39.3612C145.608 39.3612 145.608 39.3612 145.525 39.4456C145.525 39.4456 145.525 39.4456 145.526 39.529C145.301 41.7843 143.983 43.3842 142.33 44.821C142.247 44.9054 142.249 45.0722 142.334 45.1547C144.179 45.9686 145.456 48.2073 146.06 50.0362C146.145 50.2021 146.396 50.1994 146.477 50.0316C146.799 48.9433 147.038 47.9394 147.612 46.9318C148.185 45.9242 148.927 45.1651 149.839 44.5709C149.839 44.5709 149.837 44.404 149.753 44.3215Z" fill="#789CA5"/>
<path d="M88.5966 23.8073C87.9252 23.481 87.4208 23.1529 86.9136 22.5744C86.4055 21.9126 86.1468 21.1645 85.7212 20.4183C85.7212 20.4183 85.7213 20.4183 85.6378 20.4192L85.5543 20.4201C85.5543 20.4201 85.5543 20.4201 85.5553 20.5036C85.4059 22.0905 84.5 23.1853 83.3427 24.1993C83.2602 24.2837 83.2611 24.3671 83.3446 24.3662C84.6863 24.9354 85.5384 26.5112 85.9695 27.758C85.9714 27.9249 86.2217 27.9221 86.2199 27.7552C86.3785 27.0026 86.6205 26.2489 87.0304 25.5769C87.4402 24.9048 87.9354 24.3987 88.5984 23.9742C88.6819 23.9733 88.68 23.8064 88.5966 23.8073Z" fill="#789CA5"/>
<path d="M67.3105 38.6845C66.1357 38.1135 65.2112 37.5397 64.449 36.5469C63.5181 35.3891 63.087 34.1423 62.488 32.8139C62.488 32.8139 62.4871 32.7305 62.4036 32.7314L62.3202 32.7323C62.3202 32.7323 62.2367 32.7333 62.2377 32.8167L62.2386 32.9001C61.9344 35.5735 60.371 37.5933 58.3866 39.2841C58.3041 39.3684 58.3068 39.6187 58.4737 39.6168C60.7381 40.593 62.2698 43.246 62.9624 45.4912C63.0486 45.7405 63.3824 45.7368 63.4631 45.4856C63.7831 44.2305 64.1864 42.9745 64.8411 41.7991C65.4958 40.6237 66.4036 39.6958 67.5645 39.0154C67.3976 39.0173 67.4783 38.7661 67.3105 38.6845Z" fill="#789CA5"/>
<path d="M47.2981 17.6724C46.1113 16.0168 44.9254 14.4446 43.4084 13.1264C42.5665 12.4683 41.7246 11.8101 40.8011 11.3197C40.2976 11.075 39.795 10.9137 39.2915 10.6689C39.0402 10.5883 38.7889 10.5076 38.5367 10.3436C38.2854 10.2629 38.1167 10.0979 37.8673 10.1841C37.7003 10.1859 37.6178 10.2703 37.7031 10.4362C37.7912 10.8524 38.2947 11.0972 38.6313 11.3438C39.0522 11.6728 39.4723 11.9185 39.8932 12.2476C40.7342 12.8223 41.5762 13.4805 42.3346 14.1396C43.7681 15.4587 44.9522 16.864 46.0547 18.4371C46.5637 19.1824 47.8081 18.5011 47.2981 17.6724Z" fill="#FF8F6B"/>
<path d="M46.7036 51.1461C46.0184 49.5684 44.4236 48.7517 42.8306 48.1019C41.2376 47.452 39.3952 46.8884 37.7289 47.1572C36.1451 47.3416 34.4037 48.3622 33.8362 49.8703C33.4309 50.9595 33.0313 52.5492 34.0419 53.3724C34.5482 53.8674 35.4671 53.9407 35.9623 53.4346C36.7885 52.6745 36.0245 51.5148 35.3504 50.9382C32.5687 48.4659 27.8999 48.9349 24.8279 50.3874C22.9177 51.2429 21.2644 52.6797 20.2842 54.6096C19.4664 56.1205 18.578 58.8004 19.6804 60.3735C19.8501 60.6219 20.1839 60.6182 20.348 60.3661C21.2522 59.1045 21.2318 57.2691 21.8846 55.9269C22.5365 54.5012 23.6085 53.3212 24.8519 52.5565C27.4205 50.8592 31.8342 49.9759 34.5251 51.7817C34.8617 52.0283 35.7861 52.6021 35.291 53.1083C34.8783 53.53 34.2061 53.1203 33.952 52.7893C32.9302 50.965 35.3282 48.936 36.8257 48.5022C38.3232 48.0684 40.0804 48.4661 41.5055 49.0344C43.0967 49.5173 44.9428 50.4147 45.8756 51.7394C46.2947 51.9016 46.8752 51.5614 46.7036 51.1461Z" fill="#EF37FF"/>
<path d="M119.974 37.9025C120.066 37.9015 120.065 37.8102 119.973 37.8113C119.882 37.8123 119.883 37.9035 119.974 37.9025Z" fill="#3F3937"/>
<path d="M120.703 36.4684C122.092 33.783 124.982 30.9141 128.248 31.8792C129.42 32.1999 130.934 33.2678 130.784 34.7714C130.711 35.7734 129.536 35.119 129.114 34.7064C128.1 33.633 128.58 31.7086 128.9 30.4535C129.382 28.7794 130.449 27.1823 131.857 26.1654C133.015 25.2348 134.596 24.8001 136.013 24.6175C137.596 24.433 139.021 24.9179 140.527 25.2349C141.112 25.3119 141.521 24.6398 141.1 24.2273C140.002 23.0714 138.08 22.9258 136.58 23.1093C134.996 23.2937 133.332 23.7294 132.007 24.6619C129.356 26.4435 127.395 30.2199 127.68 33.3873C127.863 34.8038 129.728 37.4531 131.297 35.9338C132.041 35.2581 131.777 34.0094 131.434 33.1789C130.836 31.9339 129.491 31.1145 128.236 30.7946C124.469 29.8351 121.583 33.0377 120.2 36.2237C120.119 36.4749 120.539 36.7206 120.703 36.4684Z" fill="#EF37FF"/>
<path d="M48.5063 33.0205C47.3195 31.3649 45.8034 30.1301 44.0417 29.3153C43.1191 28.9083 42.1974 28.5848 41.2776 28.4281C40.4412 28.2705 39.1885 28.2009 38.442 28.6264C38.276 28.7117 38.2788 28.9619 38.4476 29.127C39.1198 29.5367 40.1222 29.609 40.8751 29.7675C41.7959 30.0077 42.5497 30.2496 43.3889 30.6575C44.9828 31.3908 46.497 32.4587 47.5966 33.7815C48.0194 34.2774 48.93 33.5998 48.5063 33.0205Z" fill="#FF8F6B"/>
<path d="M29.4575 38.8218C30.2068 38.6466 31.0404 38.554 31.7914 38.5456C32.2087 38.541 32.626 38.5364 33.0432 38.5318C33.2936 38.529 33.544 38.5262 33.7099 38.4409C33.8759 38.3557 34.0428 38.3538 34.2088 38.2685C34.3748 38.1833 34.372 37.933 34.2042 37.8514C34.0364 37.7698 33.8685 37.6882 33.7841 37.6057C33.6163 37.5242 33.2825 37.5279 33.1147 37.4463C32.6974 37.4509 32.2801 37.4555 31.7804 37.5445C30.9467 37.6372 30.1141 37.8133 29.2823 38.0728C28.7825 38.1618 28.9578 38.9108 29.4575 38.8218Z" fill="#FF8F6B"/>
<path d="M118.362 58.6889C120.683 57.2447 123.174 56.049 125.836 55.2685C127.084 54.921 128.415 54.5724 129.749 54.3908C130.499 54.299 131.166 54.2082 131.916 54.1165C132.5 54.11 133.084 54.1035 133.582 53.8477C133.748 53.7624 133.745 53.5121 133.578 53.4305C132.991 53.1867 132.407 53.2766 131.74 53.284C130.989 53.2924 130.322 53.3832 129.571 53.3915C128.153 53.4907 126.737 53.7567 125.322 54.1061C122.492 54.805 120.002 56.0841 117.686 57.9454C117.356 58.2829 117.864 58.9447 118.362 58.6889Z" fill="#FF8F6B"/>
<path d="M113.729 54.8191C115.709 52.7112 118.28 51.2643 120.768 49.8182C122.013 49.1369 123.34 48.3713 124.668 47.7725C125.416 47.4305 126.08 47.0894 126.744 46.7482C127.408 46.4071 128.157 46.232 128.82 45.8074C128.986 45.7221 128.983 45.4719 128.732 45.3912C128.062 45.2318 127.314 45.4904 126.647 45.5812C125.814 45.6739 125.065 45.9325 124.318 46.2745C122.823 46.9586 121.329 47.7261 119.92 48.5761C117.183 50.1083 114.78 51.7202 112.888 54.2443C112.559 54.6652 113.316 55.1574 113.729 54.8191Z" fill="#FF8F6B"/>
<path d="M100.02 15.3361C99.9341 15.0867 99.9314 14.8364 99.8442 14.5037C99.8424 14.3368 99.758 14.2543 99.7571 14.1709C99.7561 14.0875 99.7552 14.004 99.6708 13.9215C99.6699 13.8381 99.5865 13.839 99.5855 13.7556C99.5012 13.6731 99.4168 13.5906 99.3333 13.5915C99.2499 13.5924 99.1673 13.6768 99.0848 13.7611C99.0857 13.8446 99.0023 13.8455 99.0032 13.9289C99.0041 14.0124 99.0051 14.0958 99.006 14.1792C99.0078 14.3461 99.0097 14.5129 99.095 14.6788C99.0978 14.9291 99.184 15.1785 99.2702 15.4278L99.2693 15.3444L99.2702 15.4278C99.2711 15.5113 99.3564 15.6772 99.4408 15.7597C99.5252 15.8422 99.693 15.9238 99.7756 15.8394C99.859 15.8385 100.025 15.7532 100.024 15.6698C100.024 15.6698 100.022 15.5029 100.02 15.3361Z" fill="#030229"/>
<path d="M103.492 27.3123C103.552 25.1422 104.198 23.216 104.927 21.2054C105.333 20.1997 105.74 19.2773 106.231 18.3541C106.721 17.4308 107.214 16.6744 107.453 15.6705C107.451 15.5037 107.282 15.2553 107.116 15.424C106.703 15.7623 106.455 16.0154 106.126 16.4362C105.88 16.8561 105.636 17.3594 105.39 17.7794C104.9 18.786 104.411 19.7927 104.005 20.8819C103.277 22.8925 102.884 25.1496 102.825 27.3197C102.913 27.7359 103.497 27.7294 103.492 27.3123Z" fill="#FF8F6B"/>
<path d="M110.513 13.2184C110.595 13.0506 110.677 12.9662 110.759 12.7984C110.759 12.7984 110.76 12.8819 110.676 12.8828C110.676 12.8828 110.675 12.7994 110.759 12.7984L110.841 12.7141C110.924 12.6297 110.924 12.6297 111.006 12.5454C111.171 12.2933 111.419 12.1236 111.583 11.8715C111.747 11.6194 111.996 11.4497 112.16 11.1976C112.242 11.0298 112.408 10.9445 112.489 10.7768C112.488 10.6933 112.572 10.6924 112.571 10.609C112.653 10.5246 112.652 10.4412 112.651 10.3578C112.733 10.19 112.563 9.94156 112.313 9.94434C112.23 9.94526 112.146 9.94619 111.979 9.94804C111.896 9.94896 111.897 10.0324 111.813 10.0333C111.813 10.0333 111.813 10.0333 111.73 10.0342C111.813 10.0333 111.813 10.0333 111.73 10.0342C111.563 10.0361 111.398 10.2048 111.232 10.2901C110.9 10.4606 110.652 10.7137 110.405 10.9667C110.157 11.2198 109.91 11.4729 109.746 11.8084C109.582 12.0605 109.336 12.397 109.255 12.6482C109.091 12.9004 109.179 13.3166 109.514 13.4797C110.016 13.5576 110.349 13.4705 110.513 13.2184Z" fill="#FF8F6B"/>
<path d="M107.765 28.8503C108.008 28.1801 108.336 27.5924 108.579 26.9222C108.822 26.252 109.065 25.6653 109.392 24.9941C109.719 24.4065 109.962 23.7363 110.289 23.1486C110.617 22.5609 111.111 21.9713 111.187 21.303C111.184 21.0527 110.933 20.9721 110.766 20.9739C110.1 21.1482 109.775 21.9027 109.363 22.4079C108.869 22.9974 108.543 23.6686 108.216 24.3397C107.89 25.0108 107.647 25.681 107.405 26.4346C107.325 26.7692 107.162 27.1048 107.166 27.5219C107.087 27.8566 107.091 28.2737 107.095 28.6074C107.016 29.0255 107.602 29.1859 107.765 28.8503Z" fill="#FF8F6B"/>
<path d="M112.338 19.7052C112.5 19.2862 112.747 18.9497 112.994 18.6132C113.322 18.1089 113.482 17.5231 113.812 17.1023C114.141 16.6814 114.556 16.5099 114.97 16.1716C115.383 15.8333 115.797 15.4949 116.209 15.0732C117.778 13.5539 119.6 12.1987 121.507 11.0929C122.005 10.8371 122.503 10.5812 123.001 10.3254C123.333 10.1548 123.83 9.81558 123.575 9.40122C123.148 8.57157 121.491 9.67463 120.993 9.93046C119.086 11.0363 117.518 12.639 115.781 14.0767C115.284 14.4159 114.871 14.8377 114.459 15.2595C114.046 15.6812 113.719 16.2689 113.306 16.6907C112.894 17.1124 112.396 17.3683 111.983 17.79C111.653 18.1274 111.408 18.6308 111.247 19.1332C110.92 19.8043 111.929 20.4606 112.338 19.7052Z" fill="#FF8F6B"/>
<path opacity="0.5" d="M72.8307 24.5647C73.1571 23.8936 73.2313 23.0584 73.1396 22.3084C73.1303 21.4742 73.0376 20.6408 72.8624 19.8918C72.8605 19.725 72.5267 19.7287 72.5286 19.8955C72.4534 20.6473 72.4618 21.3981 72.471 22.2324C72.4784 22.8998 72.4867 23.6507 72.2428 24.2374C72.0806 24.6564 72.6684 24.9837 72.8307 24.5647Z" fill="#EF37FF"/>
<g opacity="0.5">
<path d="M72.8775 13.7186C72.8692 12.9677 72.9443 12.216 72.8534 11.5495C72.7617 10.7996 72.5039 10.1349 72.0793 9.47212C71.994 9.30619 71.6611 9.39332 71.7473 9.64267C72.0959 10.9738 72.1116 12.3921 72.1273 13.8103C72.0485 14.2284 72.883 14.2191 72.8775 13.7186Z" fill="#EF37FF"/>
</g>
<path opacity="0.5" d="M69.1259 6.58627C68.9516 5.9207 68.6939 5.25606 68.3536 4.67577C68.1839 4.42733 68.0967 4.09455 67.9271 3.84612C67.7574 3.59769 67.5849 3.09897 67.2511 3.10267C67.0842 3.10452 66.9173 3.10637 66.8357 3.27415C66.6725 3.60971 66.9266 3.94065 67.0972 4.27251C67.2668 4.52094 67.4374 4.8528 67.5237 5.10215C67.864 5.68244 68.1208 6.26366 68.2942 6.8458C68.4666 7.34451 69.2984 7.08498 69.1259 6.58627Z" fill="#EF37FF"/>
<path opacity="0.5" d="M72.9517 5.37302C73.1112 4.70375 73.1863 3.95198 73.2615 3.20021C73.2578 2.8665 73.2531 2.44937 73.2494 2.11566C73.2457 1.78195 73.2411 1.36481 73.0705 1.03295C72.9843 0.783596 72.6505 0.787296 72.5698 1.0385C72.4066 1.37406 72.4112 1.7912 72.4149 2.12491C72.4186 2.45862 72.4223 2.79233 72.426 3.12603C72.4334 3.79345 72.3573 4.4618 72.2813 5.13014C72.2831 5.29699 72.3694 5.54635 72.5363 5.5445C72.705 5.7095 72.9545 5.6233 72.9517 5.37302Z" fill="#EF37FF"/>
<path opacity="0.5" d="M76.1501 7.75909C76.3077 6.92297 76.6332 6.16842 77.0431 5.49638C77.4529 4.82434 78.0306 4.23387 78.524 3.5609C78.6056 3.39312 78.5193 3.14377 78.3534 3.22904C77.4381 3.4895 76.7788 4.24775 76.3699 5.00322C75.8775 5.75961 75.6373 6.68009 75.4797 7.51621C75.3183 8.01863 76.0722 8.26058 76.1501 7.75909Z" fill="#EF37FF"/>
<path d="M131.348 40.5208C131.431 40.4364 131.43 40.353 131.512 40.2686C131.594 40.1009 131.675 39.9331 131.674 39.7662C131.672 39.5994 131.671 39.516 131.752 39.3482L131.752 39.2647C131.751 39.1813 131.75 39.0979 131.749 39.0145C131.747 38.8476 131.745 38.6808 131.66 38.5148C131.658 38.348 131.574 38.2655 131.489 38.183C131.319 37.8511 130.982 37.6045 130.564 37.5257C130.732 37.6073 130.899 37.6889 131.068 37.8539C130.899 37.6889 130.732 37.6073 130.565 37.6092C130.397 37.5276 130.23 37.5294 130.147 37.6138C129.981 37.6156 129.898 37.7 129.732 37.7853C129.566 37.8705 129.401 38.0392 129.319 38.207C129.568 38.0374 129.733 37.8687 129.981 37.6991C129.898 37.7 129.815 37.7843 129.732 37.7853C129.566 37.8705 129.4 37.9558 129.318 38.0402C129.235 38.1245 129.152 38.2089 129.07 38.2932C129.071 38.3767 128.987 38.3776 128.988 38.461C128.989 38.5444 128.907 38.6288 128.908 38.7122C128.99 38.6279 128.988 38.461 129.071 38.3767C129.072 38.4601 128.988 38.461 128.989 38.5444C128.99 38.6279 128.907 38.6288 128.908 38.7122C128.825 38.7966 128.827 38.9634 128.744 39.0478C128.663 39.2155 128.581 39.3833 128.584 39.6336C128.502 39.8014 128.589 40.0507 128.59 40.2176C128.676 40.3835 128.761 40.5495 128.846 40.7154C128.932 40.8813 129.1 41.0463 129.268 41.1279C129.353 41.2104 129.52 41.2086 129.604 41.2911C129.855 41.3717 130.189 41.368 130.438 41.2818C130.521 41.1975 130.688 41.1956 130.77 41.1112C131.102 40.9407 131.267 40.6886 131.348 40.5208Z" fill="#FF8F6B"/>
<path d="M128.023 11.6072C128.022 11.5238 127.938 11.5247 127.937 11.4413C127.853 11.3588 127.769 11.2763 127.768 11.1928C127.768 11.1928 127.683 11.1103 127.6 11.1113C127.432 11.0297 127.431 10.9463 127.18 10.8656C127.096 10.8665 126.928 10.785 126.845 10.7859C126.762 10.7868 126.595 10.7887 126.595 10.7887L126.345 10.8749C126.179 10.9601 126.097 11.0445 126.015 11.2123C125.933 11.2966 125.933 11.2966 125.933 11.38C125.934 11.4635 125.851 11.4644 125.852 11.5478C125.77 11.7156 125.69 11.9668 125.692 12.2171C125.695 12.4674 125.78 12.6333 125.867 12.8827C126.122 13.297 126.542 13.5427 126.959 13.5381C127.376 13.5334 127.874 13.2776 128.036 12.8586C128.118 12.6908 128.199 12.4396 128.196 12.1893C128.194 12.0225 128.109 11.8566 128.023 11.6072Z" fill="#FF8F6B"/>
<path d="M66.6289 22.2976C65.9363 20.0525 66.2433 17.6294 66.6356 15.3722C66.6337 15.2054 66.4659 15.1238 66.3843 15.2916C65.5747 17.5533 65.3531 20.1424 66.0466 22.4709C66.0512 22.8881 66.717 22.7138 66.6289 22.2976Z" fill="#030229"/>
</svg>
