<svg width="128" height="128" viewBox="0 0 128 128" fill="none" xmlns="http://www.w3.org/2000/svg">
<circle cx="64" cy="64" r="64" fill="#47C9A2" fill-opacity="0.5"/>
<g clip-path="url(#clip0_222_3036)">
<path d="M63.7358 114.936C92.0127 114.936 114.936 92.0131 114.936 63.7361C114.936 35.4591 92.0127 12.5361 63.7358 12.5361C35.4588 12.5361 12.5358 35.4591 12.5358 63.7361C12.5358 92.0131 35.4588 114.936 63.7358 114.936Z" fill="#47C9A2"/>
<g clip-path="url(#clip1_222_3036)">
<path d="M86.4307 56.7868L67.6629 56.7657C67.6629 56.7657 68.751 52.3128 68.9464 50.2263C69.0785 48.8001 69.1102 47.3792 68.7827 45.9741C68.2967 43.8612 67.7527 42.5406 66.8864 40.9031C66.4215 40.0368 65.5236 39.498 64.5463 39.498H60.9122C59.449 39.498 58.2657 40.6866 58.271 42.1497C58.2816 44.5954 58.2816 47.8598 58.2288 47.9708C56.8026 50.9711 55.1492 53.8499 53.2846 56.5967C52.4341 57.8539 51.5414 59.074 50.5061 60.1886C50.0519 60.6746 49.8036 61.319 49.8036 61.9793V85.0733C49.8036 85.7546 50.0677 86.4149 50.5431 86.9062C51.2509 87.6352 52.5187 88.5014 54.5999 88.5014C61.1657 88.475 71.8041 88.4169 79.3683 88.4697C80.3138 88.475 81.1906 87.9785 81.666 87.1597L88.3376 75.7395C88.7918 74.9472 89.0295 74.0492 89.0348 73.1354L89.0718 59.4385C89.0718 57.9753 87.8886 56.7921 86.4307 56.7868Z" fill="white"/>
<path d="M43.9351 60.5586H41.5686C40.1107 60.5586 38.9275 61.7418 38.9275 63.1997V85.8605C38.9275 87.3185 40.1107 88.5016 41.5686 88.5016H43.9298C45.3877 88.5016 46.5709 87.3185 46.5709 85.8605V63.1997C46.5762 61.7418 45.393 60.5586 43.9351 60.5586Z" fill="white"/>
</g>
</g>
<defs>
<clipPath id="clip0_222_3036">
<rect width="102.4" height="102.4" fill="white" transform="translate(12.7999 12.7998)"/>
</clipPath>
<clipPath id="clip1_222_3036">
<rect width="50.1443" height="50.1443" fill="white" transform="translate(38.9275 38.9277)"/>
</clipPath>
</defs>
</svg>
