<svg width="28" height="28" viewBox="0 0 28 28" fill="none" xmlns="http://www.w3.org/2000/svg">
<path d="M23.625 3.0625H7.875C6.83107 3.06368 5.83024 3.4789 5.09207 4.21707C4.3539 4.95524 3.93868 5.95607 3.9375 7V14.875C3.93815 15.455 4.16883 16.011 4.57893 16.4211C4.98902 16.8312 5.54504 17.0618 6.125 17.0625H11.2411C11.3038 17.0625 11.3658 17.076 11.4228 17.102C11.4798 17.128 11.5306 17.166 11.5717 17.2134C11.6127 17.2607 11.6431 17.3164 11.6608 17.3765C11.6785 17.4367 11.6831 17.4999 11.6742 17.562L10.9419 22.6882C10.939 22.7086 10.9375 22.7293 10.9375 22.75C10.9375 23.5622 11.2602 24.3412 11.8345 24.9155C12.4088 25.4898 13.1878 25.8125 14 25.8125C14.8122 25.8125 15.5912 25.4898 16.1655 24.9155C16.7398 24.3412 17.0625 23.5622 17.0625 22.75C17.0625 22.7293 17.061 22.7086 17.0581 22.6882L16.3258 17.562C16.3169 17.4999 16.3215 17.4367 16.3392 17.3765C16.3569 17.3164 16.3873 17.2607 16.4284 17.2134C16.4694 17.166 16.5202 17.128 16.5772 17.102C16.6342 17.076 16.6962 17.0625 16.7589 17.0625H21.875C22.455 17.0618 23.011 16.8312 23.4211 16.4211C23.8312 16.011 24.0618 15.455 24.0625 14.875V3.5C24.0625 3.38397 24.0164 3.27269 23.9344 3.19065C23.8523 3.1086 23.741 3.06251 23.625 3.0625ZM7.875 3.9375H19.6875V8.75C19.6875 8.86603 19.7336 8.97731 19.8156 9.05936C19.8977 9.14141 20.009 9.1875 20.125 9.1875C20.241 9.1875 20.3523 9.14141 20.4344 9.05936C20.5164 8.97731 20.5625 8.86603 20.5625 8.75V3.9375H23.1875V11.8125H4.8125V7C4.81341 6.18805 5.13636 5.40962 5.71049 4.83549C6.28462 4.26136 7.06305 3.93841 7.875 3.9375ZM21.875 16.1875H16.7589C16.5708 16.1875 16.385 16.2279 16.2139 16.306C16.0428 16.384 15.8905 16.498 15.7673 16.64C15.6441 16.7821 15.5528 16.949 15.4998 17.1294C15.4467 17.3098 15.433 17.4995 15.4596 17.6856L16.1873 22.7797C16.1795 23.3547 15.9456 23.9034 15.5363 24.3073C15.1269 24.7111 14.575 24.9375 14 24.9375C13.425 24.9375 12.8731 24.7111 12.4637 24.3073C12.0544 23.9034 11.8205 23.3547 11.8127 22.7797L12.5404 17.6857C12.567 17.4996 12.5533 17.3099 12.5003 17.1295C12.4472 16.949 12.3559 16.7822 12.2327 16.6401C12.1095 16.498 11.9572 16.3841 11.7861 16.306C11.615 16.2279 11.4292 16.1875 11.2411 16.1875H6.125C5.77702 16.1871 5.44341 16.0487 5.19735 15.8026C4.95129 15.5566 4.81289 15.223 4.8125 14.875V12.6875H23.1875V14.875C23.1871 15.223 23.0487 15.5566 22.8026 15.8026C22.5566 16.0487 22.223 16.1871 21.875 16.1875Z" fill="white"/>
</svg>
