<?xml version="1.0" encoding="UTF-8"?><svg id="Folder-Add--Streamline-Flex.svg" xmlns="http://www.w3.org/2000/svg" viewBox="0 0 13.44 12.85"><g id="Folder-Add--Streamline-Flex.svg-2"><path id="Subtract" d="m6.07,1.19c-.14-.37-.48-.63-.88-.65-1.15-.06-2.31-.05-3.46.03-.48.04-.87.41-.92.89-.34,2.94-.45,5.88-.1,8.83.12,1,.94,1.73,1.92,1.83,2.76.3,5.49.29,8.25,0,.96-.11,1.73-.86,1.85-1.82.22-1.82.28-3.68.14-5.97-.06-.95-.8-1.71-1.74-1.79-1.34-.11-2.28-.12-3.93-.15-.41,0-.77-.27-.91-.65l-.2-.54h0Z" fill="none" stroke="#313b6b" stroke-linecap="round" stroke-linejoin="round"/><path id="Vector" d="m6.74,5.5v4m-2-2h4" fill="none" stroke="#313b6b" stroke-linecap="round" stroke-linejoin="round"/></g></svg>