<?xml version="1.0" encoding="UTF-8"?><svg id="Layer_1" xmlns="http://www.w3.org/2000/svg" viewBox="0 0 13.85 13.34"><path d="m6.92,1c.24,0,.49.13.61.38l1.3,2.64c.1.2.29.34.51.37l2.91.42c.56.08.78.77.38,1.16l-2.11,2.06c-.16.16-.23.38-.2.6l.5,2.9c.08.44-.27.8-.67.8-.1,0-.21-.02-.32-.08l-2.61-1.37c-.1-.05-.21-.08-.32-.08s-.22.03-.32.08l-2.61,1.37c-.1.05-.21.08-.32.08-.4,0-.75-.36-.67-.8l.5-2.9c.04-.22-.04-.45-.2-.6l-2.11-2.06c-.4-.39-.18-1.08.38-1.16l2.91-.42c.22-.03.41-.17.51-.37l1.3-2.64c.12-.25.37-.38.61-.38m0-1c-.64,0-1.22.36-1.51.94l-1.23,2.49-2.75.4c-.64.09-1.16.53-1.36,1.14-.2.61-.04,1.27.43,1.72l1.99,1.94-.47,2.74c-.08.49.05.99.37,1.37.32.38.79.6,1.29.6.27,0,.54-.07.78-.19l2.46-1.29,2.46,1.29c.24.13.51.19.78.19.5,0,.97-.22,1.29-.6.32-.38.45-.88.37-1.37l-.47-2.74,1.99-1.94c.46-.45.62-1.11.43-1.72-.2-.61-.72-1.05-1.36-1.14l-2.75-.4-1.23-2.49c-.29-.58-.86-.94-1.51-.94h0Z" fill="#4a56db" stroke-width="0"/></svg>