<svg width="26" height="26" viewBox="0 0 26 26" fill="none" xmlns="http://www.w3.org/2000/svg">
<path d="M23.8333 6.28307C23.019 6.63634 22.1578 6.86987 21.2766 6.97641C22.2063 6.421 22.903 5.54725 23.2375 4.51724C22.3638 5.03731 21.4074 5.40373 20.41 5.60057C19.7432 4.87753 18.8553 4.39623 17.8856 4.23216C16.9158 4.0681 15.919 4.23054 15.0516 4.69403C14.1841 5.15751 13.495 5.89581 13.0923 6.79314C12.6896 7.69048 12.5962 8.69608 12.8266 9.65224C11.0602 9.56289 9.33227 9.10294 7.75517 8.30226C6.17807 7.50157 4.78704 6.37807 3.67246 5.00474C3.28152 5.68742 3.07611 6.46055 3.07663 7.24724C3.07524 7.97782 3.25453 8.69741 3.59853 9.34193C3.94253 9.98646 4.44056 10.5359 5.04829 10.9414C4.34193 10.9222 3.65067 10.7326 3.03329 10.3889V10.4431C3.03859 11.4667 3.39729 12.4571 4.04872 13.2467C4.70015 14.0363 5.60432 14.5767 6.60829 14.7764C6.22182 14.894 5.82057 14.956 5.41663 14.9606C5.13701 14.9573 4.85808 14.9319 4.58246 14.8847C4.86836 15.7653 5.42163 16.5348 6.16529 17.0862C6.90895 17.6377 7.806 17.9436 8.73163 17.9614C7.1686 19.1913 5.23883 19.8625 3.24996 19.8681C2.88784 19.8693 2.52601 19.8476 2.16663 19.8031C4.19726 21.1142 6.56367 21.8102 8.98079 21.8072C10.6488 21.8246 12.3035 21.5093 13.8483 20.88C15.3931 20.2506 16.7971 19.3198 17.9781 18.1418C19.1591 16.9638 20.0936 15.5622 20.7269 14.0191C21.3602 12.4759 21.6797 10.8219 21.6666 9.1539C21.6666 8.96974 21.6666 8.77474 21.6666 8.57974C22.5167 7.94578 23.2499 7.16862 23.8333 6.28307Z" fill="#769AA3"/>
</svg>
