<svg width="20" height="20" viewBox="0 0 20 20" fill="none" xmlns="http://www.w3.org/2000/svg">
<g clip-path="url(#clip0_2_798)">
<path d="M3.33334 17.5C3.33334 15.7319 4.03572 14.0362 5.28596 12.786C6.53621 11.5357 8.2319 10.8333 10 10.8333C11.7681 10.8333 13.4638 11.5357 14.7141 12.786C15.9643 14.0362 16.6667 15.7319 16.6667 17.5H15C15 16.1739 14.4732 14.9021 13.5355 13.9645C12.5979 13.0268 11.3261 12.5 10 12.5C8.67393 12.5 7.40216 13.0268 6.46448 13.9645C5.52679 14.9021 5.00001 16.1739 5.00001 17.5H3.33334ZM10 12.5C7.23751 12.5 5.00001 10.2625 5.00001 7.5C5.00001 4.7375 7.23751 2.5 10 2.5C12.7625 2.5 15 4.7375 15 7.5C15 10.2625 12.7625 12.5 10 12.5ZM10 10.8333C11.8417 10.8333 13.3333 9.34167 13.3333 7.5C13.3333 5.65833 11.8417 4.16667 10 4.16667C8.15834 4.16667 6.66668 5.65833 6.66668 7.5C6.66668 9.34167 8.15834 10.8333 10 10.8333Z" fill="#545454"/>
</g>
<defs>
<clipPath id="clip0_2_798">
<rect width="20" height="20" fill="white"/>
</clipPath>
</defs>
</svg>
