<svg width="26" height="26" viewBox="0 0 26 26" fill="none" xmlns="http://www.w3.org/2000/svg">
<path d="M17.9833 15.1667C17.7666 15.0584 16.3583 14.4084 16.1416 14.3001C15.925 14.1917 15.7083 14.1917 15.4916 14.4084C15.275 14.6251 14.8416 15.2751 14.625 15.4917C14.5166 15.7084 14.3 15.7084 14.0833 15.6001C13.325 15.2751 12.5666 14.8417 11.9166 14.3001C11.375 13.7584 10.8333 13.1084 10.4 12.4584C10.2916 12.2417 10.4 12.0251 10.5083 11.9167C10.6166 11.8084 10.725 11.5917 10.9416 11.4834C11.05 11.3751 11.1583 11.1584 11.1583 11.0501C11.2666 10.9417 11.2666 10.7251 11.1583 10.6167C11.05 10.5084 10.5083 9.2084 10.2916 8.66673C10.1833 7.9084 9.96663 7.9084 9.74996 7.9084H9.20829C8.99163 7.9084 8.66663 8.12507 8.55829 8.2334C7.90829 8.8834 7.58329 9.64173 7.58329 10.5084C7.69163 11.4834 8.01663 12.4584 8.66663 13.3251C9.85829 15.0584 11.375 16.4667 13.2166 17.3334C13.7583 17.5501 14.1916 17.7667 14.7333 17.8751C15.275 18.0917 15.8166 18.0917 16.4666 17.9834C17.225 17.8751 17.875 17.3334 18.3083 16.6834C18.525 16.2501 18.525 15.8167 18.4166 15.3834L17.9833 15.1667ZM20.6916 5.3084C16.4666 1.0834 9.64163 1.0834 5.41663 5.3084C1.94996 8.77507 1.29996 14.0834 3.68329 18.3084L2.16663 23.8334L7.90829 22.3167C9.53329 23.1834 11.2666 23.6167 13 23.6167C18.9583 23.6167 23.725 18.8501 23.725 12.8917C23.8333 10.0751 22.6416 7.36673 20.6916 5.3084ZM17.7666 20.4751C16.3583 21.3417 14.7333 21.8834 13 21.8834C11.375 21.8834 9.85829 21.4501 8.44996 20.6917L8.12496 20.4751L4.76663 21.3417L5.63329 18.0917L5.41663 17.7667C2.81663 13.4334 4.11663 8.01673 8.34163 5.3084C12.5666 2.60007 17.9833 4.0084 20.5833 8.12507C23.1833 12.3501 21.9916 17.8751 17.7666 20.4751Z" fill="#769AA3"/>
</svg>
